<svg width="1220" height="1187" viewBox="0 0 1220 1187" fill="none" xmlns="http://www.w3.org/2000/svg">
<g clip-path="url(#clip0_246_1441)">
<path d="M1147.79 327.616C1136.37 306.989 1123.69 287.081 1109.84 268.004C1100.14 254.619 1089.88 241.682 1079.08 229.191H1079.05C1059.5 206.579 1038.23 185.509 1015.45 166.168C1010.78 162.203 1006.06 158.319 1001.27 154.516C958.03 120.082 910.084 92.035 858.892 71.2322L859.346 146.121L864.245 999.809H439.674L415.796 147.732L417.575 74.0389C209.421 161.681 63.2658 367.743 63.2658 607.992C63.227 657.581 69.5465 706.969 82.0694 754.947C87.3588 775.228 93.7625 795.201 101.251 814.776C103.955 821.881 106.807 828.922 109.808 835.901C111.255 839.298 112.728 842.667 114.256 846.024C116.216 850.408 118.257 854.779 120.352 859.096C121.974 862.493 123.642 865.867 125.354 869.219C127.557 873.617 129.833 877.979 132.181 882.305C133.992 885.702 135.857 889.072 137.75 892.428C168.282 946.494 207.271 995.313 253.234 1037.03C266.333 1048.92 279.964 1060.2 294.126 1070.86C394.334 1146.24 516.288 1187 641.633 1187C766.978 1187 888.932 1146.24 989.14 1070.86C996.845 1065.07 1004.39 1059.08 1011.78 1052.9C1016.69 1048.81 1021.52 1044.65 1026.26 1040.41C1027.52 1039.29 1028.77 1038.16 1030.02 1037.03C1072.39 998.571 1108.86 954.059 1138.24 904.933C1149.03 886.922 1158.82 868.326 1167.55 849.231C1169.86 844.197 1172.1 839.117 1174.27 833.993C1184.24 810.498 1192.64 786.359 1199.39 761.74C1200.43 757.937 1201.43 754.121 1202.4 750.291V750.278C1202.56 749.615 1202.74 748.938 1202.9 748.275C1203.9 744.242 1204.86 740.182 1205.78 736.122V736.109C1208.75 723.022 1211.26 709.778 1213.31 696.376C1213.57 694.657 1213.82 692.939 1214.07 691.22C1214.16 690.598 1214.26 689.975 1214.32 689.352V689.339C1215.78 678.986 1216.97 668.557 1217.88 658.051C1219.28 641.554 1219.99 624.868 1220 607.992C1220.15 509.905 1195.3 413.401 1147.79 327.616V327.616Z" fill="#FAFAFA"/>
<path d="M1090.99 957.507C1125.22 911.2 1138.39 845.975 1111.76 794.906C1086.78 852.349 1042.32 899.097 986.23 926.879C964.56 937.515 939.351 947.085 929.321 969.061C923.08 982.734 924.268 998.88 929.285 1013.05C934.303 1027.22 942.837 1039.83 951.28 1052.26L951.725 1055.99C1004.88 1033.92 1056.75 1003.81 1090.99 957.507Z" fill="#EDEDED"/>
<path d="M1110.62 795.316C1109.09 842.975 1092.59 888.939 1063.48 926.678C1057.35 934.914 1049.97 942.132 1041.6 948.067C1033.27 953.584 1023.6 956.765 1013.62 957.28C1004.32 957.947 994.735 957.551 985.762 960.469C981.19 962.031 977 964.543 973.467 967.84C969.933 971.137 967.135 975.144 965.257 979.599C960.289 990.578 959.557 1002.69 959.253 1014.56C958.915 1027.74 958.773 1041.43 952.564 1053.41C951.811 1054.86 954.105 1055.94 954.856 1054.49C965.659 1033.65 958.644 1009.28 965.082 987.369C968.086 977.146 974.186 967.767 984.381 963.67C993.296 960.087 1003.18 960.486 1012.6 959.893C1022.35 959.533 1031.86 956.791 1040.3 951.905C1048.94 946.416 1056.59 939.494 1062.91 931.437C1077.44 913.524 1089.06 893.437 1097.36 871.91C1106.96 847.394 1112.3 821.414 1113.15 795.095C1113.2 793.466 1110.67 793.698 1110.62 795.316V795.316Z" fill="#FAFAFA"/>
<path d="M1073.57 915.078C1080.56 919.109 1088.75 920.521 1096.68 919.064C1104.61 917.606 1111.77 913.373 1116.87 907.121C1117.9 905.852 1115.98 904.193 1114.95 905.463C1110.21 911.294 1103.54 915.237 1096.15 916.579C1088.76 917.921 1081.14 916.575 1074.65 912.783C1073.24 911.961 1072.17 914.261 1073.57 915.078Z" fill="#FAFAFA"/>
<path d="M1018.38 957.563C1013.96 941.664 1015.68 924.68 1023.21 909.998C1023.96 908.544 1021.67 907.459 1020.92 908.912C1013.11 924.205 1011.35 941.883 1015.99 958.418C1016.44 959.994 1018.82 959.13 1018.38 957.563H1018.38Z" fill="#FAFAFA"/>
<path d="M1103.6 847.511C1100.57 846.516 1097.83 844.783 1095.64 842.468C1093.45 840.154 1091.86 837.33 1091.03 834.25C1090.6 832.669 1088.22 833.535 1088.64 835.105C1089.58 838.503 1091.33 841.62 1093.75 844.183C1096.17 846.745 1099.18 848.676 1102.51 849.806C1102.82 849.939 1103.16 849.951 1103.48 849.838C1103.79 849.726 1104.05 849.498 1104.2 849.202C1104.34 848.897 1104.36 848.549 1104.25 848.232C1104.13 847.916 1103.9 847.656 1103.6 847.511V847.511Z" fill="#FAFAFA"/>
<path d="M921.198 754.265C921.434 755.259 921.67 756.253 921.892 757.264C924.998 770.65 927.013 784.267 927.917 797.979C928.003 799.038 928.075 800.113 928.131 801.172C929.956 834.232 925.634 867.344 915.385 898.824C911.295 911.348 906.26 923.541 900.322 935.299C892.121 951.537 881.938 968.49 879.641 985.978C879.381 987.799 879.234 989.636 879.201 991.476L947.15 1056.24C947.378 1056.31 947.592 1056.39 947.821 1056.47L950.416 1059.18C950.764 1058.59 951.113 1057.98 951.462 1057.39C951.666 1057.05 951.854 1056.7 952.058 1056.36C952.189 1056.13 952.319 1055.9 952.45 1055.7C952.494 1055.62 952.537 1055.55 952.566 1055.48C952.698 1055.28 952.798 1055.08 952.915 1054.9C954.875 1051.47 956.814 1048.02 958.733 1044.56C958.747 1044.54 958.747 1044.54 958.747 1044.51C973.299 1018.05 985.772 990.145 993.617 961.229C993.853 960.359 994.104 959.474 994.309 958.575C997.773 945.521 1000.17 932.206 1001.46 918.763C1002.15 911.399 1002.46 904.005 1002.4 896.61C1002.21 877.502 999.018 858.543 992.941 840.428C980.821 804.318 957.3 772.491 923.772 755.535C922.914 755.102 922.07 754.682 921.198 754.265Z" fill="#EDEDED"/>
<path d="M920.53 755.273C947.967 794.251 962.439 840.893 961.891 888.573C961.955 898.84 960.402 909.052 957.289 918.835C953.949 928.266 948.147 936.63 940.487 943.058C933.464 949.194 925.571 954.657 920.161 962.396C917.45 966.399 915.615 970.929 914.777 975.692C913.938 980.454 914.114 985.34 915.294 990.029C917.929 1001.79 924.629 1011.9 931.524 1021.56C939.18 1032.29 947.301 1043.31 949.548 1056.61C949.82 1058.22 952.303 1057.71 952.032 1056.1C948.122 1032.95 927.864 1017.71 919.827 996.339C916.077 986.365 915.307 975.2 920.983 965.783C925.947 957.549 934.082 951.909 941.246 945.757C948.811 939.596 954.754 931.675 958.556 922.685C962.156 913.093 964.1 902.957 964.303 892.712C965.129 869.655 962.328 846.611 956.003 824.424C948.924 799.063 937.564 775.1 922.415 753.574C921.477 752.242 919.598 753.95 920.53 755.273V755.273Z" fill="#FAFAFA"/>
<path d="M962.968 873.231C970.972 872.237 978.362 868.427 983.819 862.482C989.275 856.537 992.443 848.844 992.757 840.777C992.815 839.144 990.284 838.977 990.226 840.612C989.947 848.125 986.995 855.291 981.903 860.817C976.81 866.342 969.912 869.863 962.454 870.744C960.834 870.938 961.357 873.423 962.968 873.231H962.968Z" fill="#FAFAFA"/>
<path d="M944.456 940.416C931.362 930.388 922.525 915.787 919.706 899.526C919.428 897.915 916.945 898.432 917.223 900.041C920.187 916.957 929.415 932.132 943.063 942.538C944.365 943.529 945.75 941.401 944.456 940.416V940.416Z" fill="#FAFAFA"/>
<path d="M946.31 801.183C943.294 802.213 940.069 802.477 936.925 801.952C933.781 801.426 930.817 800.127 928.298 798.171C927.01 797.164 925.626 799.293 926.906 800.293C929.698 802.441 932.974 803.872 936.446 804.46C939.918 805.049 943.481 804.777 946.825 803.669C947.149 803.591 947.431 803.392 947.613 803.114C947.796 802.835 947.866 802.497 947.809 802.168C947.74 801.839 947.543 801.551 947.262 801.367C946.982 801.182 946.64 801.116 946.31 801.183Z" fill="#FAFAFA"/>
<path d="M27.0004 698.157C-3.36037 649.219 -11.1876 583.138 19.4992 534.404C39.7275 593.689 80.2505 643.9 133.898 676.153C154.633 688.517 178.981 700.107 187.194 722.826C192.305 736.962 189.81 752.957 183.659 766.671C177.508 780.386 167.979 792.258 158.554 803.962L157.808 807.64C106.618 781.324 57.3612 747.095 27.0004 698.157Z" fill="#EDEDED"/>
<path d="M20.5983 534.905C18.2582 582.531 30.9676 629.685 56.9211 669.668C62.3556 678.375 69.1271 686.17 76.9863 692.766C84.8495 698.943 94.2216 702.9 104.129 704.225C113.342 705.646 122.93 706.032 131.637 709.671C136.067 711.599 140.039 714.444 143.293 718.017C146.548 721.59 149.011 725.812 150.521 730.405C154.582 741.752 154.328 753.883 153.668 765.737C152.935 778.899 151.965 792.558 157.181 805.003C157.813 806.511 155.439 807.405 154.808 805.899C145.733 784.247 154.703 760.525 150.065 738.164C147.901 727.73 142.583 717.885 132.754 712.973C124.159 708.677 114.271 708.27 104.931 706.912C95.247 705.761 85.9919 702.254 77.9741 696.697C69.8049 690.523 62.7447 683.002 57.0959 674.457C44.0722 655.422 34.119 634.455 27.6011 612.325C20.0223 587.109 16.8081 560.781 18.0976 534.48C18.1781 532.852 20.6783 533.288 20.5984 534.905L20.5983 534.905Z" fill="#FAFAFA"/>
<path d="M47.8068 657.286C40.5148 660.735 32.2357 661.476 24.4481 659.378C16.6605 657.28 9.87147 652.478 5.29346 645.832C4.37176 644.484 6.421 642.986 7.34392 644.336C11.5955 650.534 17.92 655.005 25.1758 656.944C32.4316 658.883 40.1408 658.162 46.912 654.91C48.3843 654.206 49.2707 656.585 47.8068 657.286V657.286Z" fill="#FAFAFA"/>
<path d="M99.3619 704.12C105.062 688.634 104.721 671.566 98.4091 656.319C97.7824 654.809 100.156 653.915 100.782 655.423C107.321 671.301 107.639 689.064 101.673 705.167C101.103 706.701 98.7952 705.646 99.3619 704.12V704.12Z" fill="#FAFAFA"/>
<path d="M23.3618 587.499C26.461 586.754 29.3267 585.249 31.7014 583.121C34.0762 580.992 35.8856 578.306 36.9674 575.305C37.5174 573.764 39.8246 574.82 39.2782 576.351C38.0676 579.662 36.0656 582.626 33.4471 584.983C30.8286 587.341 27.6732 589.02 24.2567 589.875C23.9414 589.983 23.597 589.966 23.2935 589.829C22.99 589.691 22.7501 589.443 22.6227 589.135C22.5058 588.82 22.5178 588.471 22.6562 588.165C22.7947 587.859 23.0482 587.62 23.3618 587.499V587.499Z" fill="#FAFAFA"/>
<path d="M212.728 509.401C212.412 510.373 212.095 511.345 211.792 512.334C207.609 525.423 204.496 538.83 202.482 552.424C202.31 553.473 202.151 554.538 202.009 555.589C197.506 588.391 199.126 621.745 206.786 653.956C209.845 666.77 213.875 679.333 218.838 691.535C225.694 708.387 234.467 726.112 235.336 743.728C235.448 745.565 235.445 747.407 235.329 749.244L162.348 808.265C162.115 808.316 161.894 808.384 161.66 808.436L158.854 810.926C158.554 810.314 158.256 809.674 157.956 809.062C157.781 808.708 157.622 808.341 157.446 807.987C157.334 807.747 157.223 807.506 157.109 807.296C157.071 807.216 157.035 807.136 157.01 807.073C156.896 806.862 156.812 806.655 156.711 806.461C155.035 802.885 153.382 799.291 151.752 795.678C151.738 795.662 151.738 795.662 151.741 795.632C139.385 768.077 129.219 739.247 123.747 709.789C123.583 708.903 123.404 708 123.273 707.087C120.88 693.795 119.576 680.329 119.374 666.825C119.288 659.43 119.575 652.035 120.235 644.669C121.978 625.639 126.7 607.003 134.227 589.442C149.238 554.438 175.265 524.629 210.059 510.458C210.949 510.096 211.824 509.746 212.728 509.401Z" fill="#EDEDED"/>
<path d="M213.312 510.461C182.801 547.077 164.59 592.387 161.266 639.955C160.369 650.182 161.088 660.487 163.397 670.491C165.96 680.162 171.063 688.971 178.177 696C184.678 702.688 192.102 708.775 196.866 716.928C199.242 721.138 200.703 725.803 201.153 730.618C201.602 735.433 201.03 740.288 199.474 744.866C195.892 756.373 188.393 765.906 180.737 774.973C172.236 785.04 163.247 795.362 159.927 808.442C159.525 810.027 157.092 809.31 157.494 807.727C163.27 784.969 184.698 771.435 194.443 750.786C198.99 741.15 200.664 730.085 195.771 720.238C191.492 711.627 183.842 705.343 177.201 698.629C170.161 691.873 164.881 683.495 161.821 674.225C159.011 664.372 157.897 654.111 158.526 643.884C159.575 620.835 164.238 598.095 172.343 576.497C181.456 551.795 194.724 528.836 211.571 508.614C212.614 507.362 214.348 509.218 213.312 510.461V510.461Z" fill="#FAFAFA"/>
<path d="M161.436 624.575C153.54 622.933 146.484 618.535 141.527 612.166C136.571 605.797 134.038 597.871 134.38 589.805C134.397 589.476 134.541 589.166 134.781 588.942C135.022 588.717 135.34 588.594 135.669 588.6C135.998 588.605 136.311 588.738 136.544 588.971C136.777 589.203 136.911 589.517 136.917 589.847C136.584 597.357 138.945 604.74 143.572 610.661C148.199 616.583 154.788 620.654 162.15 622.139C163.75 622.463 163.026 624.898 161.436 624.575V624.575Z" fill="#FAFAFA"/>
<path d="M174.435 693.044C188.299 684.114 198.292 670.281 202.422 654.303C202.829 652.72 205.263 653.437 204.855 655.018C200.527 671.637 190.099 686.012 175.65 695.272C174.273 696.154 173.065 693.921 174.435 693.044V693.044Z" fill="#FAFAFA"/>
<path d="M183.889 554.12C186.812 555.393 190.005 555.919 193.181 555.651C196.358 555.382 199.418 554.329 202.086 552.584C203.452 551.685 204.659 553.92 203.302 554.812C200.344 556.726 196.964 557.886 193.455 558.19C189.947 558.494 186.417 557.933 183.175 556.557C182.858 556.452 182.593 556.232 182.434 555.939C182.274 555.646 182.232 555.304 182.315 554.981C182.412 554.659 182.631 554.388 182.925 554.227C183.22 554.065 183.567 554.027 183.889 554.12V554.12Z" fill="#FAFAFA"/>
<path d="M590.592 198.609C634.97 198.609 670.945 162.593 670.945 118.166C670.945 73.7392 634.97 37.7239 590.592 37.7239C546.214 37.7239 510.238 73.7392 510.238 118.166C510.238 162.593 546.214 198.609 590.592 198.609Z" fill="#99BBFF"/>
<path d="M836.617 113.968C829.377 106.311 821.733 99.0471 813.718 92.2074C798.064 78.9181 780.734 67.618 761.417 60.4997C754.144 57.8109 746.629 55.8304 738.977 54.5857C738.058 54.437 737.152 54.2881 736.233 54.1662C736.165 54.1595 736.097 54.1595 736.03 54.1662C735.889 54.1262 735.744 54.099 735.598 54.085C733.719 53.8414 731.839 53.652 729.947 53.5167C719.755 52.8384 709.52 53.7608 699.613 56.2504C693.864 57.7022 688.255 59.6585 682.85 62.0965C677.436 64.7504 672.186 67.7286 667.129 71.0148C664.413 72.6661 661.616 74.1792 658.748 75.5483C650.374 79.5204 641.509 82.3601 632.388 83.9929C626.228 85.0992 619.99 85.7146 613.733 85.8334C608.299 85.9417 603.175 86.1311 598.025 88.0934C592.528 90.161 587.591 93.4872 583.608 97.8061C579.625 102.125 576.706 107.317 575.085 112.967C574.957 113.469 574.993 113.998 575.188 114.478C575.382 114.958 575.725 115.362 576.166 115.633C577.559 116.634 578.91 117.771 580.384 118.664C581.684 119.258 583.072 119.638 584.493 119.788C586.818 120.275 589.148 120.748 591.482 121.209C600.066 122.914 608.686 124.425 617.342 125.742C634.753 128.381 652.264 130.24 669.873 131.318C669.981 131.333 670.089 131.342 670.197 131.345C690.091 132.547 710.033 132.741 729.947 131.927C732.961 131.805 735.962 131.656 738.977 131.48C751.535 130.776 764.062 129.667 776.557 128.151C788.115 126.744 799.628 124.998 811.095 122.914C819.287 121.425 827.448 119.765 835.577 117.934C835.971 117.817 836.329 117.6 836.616 117.304C836.903 117.008 837.108 116.643 837.213 116.245C837.317 115.846 837.318 115.427 837.213 115.028C837.109 114.63 836.904 114.265 836.617 113.968V113.968Z" fill="#EDEDED"/>
<path d="M669.603 221.231C657.97 208.773 645.153 197.478 631.334 187.507C626.751 184.286 622.033 181.254 617.18 178.48C611.231 175.042 605.052 172.017 598.688 169.427C597.268 168.845 595.836 168.29 594.403 167.762C586.262 164.744 577.818 162.62 569.219 161.429C569.151 161.415 569.084 161.429 569.016 161.415C568.881 161.388 568.732 161.361 568.597 161.334C564.428 160.793 560.228 160.535 556.025 160.563C553.011 160.563 549.983 160.725 546.981 161.023C542.133 161.501 537.326 162.333 532.598 163.513C530.26 164.095 527.935 164.771 525.65 165.543C522.318 166.64 519.047 167.914 515.85 169.359C515.796 169.386 515.755 169.4 515.701 169.427C510.334 172.055 505.133 175.011 500.128 178.277C500.02 178.345 499.898 178.413 499.79 178.48C494.105 181.885 488.091 184.705 481.838 186.898C476.472 188.777 470.967 190.234 465.373 191.255C459.214 192.365 452.976 192.975 446.719 193.082C441.284 193.191 436.161 193.38 431.024 195.356C425.526 197.423 420.587 200.749 416.601 205.068C412.616 209.387 409.694 214.579 408.071 220.229C407.946 220.731 407.983 221.26 408.177 221.739C408.372 222.218 408.713 222.623 409.152 222.895C410.545 223.897 411.91 225.02 413.37 225.913C414.668 226.512 416.057 226.891 417.479 227.036C419.804 227.524 422.129 228.011 424.468 228.471C433.052 230.176 441.676 231.683 450.341 232.991C462.224 234.791 474.156 236.23 486.137 237.308C491.815 237.836 497.497 238.269 503.183 238.607C517.769 239.487 532.369 239.83 546.982 239.636C549.996 239.595 553.011 239.527 556.025 239.433C573.923 238.905 591.767 237.561 609.556 235.4C629.385 232.998 649.08 229.588 668.562 225.182C668.957 225.067 669.314 224.851 669.6 224.557C669.887 224.262 670.092 223.898 670.197 223.501C670.302 223.103 670.302 222.685 670.198 222.288C670.094 221.89 669.889 221.526 669.603 221.231V221.231Z" fill="#EDEDED"/>
<path d="M469.315 5.34077L540.104 984.666L398.525 997.246V17.8006C415.396 4.608 439.613 2.54399 469.315 5.34077Z" fill="#CED3DC"/>
<path d="M818.745 5.34077L747.955 984.666L889.534 997.246V17.8006C872.664 4.608 848.446 2.54399 818.745 5.34077Z" fill="#CED3DC"/>
<path d="M892.865 18.228C888.471 7.44453 879.13 0 868.33 0H418.221C403.203 0 390.996 14.4258 390.996 32.1745V1005.54C390.865 1014.55 394.228 1023.25 400.377 1029.83C403.595 1033.21 407.669 1035.65 412.165 1036.9C414.137 1037.45 416.175 1037.72 418.221 1037.72H868.33C870.376 1037.72 872.413 1037.45 874.386 1036.9C886.498 1033.64 895.555 1020.83 895.555 1005.54V32.1745C895.567 27.3953 894.654 22.6589 892.865 18.228V18.228ZM886.525 1005.54C886.525 1017.4 878.36 1027.05 868.33 1027.05H418.221C409.908 1027.05 402.865 1020.42 400.715 1011.39C400.256 1009.48 400.025 1007.51 400.026 1005.54V32.1745C400.026 20.3208 408.191 10.6876 418.221 10.6876H868.33C870.176 10.6862 872.007 11.0162 873.737 11.6621C881.131 14.378 886.525 22.5414 886.525 32.1745V1005.54Z" fill="#CED3DC"/>
<path d="M891.04 295.87H395.514V304.917H891.04V295.87Z" fill="#CED3DC"/>
<path d="M891.04 109.115H395.514V118.162H891.04V109.115Z" fill="#CED3DC"/>
<path d="M891.04 446.653H395.514V455.7H891.04V446.653Z" fill="#CED3DC"/>
<path d="M556.316 4.05981H547.279V574.818H556.316V4.05981Z" fill="#CED3DC"/>
<path d="M739.273 4.05981H730.236V574.818H739.273V4.05981Z" fill="#CED3DC"/>
<path d="M947.518 981.177H354.092C343.311 981.19 332.976 985.483 325.353 993.114C317.731 1000.75 313.442 1011.09 313.43 1021.88C313.424 1027.07 314.42 1032.22 316.363 1037.03C319.382 1044.58 324.589 1051.04 331.313 1055.6C338.037 1060.16 345.971 1062.6 354.092 1062.61H947.518C954.617 1062.6 961.591 1060.74 967.747 1057.2C973.904 1053.67 979.028 1048.58 982.611 1042.44C983.631 1040.71 984.517 1038.9 985.26 1037.03C987.203 1032.22 988.199 1027.07 988.194 1021.88C988.178 1011.09 983.887 1000.74 976.262 993.113C968.637 985.482 958.3 981.189 947.518 981.177Z" fill="#CED3DC"/>
<path d="M891.04 553.709H398.525V583.866H891.04V553.709Z" fill="#CED3DC"/>
<path d="M640.263 544.662H649.3C653.694 544.662 657.908 546.41 661.015 549.52C664.122 552.631 665.868 556.849 665.868 561.248V561.248H623.695C623.695 559.07 624.124 556.913 624.956 554.901C625.789 552.889 627.009 551.06 628.548 549.52C630.086 547.98 631.913 546.758 633.923 545.925C635.933 545.091 638.087 544.662 640.263 544.662V544.662Z" fill="#CED3DC"/>
<path d="M653.471 638.758C705.021 638.758 746.81 596.922 746.81 545.316C746.81 493.709 705.021 451.874 653.471 451.874C601.922 451.874 560.133 493.709 560.133 545.316C560.133 596.922 601.922 638.758 653.471 638.758Z" fill="#FFB8B8"/>
<path d="M549.348 455.424C550.054 444.693 557.142 433.712 579.663 427.975C579.663 427.975 618.313 378.497 670.833 404.444C670.833 404.444 696.295 400.058 715.176 426.505C715.176 426.505 733.895 415.453 741.792 435.043C741.792 435.043 763.747 475.003 755.664 515.761C747.581 556.52 743.444 561.607 743.444 561.607C743.444 561.607 753.747 477.298 694.408 483.144C635.068 488.99 587.295 468.099 573.857 513.839C562.698 551.819 564.104 571.545 564.104 571.545C564.104 571.545 526.79 533.656 539.477 503.821C545.966 488.562 548.26 471.972 549.348 455.424Z" fill="#21364E"/>
<path d="M399.646 1055.97H915.928C912.478 1016.55 910.222 865.842 910.222 855.923C910.222 812.175 874.464 764.432 874.464 764.432L861.665 757.349L754.777 723.964L727.115 687.993C724.219 684.215 720.486 681.162 716.212 679.072C711.937 676.983 707.237 675.915 702.48 675.951L615.099 676.607C607.41 676.667 600.02 679.598 594.377 684.828L540.268 735.08L460.907 773.019L460.772 772.884L459.943 773.502L448.165 781.993L440.59 787.473C440.59 787.473 420.716 811.345 404.832 882.94C402.442 893.708 400.764 1033.11 399.646 1055.97Z" fill="#11EE77"/>
<path d="M1035.42 1037.03C1034.18 1038.16 1032.92 1039.29 1031.67 1040.41C1026.91 1044.65 1022.08 1048.81 1017.19 1052.9C1009.79 1059.07 1002.25 1065.06 994.546 1070.86H299.532C285.379 1060.22 271.749 1048.95 258.641 1037.03H1035.42Z" fill="#CED3DC"/>
<path d="M780.666 1045.15H525.176L530.582 1019.44H775.258L780.666 1045.15Z" fill="#21364E"/>
<path d="M1011.81 934.177H945.328C943.828 934.173 942.345 934.498 940.983 935.129C939.621 935.76 938.415 936.683 937.447 937.831C936.521 937.652 935.579 937.561 934.636 937.561C932.564 937.558 930.512 937.965 928.597 938.758C926.682 939.55 924.941 940.713 923.476 942.179C922.01 943.645 920.847 945.386 920.053 947.302C919.26 949.218 918.852 951.272 918.852 953.347C918.852 955.421 919.26 957.475 920.053 959.391C920.847 961.308 922.01 963.049 923.476 964.515C924.941 965.981 926.682 967.143 928.597 967.936C930.512 968.728 932.564 969.135 934.636 969.133C937.017 969.132 939.366 968.586 941.503 967.536L942.611 981.177L947.018 1035.09C947.227 1035.77 947.508 1036.41 947.856 1037.03C948.747 1038.67 950.062 1040.03 951.663 1040.98C953.264 1041.94 955.092 1042.44 956.954 1042.44H1000.18C1002.05 1042.44 1003.88 1041.94 1005.48 1040.98C1007.08 1040.03 1008.4 1038.66 1009.3 1037.03C1009.63 1036.41 1009.91 1035.76 1010.12 1035.09L1021.75 947.643C1022.22 946.086 1022.33 944.439 1022.06 942.834C1021.78 941.229 1021.14 939.71 1020.17 938.401C1019.2 937.091 1017.94 936.026 1016.49 935.293C1015.04 934.559 1013.44 934.177 1011.81 934.177ZM934.636 964.626C931.65 964.623 928.787 963.433 926.677 961.318C924.567 959.203 923.382 956.336 923.382 953.347C923.382 950.357 924.567 947.49 926.677 945.375C928.787 943.26 931.65 942.07 934.636 942.067C934.838 942.067 935.028 942.121 935.23 942.135C934.786 943.952 934.842 945.855 935.393 947.643L940.151 963.124C938.475 964.099 936.574 964.617 934.636 964.626V964.626Z" fill="#536375"/>
<path d="M861.652 648.05H440.81C437.194 648.056 433.728 649.496 431.171 652.056C428.615 654.615 427.176 658.085 427.17 661.704V946.005C427.173 949.625 428.612 953.097 431.169 955.657C433.726 958.217 437.193 959.656 440.81 959.66H861.652C865.268 959.656 868.735 958.217 871.292 955.657C873.85 953.097 875.288 949.625 875.291 946.005V661.704C875.286 658.085 873.847 654.615 871.29 652.056C868.733 649.496 865.267 648.056 861.652 648.05Z" fill="#536375"/>
<path d="M698.624 875.85H600.173C598.78 875.852 597.445 876.408 596.461 877.395C595.478 878.382 594.926 879.72 594.928 881.114V1036.81H703.883V881.114C703.883 880.423 703.747 879.738 703.483 879.099C703.219 878.461 702.832 877.88 702.343 877.391C701.855 876.902 701.275 876.515 700.637 876.25C699.999 875.986 699.315 875.85 698.624 875.85V875.85ZM649.73 964.315C646.651 964.301 643.702 963.07 641.525 960.89C639.348 958.711 638.119 955.759 638.104 952.677V934.718C638.108 931.634 639.334 928.677 641.514 926.498C643.694 924.318 646.649 923.093 649.73 923.093C652.811 923.093 655.766 924.318 657.945 926.498C660.125 928.677 661.352 931.634 661.355 934.718V952.677C661.341 955.759 660.111 958.711 657.934 960.89C655.757 963.07 652.809 964.301 649.73 964.315V964.315Z" fill="#21364E"/>
<path d="M594.59 1031.83V1046.85C594.591 1047.63 594.901 1048.38 595.451 1048.93C596.001 1049.48 596.746 1049.79 597.523 1049.79H701.287C702.064 1049.79 702.808 1049.47 703.357 1048.92C703.907 1048.38 704.217 1047.63 704.221 1046.85V1031.83H594.59Z" fill="#536375"/>
<path d="M852.702 943.033C856.372 943.033 859.346 940.055 859.346 936.382C859.346 932.708 856.372 929.73 852.702 929.73C849.033 929.73 846.059 932.708 846.059 936.382C846.059 940.055 849.033 943.033 852.702 943.033Z" fill="#21364E"/>
<path d="M493.935 926.734C493.629 926.734 493.327 926.794 493.045 926.911C492.763 927.028 492.506 927.2 492.29 927.416C492.074 927.632 491.903 927.889 491.786 928.171C491.67 928.453 491.609 928.756 491.609 929.062V941.039C491.611 941.655 491.857 942.245 492.292 942.681C492.728 943.116 493.319 943.36 493.935 943.36C494.55 943.36 495.141 943.116 495.576 942.681C496.012 942.245 496.258 941.655 496.26 941.039V929.062C496.26 928.756 496.2 928.453 496.083 928.171C495.966 927.889 495.795 927.632 495.579 927.416C495.363 927.2 495.106 927.028 494.824 926.911C494.542 926.794 494.24 926.734 493.935 926.734V926.734Z" fill="#21364E"/>
<path d="M506.561 926.734C506.256 926.734 505.954 926.794 505.672 926.911C505.389 927.028 505.133 927.2 504.917 927.416C504.701 927.632 504.53 927.889 504.413 928.171C504.296 928.453 504.236 928.756 504.236 929.062V941.039C504.236 941.656 504.481 942.248 504.917 942.684C505.353 943.121 505.945 943.366 506.561 943.366C507.178 943.366 507.769 943.121 508.206 942.684C508.642 942.248 508.887 941.656 508.887 941.039V929.062C508.887 928.756 508.826 928.453 508.71 928.171C508.593 927.889 508.421 927.632 508.206 927.416C507.99 927.2 507.733 927.028 507.451 926.911C507.169 926.794 506.867 926.734 506.561 926.734V926.734Z" fill="#21364E"/>
<path d="M519.186 926.734C518.881 926.734 518.579 926.794 518.297 926.911C518.015 927.028 517.758 927.2 517.542 927.416C517.326 927.632 517.155 927.889 517.038 928.171C516.921 928.453 516.861 928.756 516.861 929.062V941.039C516.863 941.655 517.109 942.245 517.544 942.681C517.98 943.116 518.571 943.36 519.186 943.36C519.802 943.36 520.393 943.116 520.828 942.681C521.264 942.245 521.51 941.655 521.512 941.039V929.062C521.512 928.756 521.451 928.453 521.335 928.171C521.218 927.889 521.047 927.632 520.831 927.416C520.615 927.2 520.358 927.028 520.076 926.911C519.794 926.794 519.492 926.734 519.186 926.734Z" fill="#21364E"/>
<path d="M531.813 926.734C531.508 926.734 531.206 926.794 530.924 926.911C530.641 927.028 530.385 927.2 530.169 927.416C529.953 927.632 529.782 927.889 529.665 928.171C529.548 928.453 529.488 928.756 529.488 929.062V941.039C529.49 941.655 529.736 942.245 530.171 942.681C530.607 943.116 531.198 943.36 531.813 943.36C532.429 943.36 533.019 943.116 533.455 942.681C533.891 942.245 534.137 941.655 534.138 941.039V929.062C534.138 928.756 534.078 928.453 533.961 928.171C533.845 927.889 533.673 927.632 533.457 927.416C533.242 927.2 532.985 927.028 532.703 926.911C532.421 926.794 532.119 926.734 531.813 926.734V926.734Z" fill="#21364E"/>
<path d="M541.887 1038.38C561.298 1038.38 577.034 1022.63 577.034 1003.2C577.034 983.763 561.298 968.01 541.887 968.01C522.476 968.01 506.74 983.763 506.74 1003.2C506.74 1022.63 522.476 1038.38 541.887 1038.38Z" fill="#FFB8B8"/>
<path d="M787.424 1045.15C806.835 1045.15 822.571 1029.39 822.571 1009.96C822.571 990.529 806.835 974.776 787.424 974.776C768.013 974.776 752.277 990.529 752.277 1009.96C752.277 1029.39 768.013 1045.15 787.424 1045.15Z" fill="#FFB8B8"/>
<path d="M1150.2 585.26C1146.73 579.509 1142.61 573.369 1136.17 571.491C1128.7 569.317 1121.04 573.636 1114.53 577.899C1095.08 590.648 1076.35 604.464 1058.43 619.283L1058.45 619.506C1072.4 618.543 1083.99 655.692 1097.94 654.729C1108.02 654.033 1120.83 615.128 1129.74 610.353C1133.12 608.541 1136.41 606.12 1140.25 605.951C1145.01 605.742 1149.16 609.07 1152.42 612.548C1171.71 633.117 1177.3 664.572 1198.94 682.644C1185.29 648.943 1169 616.38 1150.2 585.26V585.26Z" fill="#536375"/>
<path d="M1187.34 635.221C1197.52 653.625 1208.32 671.665 1219.73 689.339V689.352C1219.66 689.975 1219.57 690.597 1219.47 691.22C1218.09 689.109 1216.73 686.989 1215.38 684.859C1205.13 668.769 1195.39 652.371 1186.16 635.667C1181.78 627.723 1177.51 619.716 1173.35 611.646C1170.13 605.394 1166.98 599.106 1163.9 592.781C1163.02 590.968 1162.17 589.154 1161.32 587.327C1159.32 583.051 1157.34 578.748 1155.24 574.525C1152.83 569.708 1149.9 564.673 1145.48 561.439C1143.46 559.905 1141.06 558.975 1138.54 558.759C1134.99 558.781 1131.52 559.778 1128.5 561.642C1105.63 573.675 1084.29 588.409 1064.92 605.529C1045.53 622.581 1028.2 641.843 1013.28 662.923C1012.82 663.572 1011.74 662.95 1012.2 662.286C1014.03 659.715 1015.86 657.185 1017.76 654.667C1041.21 623.442 1069.97 596.59 1102.72 575.337C1108.22 571.764 1113.83 568.359 1119.55 565.12C1122.43 563.482 1125.32 561.872 1128.27 560.356C1131.09 558.701 1134.25 557.719 1137.51 557.487C1148.73 557.311 1154.55 570.032 1158.53 578.585C1159.78 581.278 1161.04 583.967 1162.33 586.651C1167.18 596.8 1172.23 606.869 1177.46 616.856C1180.68 623.014 1183.97 629.135 1187.34 635.221Z" fill="#536375"/>
<path d="M1063.82 599.246C1063.17 598.519 1062.52 597.792 1061.86 597.064C1056.69 591.337 1051.14 585.677 1044.04 582.393C1040.65 580.778 1036.95 579.92 1033.2 579.879C1029.33 579.985 1025.51 580.818 1021.95 582.335C1020.26 583.013 1018.6 583.781 1016.97 584.6C1015.1 585.539 1013.27 586.541 1011.45 587.551C1008.03 589.446 1004.65 591.424 1001.32 593.486C994.692 597.588 988.27 602.003 982.055 606.731C978.833 609.183 975.678 611.716 972.589 614.329C969.717 616.756 966.902 619.248 964.145 621.805C963.556 622.35 962.676 621.469 963.265 620.924C963.992 620.247 964.727 619.574 965.461 618.909C967.537 617.03 969.646 615.188 971.788 613.381C975.695 610.081 979.702 606.909 983.811 603.864C990.2 599.126 996.809 594.709 1003.64 590.614C1007.05 588.569 1010.51 586.61 1014.02 584.737C1015.08 584.172 1016.15 583.619 1017.23 583.096C1019.69 581.854 1022.24 580.813 1024.87 579.983C1028.59 578.778 1032.52 578.391 1036.41 578.848C1040.15 579.394 1043.77 580.645 1047.05 582.535C1054.03 586.437 1059.43 592.472 1064.7 598.361C1065.23 598.96 1064.35 599.845 1063.82 599.246Z" fill="#536375"/>
<path d="M1012.78 626.801C1011.01 626.889 1009.26 626.387 1007.8 625.373C1003.94 622.445 1004.04 615.414 1008.11 603.877C1009.21 600.751 1010.95 597.886 1013.21 595.457C1015.46 593.029 1018.19 591.09 1021.23 589.759C1024.07 588.487 1027.15 587.82 1030.26 587.802C1033.38 587.783 1036.46 588.413 1039.32 589.652C1039.82 589.868 1040.31 590.101 1040.79 590.351C1044.1 592.205 1047.2 594.408 1050.04 596.921C1052.46 599.019 1055.04 600.923 1057.75 602.618L1058.65 603.149L1057.8 603.754C1035.9 619.188 1021.05 626.801 1012.78 626.801Z" fill="#536375"/>
<path d="M1096.99 534.955C1089.78 534.954 1082.81 532.451 1077.24 527.874C1071.68 523.297 1067.88 516.929 1066.48 509.857C1060.46 511.078 1054.94 514.056 1050.61 518.417C1046.27 522.778 1043.33 528.325 1042.14 534.359C1040.96 540.393 1041.59 546.644 1043.95 552.321C1046.31 557.999 1050.29 562.85 1055.4 566.262C1060.51 569.674 1066.52 571.493 1072.66 571.491C1078.81 571.489 1084.81 569.666 1089.92 566.251C1095.03 562.836 1099.01 557.982 1101.37 552.303C1103.72 546.623 1104.35 540.373 1103.16 534.339C1101.12 534.749 1099.06 534.955 1096.99 534.955V534.955Z" fill="#536375"/>
<path opacity="0.74" d="M264.714 585.027C290.338 585.027 311.111 564.231 311.111 538.578C311.111 512.925 290.338 492.13 264.714 492.13C239.089 492.13 218.316 512.925 218.316 538.578C218.316 564.231 239.089 585.027 264.714 585.027Z" fill="#536375"/>
<path opacity="0.74" d="M311.112 585.027C336.737 585.027 357.509 564.231 357.509 538.578C357.509 512.925 336.737 492.13 311.112 492.13C285.488 492.13 264.715 512.925 264.715 538.578C264.715 564.231 285.488 585.027 311.112 585.027Z" fill="#11EE77"/>
<path opacity="0.74" d="M288.305 548.008C313.93 548.008 334.703 527.212 334.703 501.559C334.703 475.906 313.93 455.11 288.305 455.11C262.681 455.11 241.908 475.906 241.908 501.559C241.908 527.212 262.681 548.008 288.305 548.008Z" fill="#99BBFF"/>
<path d="M409.629 488.249L290.453 525.731L291.263 528.313L410.44 490.831L409.629 488.249Z" fill="#536375"/>
<path d="M410.388 494.52C413.374 494.52 415.795 492.096 415.795 489.107C415.795 486.117 413.374 483.694 410.388 483.694C407.401 483.694 404.98 486.117 404.98 489.107C404.98 492.096 407.401 494.52 410.388 494.52Z" fill="#536375"/>
<path d="M1184.07 732.685C1191.99 738.274 1199.6 743.971 1208.31 748.275C1208.14 748.938 1207.97 749.615 1207.81 750.278C1206.74 749.777 1205.7 749.249 1204.66 748.708C1195.83 744.08 1188.23 737.787 1179.95 732.32C1175.84 729.477 1171.35 727.227 1166.62 725.634C1161.68 724.15 1156.53 723.545 1151.38 723.848C1129.93 724.903 1111.55 737.719 1091.61 744.174C1081.85 747.341 1071.46 749.033 1061.29 747.043C1051.11 745.054 1042.06 739.641 1033.07 734.742C1024.21 729.897 1014.54 725.025 1004.19 725.025C995.75 725.039 986.882 728.422 982.367 735.892C982.227 736.115 982.005 736.275 981.749 736.337C981.494 736.399 981.223 736.359 980.997 736.226C980.77 736.092 980.604 735.875 980.534 735.62C980.464 735.366 980.496 735.095 980.623 734.864C981.633 733.161 982.875 731.608 984.314 730.249C990.208 724.66 998.873 722.454 1006.83 723.104C1017.14 723.943 1026.53 728.815 1035.44 733.714C1044.89 738.91 1054.57 744.499 1065.49 745.636C1076.28 746.773 1086.96 743.944 1096.96 740.142C1116.33 732.766 1135.45 720.478 1156.99 721.845C1167.16 722.495 1175.86 726.906 1184.07 732.685Z" fill="#536375"/>
<path d="M336.166 341.298V344.045C335.258 343.866 334.335 343.775 333.409 343.775H319.269V374.17C319.266 378.67 317.48 382.985 314.301 386.167C311.123 389.349 306.812 391.137 302.317 391.14H281.419V395.822C281.419 397.699 281.791 399.558 282.513 401.29H279.621C279.016 399.531 278.71 397.683 278.715 395.822V391.14H267.225V388.433H278.715V358.038C278.718 353.538 280.504 349.223 283.683 346.041C286.861 342.859 291.171 341.071 295.666 341.068H316.565V336.332H319.269V341.068H333.409C334.333 341.069 335.255 341.146 336.166 341.298V341.298Z" fill="#11EE77"/>
<path d="M302.317 319.415H264.575C260.08 319.418 255.769 321.207 252.591 324.389C249.412 327.571 247.626 331.886 247.623 336.386V374.17C247.626 378.67 249.412 382.985 252.591 386.167C255.769 389.349 260.08 391.137 264.575 391.14H302.317C306.812 391.137 311.122 389.349 314.301 386.167C317.479 382.985 319.266 378.67 319.268 374.17V336.332C319.252 331.841 317.459 327.539 314.282 324.369C311.105 321.198 306.803 319.417 302.317 319.415V319.415ZM316.565 374.17C316.56 377.951 315.057 381.576 312.386 384.25C309.715 386.924 306.094 388.428 302.317 388.433H264.575C260.797 388.428 257.176 386.924 254.505 384.25C251.834 381.576 250.332 377.951 250.327 374.17V336.386C250.332 332.604 251.834 328.979 254.505 326.305C257.176 323.631 260.797 322.127 264.575 322.122H302.317C306.085 322.126 309.698 323.623 312.368 326.285C315.037 328.948 316.546 332.559 316.565 336.331V374.17Z" fill="#536375"/>
<path d="M278.715 388.433V391.14H281.419V388.433H278.715ZM278.715 388.433V391.14H281.419V388.433H278.715ZM336.166 341.298C335.255 341.146 334.333 341.069 333.409 341.068H295.666C291.171 341.07 286.861 342.859 283.683 346.041C280.504 349.223 278.717 353.538 278.715 358.038V395.822C278.71 397.683 279.016 399.53 279.621 401.29C280.762 404.643 282.922 407.556 285.8 409.619C288.677 411.681 292.127 412.791 295.666 412.793H333.409C337.904 412.79 342.214 411.001 345.392 407.819C348.571 404.637 350.358 400.322 350.36 395.822V358.038C350.359 354.017 348.932 350.126 346.332 347.06C343.733 343.994 340.13 341.952 336.166 341.298V341.298ZM347.657 395.822C347.652 399.604 346.149 403.229 343.478 405.903C340.807 408.576 337.186 410.081 333.409 410.086H295.666C291.889 410.081 288.268 408.576 285.598 405.902C282.927 403.228 281.424 399.604 281.419 395.822V358.038C281.424 354.257 282.926 350.632 285.597 347.958C288.268 345.284 291.889 343.78 295.666 343.774H333.409C337.187 343.776 340.81 345.279 343.482 347.954C346.154 350.628 347.655 354.256 347.657 358.038V395.822ZM278.715 388.433V391.14H281.419V388.433H278.715Z" fill="#536375"/>
<path d="M252.017 741.224H91.6942C90.5781 741.225 89.5078 741.668 88.7174 742.457C87.927 743.245 87.4808 744.316 87.4766 745.433V754.947C92.7659 775.228 99.1697 795.201 106.659 814.776H252.018C252.57 814.776 253.117 814.668 253.627 814.457C254.137 814.245 254.601 813.935 254.991 813.544C255.382 813.153 255.692 812.689 255.903 812.178C256.114 811.667 256.222 811.12 256.222 810.567V745.433C256.22 744.317 255.777 743.247 254.989 742.458C254.201 741.669 253.132 741.225 252.017 741.224V741.224Z" fill="#11EE77"/>
<path d="M236.742 835.901H115.215C116.661 839.298 118.135 842.668 119.662 846.024H236.742C243.338 846.118 243.271 835.806 236.742 835.901Z" fill="#EDEDED"/>
<path d="M236.742 859.096H125.76C127.382 862.493 129.049 865.867 130.761 869.219H236.742C243.339 869.314 243.272 859.015 236.742 859.096Z" fill="#EDEDED"/>
<path d="M236.742 882.305H137.588C139.399 885.702 141.265 889.072 143.157 892.428H236.742C243.339 892.523 243.271 882.211 236.742 882.305Z" fill="#EDEDED"/>
<path d="M1067.9 258.483H1067.13C1069.53 258.485 1071.89 259.045 1074.03 260.118H1070.53C1066.75 260.122 1063.13 261.626 1060.46 264.3C1057.79 266.974 1056.29 270.6 1056.28 274.381V312.166C1056.29 315.948 1057.79 319.573 1060.46 322.247C1063.13 324.921 1066.75 326.425 1070.53 326.429H1072.76C1070.97 327.135 1069.06 327.498 1067.13 327.501H1067.9C1072.03 327.496 1076 325.849 1078.92 322.922C1081.85 319.994 1083.49 316.025 1083.5 311.884V274.099C1083.49 269.959 1081.85 265.989 1078.92 263.062C1076 260.134 1072.03 258.487 1067.9 258.483V258.483Z" fill="#536375"/>
<path opacity="0.21" d="M1067.9 258.483H1067.13C1069.53 258.485 1071.89 259.045 1074.03 260.118H1070.53C1066.75 260.122 1063.13 261.626 1060.46 264.3C1057.79 266.974 1056.29 270.6 1056.28 274.381V312.166C1056.29 315.948 1057.79 319.573 1060.46 322.247C1063.13 324.921 1066.75 326.425 1070.53 326.429H1072.76C1070.97 327.135 1069.06 327.498 1067.13 327.501H1067.9C1072.03 327.496 1076 325.849 1078.92 322.922C1081.85 319.994 1083.49 316.025 1083.5 311.884V274.099C1083.49 269.959 1081.85 265.989 1078.92 263.062C1076 260.134 1072.03 258.487 1067.9 258.483V258.483Z" fill="#011E41"/>
<path d="M967.864 258.483H967.094C969.492 258.485 971.856 259.045 974.001 260.118H970.495C966.718 260.122 963.097 261.626 960.426 264.3C957.755 266.974 956.252 270.6 956.248 274.381V312.166C956.252 315.948 957.755 319.573 960.426 322.247C963.097 324.921 966.718 326.425 970.495 326.429H972.73C970.934 327.135 969.023 327.498 967.094 327.501H967.864C972 327.496 975.965 325.849 978.889 322.922C981.814 319.994 983.459 316.025 983.464 311.884V274.099C983.459 269.959 981.814 265.989 978.889 263.062C975.965 260.134 972 258.487 967.864 258.483V258.483Z" fill="#11EE77"/>
<path opacity="0.21" d="M967.864 258.483H967.094C969.492 258.485 971.856 259.045 974.001 260.118H970.495C966.718 260.122 963.097 261.626 960.426 264.3C957.755 266.974 956.252 270.6 956.248 274.381V312.166C956.252 315.948 957.755 319.573 960.426 322.247C963.097 324.921 966.718 326.425 970.495 326.429H972.73C970.934 327.135 969.023 327.498 967.094 327.501H967.864C972 327.496 975.965 325.849 978.889 322.922C981.814 319.994 983.459 316.025 983.464 311.884V274.099C983.459 269.959 981.814 265.989 978.889 263.062C975.965 260.134 972 258.487 967.864 258.483V258.483Z" fill="#011E41"/>
<path d="M970.646 326.547C966.869 326.543 963.248 325.039 960.577 322.365C957.906 319.691 956.403 316.066 956.399 312.284V274.499C956.403 270.717 957.906 267.092 960.577 264.418C963.248 261.744 966.869 260.24 970.646 260.236H974.152C972.007 259.162 969.643 258.603 967.245 258.6H929.501C925.366 258.605 921.401 260.252 918.477 263.18C915.552 266.107 913.907 270.076 913.902 274.217V312.002C913.907 316.142 915.552 320.112 918.477 323.039C921.401 325.967 925.366 327.614 929.501 327.618H967.245C969.174 327.616 971.085 327.252 972.881 326.547L970.646 326.547Z" fill="#11EE77"/>
<path d="M1070.68 326.547C1066.9 326.543 1063.28 325.039 1060.61 322.365C1057.94 319.691 1056.44 316.066 1056.43 312.284V274.499C1056.44 270.717 1057.94 267.092 1060.61 264.418C1063.28 261.744 1066.9 260.24 1070.68 260.236H1074.18C1072.04 259.162 1069.68 258.603 1067.28 258.6H1029.53C1025.4 258.605 1021.43 260.252 1018.51 263.18C1015.59 266.107 1013.94 270.076 1013.94 274.217V312.002C1013.94 316.142 1015.59 320.112 1018.51 323.039C1021.43 325.967 1025.4 327.614 1029.53 327.618H1067.28C1069.21 327.616 1071.12 327.252 1072.91 326.547L1070.68 326.547Z" fill="#536375"/>
<path d="M1115.25 268.003C1129.1 287.081 1141.77 306.989 1153.19 327.616H1129.56C1125.43 327.61 1121.46 325.963 1118.54 323.035C1115.62 320.108 1113.97 316.139 1113.96 311.999V274.215C1113.96 272.078 1114.4 269.964 1115.25 268.003V268.003Z" fill="#99BBFF"/>
<path d="M1067.87 347.442L1054.65 327.616L1044.98 313.122C1044.42 312.276 1043.63 311.607 1042.7 311.192C1041.77 310.778 1040.74 310.635 1039.74 310.781C1038.73 310.927 1037.79 311.355 1037.02 312.016C1036.24 312.678 1035.67 313.544 1035.37 314.516L1031.3 327.616L1023.11 353.938C1022.79 354.986 1022.79 356.109 1023.12 357.156C1023.45 358.202 1024.09 359.123 1024.96 359.795C1025.83 360.467 1026.88 360.858 1027.97 360.917C1029.07 360.975 1030.15 360.698 1031.09 360.122L1033.99 358.322C1034.58 357.961 1035.25 357.756 1035.93 357.725C1036.62 357.695 1037.3 357.84 1037.92 358.148C1038.53 358.456 1039.06 358.915 1039.44 359.483C1039.83 360.052 1040.07 360.709 1040.13 361.394L1042.79 390.49C1042.92 391.827 1043.54 393.069 1044.53 393.974C1045.51 394.88 1046.81 395.384 1048.15 395.389C1048.31 395.389 1048.47 395.376 1048.65 395.362L1052.73 394.997C1053.43 394.933 1054.12 394.73 1054.74 394.401C1055.37 394.072 1055.92 393.622 1056.38 393.078C1056.83 392.533 1057.17 391.905 1057.38 391.229C1057.59 390.553 1057.66 389.842 1057.6 389.137L1054.85 359.094C1054.79 358.388 1054.91 357.678 1055.2 357.034C1055.5 356.39 1055.96 355.836 1056.54 355.427C1057.12 355.019 1057.79 354.769 1058.5 354.705C1059.2 354.641 1059.91 354.764 1060.56 355.061L1061.15 355.332C1062.22 355.823 1063.41 355.952 1064.56 355.699C1065.7 355.447 1066.73 354.827 1067.49 353.934C1068.26 353.04 1068.7 351.923 1068.77 350.751C1068.84 349.579 1068.52 348.417 1067.87 347.442V347.442Z" fill="#CED3DC"/>
</g>
<defs>
<clipPath id="clip0_246_1441">
<rect width="1220" height="1187" fill="white"/>
</clipPath>
</defs>
</svg>
