<svg width="1232" height="1158" viewBox="0 0 1232 1158" fill="none" xmlns="http://www.w3.org/2000/svg">
<g clip-path="url(#clip0_246_1599)">
<path d="M894.438 657.118V977.008L948.042 1064.21L952.122 1070.84H1163.63L1167.91 657.118H894.438Z" fill="#CED3DC"/>
<path opacity="0.1" d="M894.438 657.118V977.008L948.042 1064.21L951.332 657.118H894.438Z" fill="#011E41"/>
<path d="M383.822 648.587V968.478L330.217 1055.68L326.137 1062.31H114.627L110.354 648.587H383.822Z" fill="#CED3DC"/>
<path opacity="0.1" d="M383.822 648.587V968.478L330.217 1055.68L326.928 648.587H383.822Z" fill="#011E41"/>
<path d="M1232 642.19V661.383H82.5801V633.659L189.403 578.211H1138L1232 642.19Z" fill="#CED3DC"/>
<path opacity="0.1" d="M1232 642.19V661.383H82.5801V633.659L1232 642.19Z" fill="#011E41"/>
<path d="M247.088 738.156H195.812L174.447 723.228H270.589L247.088 738.156Z" fill="#536375"/>
<path d="M247.088 800.002H195.812L174.447 785.074H270.589L247.088 800.002Z" fill="#536375"/>
<path d="M247.088 887.44H195.812L174.447 872.51H270.589L247.088 887.44Z" fill="#536375"/>
<path d="M247.088 974.876H195.812L174.447 959.948H270.589L247.088 974.876Z" fill="#536375"/>
<path d="M1031.17 746.686H1082.45L1103.81 731.758H1007.67L1031.17 746.686Z" fill="#536375"/>
<path d="M1031.17 808.532H1082.45L1103.81 793.604H1007.67L1031.17 808.532Z" fill="#536375"/>
<path d="M1031.17 895.97H1082.45L1103.81 881.042H1007.67L1031.17 895.97Z" fill="#536375"/>
<path d="M1031.17 983.406H1082.45L1103.81 968.478H1007.67L1031.17 983.406Z" fill="#536375"/>
<path d="M1066.09 208.29H634.423C632.279 208.29 630.156 208.711 628.175 209.53C626.194 210.349 624.395 211.549 622.879 213.063C621.363 214.576 620.16 216.372 619.34 218.349C618.519 220.327 618.097 222.446 618.098 224.586V514.842C618.097 516.982 618.519 519.101 619.34 521.078C620.16 523.055 621.363 524.852 622.879 526.365C624.395 527.878 626.194 529.078 628.175 529.897C630.156 530.716 632.279 531.137 634.423 531.137H798.287L792.148 570.262C792.148 570.262 757.064 588.867 781.733 589.414C806.401 589.961 922.617 589.414 922.617 589.414C922.617 589.414 945.093 589.414 909.461 569.715L903.686 531.137H1066.09C1068.23 531.137 1070.36 530.716 1072.34 529.897C1074.32 529.078 1076.12 527.878 1077.63 526.365C1079.15 524.852 1080.35 523.055 1081.17 521.078C1081.99 519.101 1082.42 516.982 1082.41 514.842V224.586C1082.42 222.446 1081.99 220.327 1081.17 218.349C1080.35 216.372 1079.15 214.576 1077.63 213.063C1076.12 211.549 1074.32 210.349 1072.34 209.53C1070.36 208.711 1068.23 208.29 1066.09 208.29V208.29Z" fill="#536375"/>
<path d="M1066.79 225.527H633.721V467.389H1066.79V225.527Z" fill="#FAFAFA"/>
<path d="M850.257 220.602C851.77 220.602 852.998 219.377 852.998 217.866C852.998 216.355 851.77 215.13 850.257 215.13C848.743 215.13 847.516 216.355 847.516 217.866C847.516 219.377 848.743 220.602 850.257 220.602Z" fill="#FAFAFA"/>
<path d="M850.255 519.372C856.008 519.372 860.671 514.718 860.671 508.976C860.671 503.234 856.008 498.579 850.255 498.579C844.503 498.579 839.84 503.234 839.84 508.976C839.84 514.718 844.503 519.372 850.255 519.372Z" fill="#FAFAFA"/>
<path d="M834.026 618.962V624.435H539.1V620.057L539.505 618.962L546.774 599.264H827.996L834.026 618.962Z" fill="#536375"/>
<path d="M947.521 613.605C946.984 615.898 944.956 618.317 940.373 620.604C923.927 628.812 890.488 618.415 890.488 618.415C890.488 618.415 864.723 614.038 864.723 602.547C865.446 602.052 866.2 601.604 866.981 601.206C873.895 597.554 896.821 588.545 937.47 601.587C940.465 602.526 943.139 604.276 945.197 606.642C946.108 607.536 946.794 608.634 947.198 609.844C947.602 611.055 947.713 612.344 947.521 613.605Z" fill="#536375"/>
<path opacity="0.1" d="M947.523 613.605C927.393 621.304 909.451 621.879 891.037 609.113C884.074 603.974 875.642 601.203 866.982 601.206C873.897 597.554 896.822 588.545 937.471 601.587C940.466 602.526 943.141 604.276 945.198 606.642C946.109 607.536 946.795 608.634 947.199 609.844C947.603 611.055 947.714 612.344 947.523 613.605Z" fill="#011E41"/>
<path d="M922.283 609.113C926.219 609.113 929.409 608.133 929.409 606.924C929.409 605.715 926.219 604.735 922.283 604.735C918.347 604.735 915.156 605.715 915.156 606.924C915.156 608.133 918.347 609.113 922.283 609.113Z" fill="#FAFAFA"/>
<path opacity="0.1" d="M834.026 618.962V624.435H539.1V620.057L539.505 618.962H834.026Z" fill="#011E41"/>
<path d="M163.983 0.000297816C160.989 -0.24501 157.992 0.423325 155.388 1.91674C152.831 3.6646 151.22 6.72665 149.575 9.57608C143.285 20.6007 134.771 30.2012 124.57 37.7697C117.14 43.2028 107.694 49.9771 108.965 59.9943C109.636 63.3024 110.86 66.474 112.587 69.3759C119.441 83.1869 138.145 93.8598 136.305 109.619C143.115 98.2397 134.006 92.6128 140.816 81.2333C144.059 75.8141 149.693 69.6968 154.589 73.1C156.228 74.2396 157.305 76.2834 159.012 77.2832C163.085 79.669 167.418 75.1079 171.023 71.8773C183.456 60.7368 201.136 63.6554 216.607 67.1265C223.911 68.7651 231.933 70.9151 236.251 77.8831C241.928 87.0447 230.858 96.9393 228.061 107.297C227.832 108.18 227.821 109.105 228.029 109.992C228.237 110.88 228.657 111.704 229.253 112.394C229.85 113.085 230.605 113.621 231.454 113.956C232.303 114.292 233.221 114.417 234.129 114.321C238.771 113.864 244.27 113.49 244.545 111.456C250.385 111.664 257.542 111.004 260.044 104.933C260.809 102.531 261.213 100.029 261.244 97.5093C262.162 87.3121 266.498 78.009 269.371 68.3036C272.243 58.5982 273.492 47.2241 268.645 38.6192C266.915 35.7562 264.775 33.1607 262.294 30.9147C234.786 4.34289 198.62 -0.0391447 163.983 0.000297816Z" fill="#21364E"/>
<path d="M142.288 129.524C142.288 129.524 148.27 179.287 126.335 183.268C104.4 187.249 146.276 254.927 146.276 254.927L245.983 266.87L222.053 187.249C222.053 187.249 206.1 181.278 216.071 141.467C226.041 101.657 142.288 129.524 142.288 129.524Z" fill="#FFB8B8"/>
<path d="M81.4668 984.452L89.4441 1093.93H131.319L119.356 984.452H81.4668Z" fill="#FFB8B8"/>
<path d="M388.562 777.438L394.544 869.001L440.411 849.097L422.462 773.458L388.562 777.438Z" fill="#FFB8B8"/>
<path d="M51.5547 566.443C51.5547 566.443 53.5488 681.893 65.5136 719.713C77.4785 757.533 75.4843 759.524 73.4902 765.495C71.496 771.467 69.5019 767.486 69.5019 777.438C69.5019 787.391 65.5136 944.642 69.5019 958.575C73.4902 972.509 57.5371 996.395 69.5019 998.386C81.4667 1000.38 137.302 998.386 139.296 986.443C141.291 974.5 123.343 970.519 131.32 962.557C139.296 954.594 151.261 791.372 151.261 791.372L179.179 677.912L231.026 618.197H340.703L374.603 749.571C374.603 749.571 360.645 787.391 370.615 787.391C380.586 787.391 440.41 799.334 440.41 755.543C440.41 711.751 420.468 582.367 416.48 578.386C412.492 574.405 418.474 560.472 412.492 554.5C406.51 548.529 336.715 506.728 310.791 498.766C284.868 490.804 248.501 481.327 248.501 481.327L51.5547 566.443Z" fill="#21364E"/>
<path d="M440.411 833.173C440.411 833.173 410.499 823.22 396.54 853.078C382.581 882.936 388.563 890.898 388.563 890.898C388.563 890.898 434.428 906.822 442.405 898.86C445.875 895.396 456.895 894.192 468.238 893.938C485.515 893.551 490.111 869.153 473.795 863.472C473.308 863.303 472.815 863.155 472.317 863.03C456.364 859.049 440.411 833.173 440.411 833.173Z" fill="#21364E"/>
<path d="M187.156 162.368C220.196 162.368 246.98 135.632 246.98 102.652C246.98 69.6723 220.196 42.9368 187.156 42.9368C154.116 42.9368 127.332 69.6723 127.332 102.652C127.332 135.632 154.116 162.368 187.156 162.368Z" fill="#FFB8B8"/>
<path d="M109.384 208.15C109.384 208.15 207.097 228.055 231.026 196.207C254.956 164.358 264.926 285.78 264.926 285.78L276.891 413.173L258.944 482.841C258.944 482.841 165.22 558.481 135.308 564.453C105.396 570.424 59.5312 574.405 59.5312 574.405C59.5312 574.405 73.4903 353.458 73.4903 349.477C73.4903 345.495 109.384 208.15 109.384 208.15Z" fill="#11EE77"/>
<path d="M139.101 170.818C139.101 170.818 117.361 158.387 111.379 170.33C105.396 182.273 49.5608 212.131 43.5784 212.131C37.596 212.131 55.5432 377.344 47.5666 397.249C39.5901 417.154 1.70171 562.462 23.6371 574.405C45.5725 586.348 29.6195 562.462 51.5549 592.32C73.4903 622.178 181.173 622.178 187.156 610.235C193.138 598.292 139.297 508.718 149.267 425.116C159.238 341.515 175.191 226.065 161.232 210.14C147.273 194.216 139.101 170.818 139.101 170.818Z" fill="#21364E"/>
<path d="M211.086 184.264L213.864 174.722C213.864 174.722 296.833 202.178 300.822 220.093C304.81 238.008 302.816 363.41 288.857 373.363C274.898 383.315 254.957 399.24 268.916 423.126C282.875 447.012 298.828 472.889 310.792 474.879C322.757 476.87 344.693 490.803 338.71 504.737C332.728 518.67 260.939 492.794 260.939 492.794C260.939 492.794 213.08 456.964 215.074 401.23C217.068 345.495 211.086 184.264 211.086 184.264Z" fill="#21364E"/>
<path d="M280.879 419.145L233.02 508.718C233.02 508.718 163.226 580.377 203.108 588.339C242.991 596.301 264.926 522.652 264.926 522.652L316.774 449.003L280.879 419.145Z" fill="#FFB8B8"/>
<path d="M166.898 15.6247C164.487 15.4464 162.071 15.914 159.902 16.9792C157.94 18.4094 156.323 20.2589 155.169 22.3928C149.851 30.3791 142.917 37.1667 134.815 42.3198C128.766 46.1599 121.077 50.9479 122.112 58.028C122.674 60.4019 123.673 62.6505 125.06 64.6589C130.659 74.5191 132.888 85.9313 131.409 97.1686L148.04 73.0397C150.68 69.2094 155.266 64.8857 159.251 67.2912C160.586 68.0966 161.462 69.5411 162.852 70.2478C166.167 71.9341 169.695 68.7104 172.63 66.4269C182.75 58.5529 197.143 60.6157 209.737 63.069C215.682 64.2273 222.213 65.7468 225.728 70.6718C231.569 78.8562 225.47 90.682 228.879 100.137C229.833 99.4701 230.643 98.6188 231.262 97.6335C231.88 96.6482 232.294 95.549 232.479 94.401C237.234 94.5477 243.059 94.0811 245.096 89.7904C245.716 88.1089 246.046 86.3348 246.073 84.5434C246.821 77.336 250.35 70.7607 252.688 63.901C255.027 57.0413 256.043 49.0021 252.097 42.9202C250.654 40.8595 248.912 39.0243 246.928 37.4748C224.535 18.694 195.095 15.5968 166.898 15.6247Z" fill="#21364E"/>
<path d="M280.881 212.131L299.46 217.054C299.46 217.054 342.699 327.581 332.728 403.221C322.757 478.86 316.775 462.936 316.775 462.936C316.775 462.936 300.822 427.107 264.928 435.069L280.881 212.131Z" fill="#21364E"/>
<path d="M84.2297 1079.46C79.4209 1085.98 80.3851 1095.31 76.1255 1102.2C72.4331 1108.18 65.4746 1111.31 60.8562 1116.6C59.3825 1118.36 58.0688 1120.25 56.9305 1122.24C52.6463 1129.4 49.164 1138.58 53.3834 1145.79C56.7776 1151.58 63.9121 1153.84 70.4553 1155.39C78.7255 1157.34 87.3183 1158.9 95.6839 1157.41C104.05 1155.92 112.225 1150.8 115.208 1142.86C115.795 1140.86 116.491 1138.9 117.296 1136.98C121.83 1128.07 136.052 1127.97 140.693 1119.12C143.94 1112.92 140.955 1105.43 137.971 1099.1L128.857 1079.77C125.833 1073.36 113.572 1077.05 107.18 1075.51C98.8439 1073.51 90.2268 1071.3 84.2297 1079.46Z" fill="#21364E"/>
<path d="M17.6543 458.955L101.408 588.339C101.408 588.339 153.255 654.026 169.208 624.168C185.161 594.311 113.372 544.548 113.372 544.548L59.531 445.022L17.6543 458.955Z" fill="#FFB8B8"/>
<path d="M59.5318 216.112L43.5788 212.131C43.5788 212.131 11.6728 222.083 3.69628 263.884C-4.28022 305.685 1.70214 472.889 11.6728 474.879C21.6434 476.87 60.9177 445.766 67.2042 452.36C73.4908 458.955 53.5494 425.116 59.5318 407.202C65.5141 389.287 59.5318 216.112 59.5318 216.112Z" fill="#21364E"/>
<path d="M809.265 304.962H757.725V317.348H809.265V304.962Z" fill="#11EE77"/>
<path d="M987.748 304.962H969.613V317.348H987.748V304.962Z" fill="#11EE77"/>
<path d="M1024.02 304.962H1005.88V317.348H1024.02V304.962Z" fill="#11EE77"/>
<path d="M950.525 304.962H827.4V317.348H950.525V304.962Z" fill="#11EE77"/>
<path d="M744.363 384.991H692.822V397.377H744.363V384.991Z" fill="#11EE77"/>
<path d="M922.845 384.991H904.711V397.377H922.845V384.991Z" fill="#11EE77"/>
<path d="M959.115 384.991H940.98V397.377H959.115V384.991Z" fill="#11EE77"/>
<path d="M885.622 384.991H762.498V397.377H885.622V384.991Z" fill="#11EE77"/>
<path d="M957.204 332.592H905.664V344.977H957.204V332.592Z" fill="#11EE77"/>
<path d="M1026.88 332.592H975.34V344.977H1026.88V332.592Z" fill="#11EE77"/>
<path d="M710.957 332.592H692.822V344.977H710.957V332.592Z" fill="#11EE77"/>
<path d="M747.226 332.592H729.092V344.977H747.226V332.592Z" fill="#11EE77"/>
<path d="M888.486 332.592H765.361V344.977H888.486V332.592Z" fill="#11EE77"/>
<path d="M850.306 359.268H798.766V371.653H850.306V359.268Z" fill="#11EE77"/>
<path d="M780.632 359.268H729.092V371.653H780.632V359.268Z" fill="#11EE77"/>
<path d="M710.957 359.268H692.822V371.653H710.957V359.268Z" fill="#11EE77"/>
<path d="M1026.88 359.268H1008.75V371.653H1026.88V359.268Z" fill="#11EE77"/>
<path d="M990.611 359.268H867.486V371.653H990.611V359.268Z" fill="#11EE77"/>
</g>
<defs>
<clipPath id="clip0_246_1599">
<rect width="1232" height="1158" fill="white"/>
</clipPath>
</defs>
</svg>
