<svg width="1619" height="2677" viewBox="0 0 1619 2677" fill="none" xmlns="http://www.w3.org/2000/svg">
<path opacity="0.9" d="M429.505 859.631C425.176 860.995 420.768 862.167 416.543 863.808C414.488 864.598 412.144 865.883 411.029 867.646C406.413 874.896 409.793 886.565 417.292 890.559C418.974 891.462 420.603 892.487 422.528 893.607C419.252 898.295 416.299 902.515 413.939 905.893C414.522 909.566 416.195 912.943 415.167 914.888C411.787 921.244 407.414 927.079 402.223 934.945C400.838 930.569 399.775 928.095 399.34 925.524C399.009 923.58 399.671 921.496 399.566 919.499C399.305 914.888 393.834 908.871 390.315 910C385.655 911.502 380.611 913.074 378.155 918.118C381.665 919.855 385.969 920.862 388.408 923.554C392.606 928.19 395.307 933.6 395.211 940.702C395.132 945.877 393.033 950.071 392.284 954.759C391.648 958.779 389.418 960.69 385.977 962.192C364.244 971.673 342.632 981.45 320.812 990.749C312.545 994.266 304.906 999.067 300.316 1006.27C295.002 1014.6 287.685 1019.58 279.662 1024.24C266.875 1031.64 254 1038.9 241.248 1046.35C233.164 1051.08 228.321 1057.88 228.678 1067.61C228.896 1073.63 226.892 1078.93 223.905 1084.04C221.718 1087.78 219.732 1091.65 217.72 1095.5C211.021 1108.3 204.88 1121.45 197.528 1133.88C187.52 1150.81 176.326 1167.03 166.126 1183.84C146.013 1217 125.211 1249.81 106.597 1283.79C86.0304 1321.33 67.52 1359.98 48.2953 1398.24C41.6664 1411.42 35.8302 1424.99 29.1229 1438.14C22.4243 1451.25 14.9069 1463.97 8.09504 1477.04C0.185656 1492.22 0.516666 1493.33 16.0218 1501.41C34.2796 1510.91 53.2169 1519.19 70.9694 1529.51C94.7411 1543.34 117.572 1558.79 141.03 1573.18C147.764 1577.31 150.412 1582.07 147.642 1589.63C146.962 1591.48 147.128 1593.63 146.866 1595.64C144.811 1611.11 143.016 1626.63 140.63 1642.06C136.823 1666.6 132.459 1691.06 128.678 1715.61C126.962 1726.74 125.647 1737.98 124.915 1749.21C123.635 1769.09 122.807 1789.01 122.015 1808.92C121.048 1833.19 120.203 1857.47 119.497 1881.74C118.173 1927.16 120.542 1972.52 122.502 2017.88C122.825 2025.38 123.748 2032.85 124.001 2040.35C124.663 2060.28 124.541 2080.24 125.804 2100.12C127.084 2120.29 128.774 2140.52 131.875 2160.49C135.83 2185.9 140.934 2211.16 146.413 2236.3C149.549 2250.67 153.757 2264.9 158.704 2278.76C164.279 2294.37 175.595 2304.98 191.814 2309.42C200.168 2311.71 208.757 2313.48 217.363 2314.47C253.713 2318.67 290.167 2321.19 326.814 2319.68C331.152 2319.5 335.542 2319.5 339.862 2319.92C344.767 2320.4 346.195 2322.33 344.34 2326.92C340.446 2336.56 336.117 2346.04 331.648 2355.43C330.577 2357.68 328.46 2359.56 326.483 2361.21C316.038 2369.94 305.673 2378.79 294.897 2387.1C287.336 2392.91 281.552 2399.8 277.781 2408.53C272.511 2420.72 272.319 2433.24 275.011 2445.97C276.744 2454.17 278.66 2462.34 280.568 2470.5C281.796 2475.73 281.396 2480.69 279.619 2485.82C275.821 2496.74 272.223 2507.74 269 2518.84C265.934 2529.39 263.556 2540.13 260.664 2550.72C257.267 2563.18 251.587 2573.74 238.068 2578.15C233.434 2579.66 229.07 2582.23 224.889 2584.79C214.436 2591.21 209.157 2606.05 215.856 2613.85C221.344 2620.25 225.194 2627.17 229.41 2634.2C231.831 2638.24 237.18 2640.55 242.023 2644.25C240.969 2646.75 239.627 2649.85 238.347 2652.98C235.586 2659.76 233.678 2666.65 235.943 2674H568.564C573.207 2672.45 577.85 2670.92 582.492 2674H972.578C976.646 2671.62 980.706 2671.62 984.774 2674H1019.6C1025.41 2671.2 1031.21 2671.84 1037.01 2674H1345.25C1348.04 2673.53 1350.82 2672.66 1353.61 2672.65C1380.78 2672.44 1407.95 2672.38 1435.13 2672.25C1442.82 2672.2 1445.1 2669.1 1442.88 2661.9C1442.18 2659.6 1441.38 2657.32 1440.22 2653.82C1447.52 2655.36 1452.49 2653.5 1456.04 2648.34C1458.57 2651.08 1460.61 2653.29 1462.56 2655.4C1468.51 2651.75 1470.97 2651.56 1473.85 2654.14C1476.98 2656.96 1477.65 2662.47 1475.27 2667.15C1473.19 2664.87 1471.17 2662.65 1468.27 2659.46C1467.86 2662.33 1467.63 2663.91 1467.39 2665.47C1469.98 2667.59 1472.47 2671.08 1475.2 2671.28C1485.18 2672.02 1495.26 2671.57 1504.88 2671.57C1506.53 2667.52 1507.76 2664.52 1509.23 2660.92C1511.04 2662.34 1512.5 2662.89 1512.69 2663.74C1514.52 2671.49 1520.1 2672.31 1526.68 2671.73C1529.55 2671.48 1532.5 2671.86 1535.36 2671.53C1536.82 2671.35 1538.16 2670.21 1540.89 2668.85C1535.25 2663.93 1526.82 2662.92 1526.1 2654.81C1531.71 2652.81 1535.92 2652.42 1538.74 2653.47C1542.58 2654.88 1542.62 2658.89 1544.58 2661.52C1547.62 2665.61 1549.09 2671.67 1556.22 2671.69C1573.32 2671.75 1590.42 2672.25 1607.52 2672.44C1610.18 2672.46 1612.86 2671.73 1615.54 2671.35C1615.7 2670.7 1615.85 2670.06 1616 2669.41C1613.61 2667.55 1611.43 2664.64 1608.77 2664.11C1605.76 2663.51 1602.32 2665.05 1599.07 2665.66C1595.16 2659.99 1594.35 2659.64 1588.78 2661.86C1586.36 2662.82 1583.98 2663.91 1581.66 2665.1C1578.94 2666.5 1576.24 2666.44 1574.89 2663.7C1573.56 2661.03 1572.42 2657.76 1572.79 2654.97C1572.98 2653.6 1576.85 2651.69 1578.94 2651.82C1585.67 2652.2 1592.33 2653.42 1600 2654.45C1600.08 2653.18 1600.9 2651.01 1600.16 2649.75C1598.45 2646.81 1596.29 2643.96 1593.76 2641.67C1583.48 2632.4 1572.93 2623.43 1562.64 2614.17C1559.73 2611.55 1556.64 2608.71 1556.78 2603.93C1561.16 2601.31 1565.35 2603.31 1569.52 2603.63C1574.09 2603.98 1578.76 2604.52 1583.26 2603.93C1585.79 2603.6 1589.16 2601.72 1590.22 2599.57C1593.24 2593.48 1596.62 2587.55 1597.62 2580.44C1599.95 2564 1595.67 2548.8 1589.41 2534.12C1584.43 2522.43 1576.13 2513.22 1564.3 2507.64C1557.2 2504.29 1550.7 2502.88 1544.86 2504.14C1548.59 2506.21 1551.61 2507.76 1554.5 2509.52C1560.26 2513.01 1560.98 2516.41 1557.39 2523.09C1550.48 2519.34 1547.04 2510.93 1538.32 2509.52C1539.49 2511.59 1541.51 2512.74 1543.14 2514.31C1544.88 2515.97 1546.24 2518.01 1547.76 2519.9C1547.44 2520.53 1547.12 2521.17 1546.78 2521.8C1544.82 2521.52 1542.54 2521.78 1540.95 2520.86C1532.32 2515.84 1525.22 2507.63 1524.62 2502.38C1528.11 2502.09 1531.59 2501.81 1536.38 2501.42C1534.62 2499.29 1534.08 2498.26 1533.23 2497.66C1522.47 2490.07 1514.76 2480.42 1511.55 2467.37C1510.93 2464.86 1508.74 2462.72 1507.19 2460.44M429.505 859.631C429.488 859.684 429.47 859.744 429.461 859.805C429.496 859.805 429.522 859.805 429.557 859.796M429.505 859.631C429.575 859.605 429.653 859.588 429.723 859.562C429.671 859.64 429.618 859.718 429.557 859.796M429.505 859.631C430.341 855.524 432.867 852.746 436.169 850.133C443.686 844.194 442.824 843.612 440.637 833.618C439.531 828.539 441.996 822.617 443.224 817.156C443.704 815.028 445.873 813.222 446.16 811.121C447.083 804.357 449.087 798.219 454.784 793.382C453.155 789.874 451.892 786.705 450.263 783.718C446.265 776.373 444.662 768.741 446.282 760.397C447.658 753.329 448.303 746.131 449.758 739.089C450.82 733.923 452.728 728.939 454.113 723.842C454.427 722.687 454.165 721.376 454.165 719.266C450.01 723.703 446.561 727.367 443.155 731.058C440.315 734.114 437.867 737.109 432.885 737.535C430.428 737.743 428.277 741.468 426.16 743.457C429.087 752.912 431.848 761.855 434.505 770.434C432.266 771.78 429.279 773.03 426.988 775.053C420.846 780.48 414.54 782.894 405.193 782.511C406.003 778.978 408.573 777.406 411.439 776.225C413.303 775.461 415.315 775.044 417.205 774.332C419.993 773.282 421.369 771.198 420.89 768.237C420.42 765.285 418.538 763.453 415.516 763.739C410.141 764.243 406.761 761.386 404.209 757.332C403.416 756.073 403.73 754.119 403.46 751.87C410.62 755.222 417.11 758.252 425.359 762.098C423.895 756.785 423.068 753.598 422.153 750.437C421.143 746.964 419.836 744.169 415.263 743.986C413.608 743.917 412.04 741.703 410.437 740.313C412.484 738.855 414.54 737.387 416.761 735.807C418.268 737.552 419.313 738.768 421.099 740.843C426.97 730.424 435.733 722.21 437.04 709.498C435.089 709.689 433.712 709.828 432.327 709.959C432.118 709.446 431.657 708.882 431.744 708.43C432.815 703.038 430.333 697.308 433.512 692.02C434.017 691.178 432.406 689.059 431.744 687.453C436.648 683.919 441.639 684.9 446.238 688.347C449.218 686.967 451.866 685.829 454.427 684.527C459.348 682.026 462.693 675.427 461.073 670.409C459.662 666.041 457.623 661.865 455.594 657.732C453.947 654.381 451.674 651.333 450.089 647.964C446.63 640.618 440.137 635.46 432.162 637.215C427.714 638.194 431.648 630.85 432.946 629.357C436.813 624.92 434.418 620.935 433.512 616.524C432.014 609.256 428.216 602.553 428.625 594.756C428.756 592.316 426.552 589.755 424.958 586.221C426.944 575.246 433.312 566.277 444.723 560.937C448.373 559.226 451.857 557.117 455.28 554.981C456.421 554.277 457.641 553.044 457.981 551.811C459.967 544.718 464.94 538.431 463.773 530.452C463.529 528.802 464.183 527.022 464.435 525.312C465.367 518.982 465.176 513.147 461.97 507.009C457.423 498.308 457.345 488.931 461.482 479.606C462.684 476.888 462.336 473.485 462.78 469.716C468.564 469.447 470.768 465.453 470.942 459.453C471.247 449.025 473.277 439.222 478.538 429.758C481.021 425.287 479.636 418.679 479.984 413.235C481.831 410.648 485.062 412.419 487.745 410.648C487.998 405.473 488.555 400.28 488.407 395.114C488.259 390.139 494.035 385.997 490.446 380.362C487.336 380.944 484.426 381.491 481.526 382.038C481.282 381.569 481.038 381.109 480.803 380.649C484.148 377.679 487.493 374.71 490.707 371.853C489.122 367.043 487.667 362.623 485.777 356.858C485.324 356.702 481.331 356.495 481.831 355.495C482.495 354.165 487.578 352.471 487.832 351.761C487.832 351.176 482.902 348.87 480.184 347.264C480.184 342.652 489.461 340.786 488.852 333.953C488.521 330.315 490.742 326.382 492.101 322.683C492.78 320.842 494.113 319.227 495.385 317.117C493.817 315.433 492.353 313.844 490.35 311.691C498.93 303.885 511.099 301.028 518.076 290.366C511.569 285.147 511.761 278.002 513.512 270.482C512.972 270.187 511.298 269.438 511.9 269.597C515.62 267.825 519.409 266.176 523.05 264.248C530.942 260.072 537.144 255.018 537.092 244.66C537.048 238.122 539.017 231.575 540.115 225.037C540.254 224.195 540.977 223.292 540.803 222.571C538.738 214.279 543.355 209.999 549.627 205.744C552.275 203.955 553.39 199.501 554.557 196.037C557.972 185.939 564.087 178.003 572.98 171.265C570.776 165.751 573.747 160.915 578.12 157.529C582.057 154.481 587.144 152.884 592.013 150.504C592.118 150.01 592.388 149.193 592.466 148.369C593.05 142.534 593.041 142.534 599.548 141.639C607.013 140.615 612.728 134.502 613.546 126.61C613.607 126.071 613.015 125.099 613.172 124.995C619.025 121.009 616.926 114.636 618.485 109.322C620.088 103.826 625.01 99.3024 628.433 94.3272C629.74 92.4257 631.055 90.5155 632.109 88.4751C633.503 85.7661 635.21 84.2292 638.503 83.4391C641.97 82.6055 645.236 80.3307 648.163 78.1252C649.531 77.092 652.562 75.1905 649.226 72.5509C649.069 72.4207 650.628 69.1994 651.978 68.3051C656.534 65.3009 661.342 62.6961 666.072 59.961C666.821 59.5355 667.64 58.9538 668.433 58.9364C679.757 58.676 687.989 51.6169 697.091 46.3291C706.769 40.7027 716.717 35.5278 726.673 30.405C735.61 25.8118 744.809 21.7136 753.738 17.1031C760.271 13.7342 767.309 15.0973 774.051 14.8195C778.877 14.6198 783.816 16.9902 789.251 18.3447C790.035 16.5387 790.898 14.5677 792.056 11.9108C790.862 6.78294 802.291 15.2189 806.778 11.824C815.663 15.6009 823.737 20.4112 833.049 18.7788C836.115 21.3315 839.225 23.7193 842.1 26.3588C846.037 29.9535 852.5 18.7788 853.598 23.2157C852.919 28.078 851.412 31.4382 852.5 33.0185C853.807 34.9113 860.33 37.2848 859.791 36.2832C859.452 33.4092 859.103 30.4571 858.746 27.4789C864.452 25.3343 870.436 28.2604 874.931 23.7453C875.575 23.0941 879.225 24.5615 880.793 25.8726C883.807 28.3993 886.115 28.3819 889.208 25.9594C891.333 24.301 894.199 23.5804 897.1 22.2693C896.438 20.8714 895.784 19.4648 894.425 16.556C894.425 14.3246 905.105 17.1552 909.556 14.8455C913.136 12.9788 916.76 11.1814 920.349 9.34938C921.22 10.8602 922.039 12.4231 923.093 13.7863C923.223 13.9512 924.547 13.1958 925.462 12.753C926.716 13.8383 927.971 14.9237 929.896 16.5908C931.324 15.1842 932.631 13.8991 934.268 12.2928C932.169 10.9904 930.802 10.1482 929.53 9.34938C931.492 5.08758 936.821 9.9919 939.086 14.3246C940.697 17.4069 948.868 17.4677 951.62 14.2378C957.23 7.65625 963.249 6.90953 970.366 11.6937C971.237 8.6374 971.977 6.01521 972.718 3.39303C973.458 0.771667 981.786 11.8674 980.923 18.8049C980.227 24.3792 983.824 29.667 989.521 31.2299C993.667 32.3673 997.003 34.6074 997.413 38.2629C997.927 42.856 1000.93 44.1671 1003.92 46.0686C1005.37 44.7402 1006.83 43.4204 1008.18 42.1788C1013.01 46.1468 1017.56 49.889 1022.13 53.64C1027.21 51.0265 1030.89 46.4854 1036.68 48.4737C1038.02 48.9339 1039.63 48.9166 1040.75 49.672C1047.63 54.3172 1049.65 54.8208 1056.95 53.1885C1057.46 53.4316 1058.26 53.5445 1058.46 53.9525C1063.42 63.9116 1072.66 70.2413 1079.51 78.5854C1080.94 80.3307 1083.06 81.5115 1084.75 83.0657C1086.59 84.7762 1089.09 86.3131 1089.94 88.4577C1092.75 95.647 1098.07 99.9449 1104.66 103.331C1107.43 104.755 1109.76 107.03 1112.32 108.862C1114.63 110.521 1116.9 112.3 1119.38 113.698C1128.53 118.839 1137.03 124.265 1140.19 135.423C1141.72 140.788 1144.57 146.015 1147.86 150.565C1151.17 155.158 1151.18 159.682 1149.96 164.51C1148.45 170.492 1149.99 175.181 1154.53 179.322C1156.37 181.007 1157.35 183.586 1158.87 185.661C1160.03 187.276 1161.15 189.638 1162.75 190.115C1172.93 193.128 1178.01 202.722 1186.48 207.932C1189.02 209.486 1190.41 212.812 1192.46 215.217C1196.04 219.445 1197.75 225.185 1204.33 227.043C1206.91 227.763 1208.87 232.053 1210.31 235.092C1213.4 241.595 1215.98 247.916 1223.09 251.78C1228.32 254.61 1230.61 260.185 1228.34 266.619C1228 267.565 1228.57 268.867 1228.85 269.979C1229.26 271.611 1230.4 273.322 1230.16 274.824C1228.4 285.825 1233.56 293.266 1242.03 299.326C1243.52 300.403 1244.67 302.348 1245.32 304.128C1246.69 307.888 1248.33 311.76 1248.62 315.685C1249.62 328.813 1256.43 340.318 1258.65 353.081C1259.06 355.434 1260.4 357.622 1261.67 360.791C1266.26 349.547 1266.26 349.547 1270.13 349.625C1268.91 357.64 1265.45 366.209 1276.85 371.81C1283.68 371.81 1273.14 372.322 1271.89 372.496C1269.03 386.405 1273.39 399.664 1275.59 413.113C1276.19 416.769 1276.44 420.511 1277.44 424.054C1278.57 428.082 1280.16 431.504 1283.68 434.829C1289.42 440.221 1293.27 447.61 1297.98 454.105C1301 458.29 1304.14 462.397 1307.24 466.53C1309.3 469.282 1311.51 471.939 1313.44 474.778C1317.92 481.377 1319.14 488.245 1316.05 496.016C1312.69 504.473 1310.03 513.217 1307.21 521.873C1304.79 529.306 1305.83 536.799 1307.57 544.145C1308.2 546.819 1309.97 549.285 1311.49 551.681C1313.91 555.536 1316.39 559.383 1319.16 562.995C1319.49 564.289 1322.41 566.086 1324.28 567.284C1327.14 569.116 1330.19 570.662 1333.32 572.416C1331.44 574.795 1328.49 577.313 1328.92 578.181C1330.86 582.114 1333.76 585.587 1337.17 590.45C1339.93 580.603 1336.44 571.067 1330.87 566.72C1337.17 563.517 1350.78 572.216 1348.78 585.483C1347.06 585.561 1345.24 585.639 1342.53 585.761C1342.94 592.629 1339.22 599.619 1345.3 606.191C1343.55 610.333 1340.03 610.724 1335.57 610.316C1330.71 609.864 1330.22 605.957 1328.49 601.937C1324.21 608.327 1320.12 613.155 1320.7 621.126C1321.18 627.455 1318.32 634.019 1317.04 640.497C1316.51 643.145 1316.24 645.837 1317.3 648.832C1318 647.339 1318.82 645.889 1319.42 644.361C1322.22 637.084 1326.85 632.092 1335.11 631.345C1339.89 630.92 1343.63 629.539 1342.78 623.366C1342.6 622.098 1344.48 620.535 1345.41 619.12C1346.35 617.687 1348.14 616.255 1348.12 614.848C1347.99 607.329 1351.55 601.207 1355.8 594.921C1358.41 599.688 1360.96 604.463 1357.31 610.281C1356.57 611.462 1356.11 613.042 1356.14 614.414C1356.36 622.958 1349.63 627.733 1345.22 633.472C1342.9 636.485 1337.97 637.901 1333.94 639.108C1328.62 640.705 1327.1 644.621 1325.73 649.188C1323.28 657.341 1317.23 661.613 1308.68 663.984C1308.97 669.237 1313.15 671.52 1317.27 673.083C1325.99 676.383 1330.28 682.79 1332.54 691.412C1333.68 695.771 1336.09 699.8 1337.91 703.976C1339.49 707.623 1341.07 711.27 1343.38 716.584C1345.34 717.052 1349.22 717.947 1353.11 718.884C1363.3 721.359 1367.81 731.518 1361.89 740.166C1358.87 744.577 1354.62 748.527 1350.14 751.471C1346.32 753.963 1344.2 756.498 1343.94 760.987C1343.74 764.434 1342.85 767.838 1342.42 771.276C1341.26 780.402 1344.57 786.974 1352.9 791.229C1358.8 794.242 1364.92 796.838 1371.01 799.469C1375.23 801.292 1377.66 803.897 1376.64 808.838C1376.24 810.8 1376.34 812.866 1376.25 814.889C1375.92 823.025 1372.89 828.825 1363.15 829.329C1362.45 828.174 1361.58 826.776 1360.71 825.378C1363.03 823.841 1366.55 822.574 1367.01 820.603C1367.95 816.6 1367.3 812.128 1366.73 807.917C1366.58 806.719 1364.55 805.581 1363.17 804.757C1354.05 799.304 1344.7 794.198 1335.83 788.372C1333.5 786.835 1332.39 783.25 1331.07 780.445C1329.54 777.189 1328.38 773.759 1326.24 768.35C1323.81 772.5 1322.26 774.723 1321.16 777.154C1320.46 778.691 1320.73 780.671 1320.03 782.208C1315.69 791.602 1321.2 798.01 1326.82 804.201C1329.43 807.084 1332.65 808.785 1333.13 813.708C1333.38 816.339 1338.29 818.597 1341.22 820.872C1344.02 823.06 1347.46 824.874 1343.27 829.389C1349.63 831.039 1355.11 832.463 1359.98 833.722C1358.83 840.816 1358.27 846.764 1356.74 852.442C1356.09 854.882 1353.73 857.252 1351.53 858.807C1348.78 860.752 1345.42 861.837 1342.49 863.209C1342.4 874.036 1342.59 874.262 1352.88 876.658C1358.34 877.926 1364.05 874.436 1367.57 867.298C1368.81 869.582 1369.94 871.527 1370.97 873.524C1372.02 875.564 1372.98 877.648 1374 879.741C1371.34 885.471 1368.68 891.202 1365.77 897.497C1370.23 902.767 1374.67 908.671 1384.23 902.498C1383.37 905.858 1382.53 907.734 1382.49 909.618C1382.36 916.616 1382.19 923.293 1383.99 930.561C1387.5 944.844 1393.33 959.144 1389.97 974.599C1388.51 981.372 1389.68 983.013 1395.97 986.243C1404.22 990.471 1412.68 994.309 1420.99 998.416C1443.4 1009.5 1464.26 1022.92 1483.6 1038.77C1492.54 1046.11 1502.12 1052.67 1511.31 1059.72C1524.01 1069.48 1534.87 1081.1 1545.02 1093.43C1548.31 1097.43 1551.71 1101.42 1555.55 1104.87C1562.56 1111.16 1566.72 1118.14 1566.75 1128.14C1566.77 1138.48 1568.55 1148.85 1570.01 1159.15C1573.05 1180.7 1573.65 1202.33 1572.93 1224.05C1572.6 1233.87 1572.48 1243.7 1572.25 1253.53C1571.83 1270.85 1577.17 1287.17 1580.75 1303.82C1591.32 1352.96 1592.25 1401.92 1576.91 1450.4C1575.47 1454.94 1575.23 1459.25 1576.15 1463.98C1580.4 1485.9 1582.7 1508.07 1581.8 1530.37C1581.3 1542.74 1579.45 1555.12 1577.38 1567.34C1575.7 1577.19 1575.69 1586.66 1577.4 1596.55C1581.31 1619.12 1582.28 1641.93 1580.39 1664.82C1578.45 1688.23 1578.46 1711.67 1581.56 1734.96C1583.84 1752.12 1587.18 1769.14 1590.05 1786.23C1590.34 1787.94 1590.82 1789.62 1591.03 1791.34C1591.83 1797.9 1590.24 1801.32 1584 1802.05C1576.5 1802.93 1574.68 1806.87 1574.01 1813.49C1571.53 1837.92 1568.81 1862.33 1565.75 1886.69C1564.21 1899.01 1561.72 1911.21 1559.73 1923.47C1553 1964.85 1546.19 2006.21 1539.62 2047.61C1535.05 2076.44 1531.18 2105.39 1526.32 2134.18C1520.73 2167.28 1512.07 2199.7 1502.28 2231.81C1493.93 2259.22 1484.93 2286.36 1473.13 2312.53C1468.13 2323.62 1471.8 2335.26 1481.64 2342.1C1491.1 2348.68 1498.54 2356.66 1503.48 2367.36C1510.17 2381.82 1517.02 2396.11 1521.1 2411.62C1524.28 2423.62 1524.5 2435 1517.62 2445.9C1516.85 2447.11 1517.11 2448.98 1516.91 2450.56C1510.88 2451.07 1510.03 2456.69 1507.25 2460.4C1507.23 2460.41 1507.21 2460.43 1507.19 2460.44M429.557 859.796C427.745 862.436 425.925 865.075 424 867.863C426.569 868.983 428.155 869.677 431.718 871.232C427.902 874.192 425.324 876.189 422.388 878.464C429.74 880.348 436.195 881.399 442.623 878.082C446.979 875.825 451.447 873.758 455.934 871.752C458.172 870.745 460.855 869.486 459.453 866.916C458.451 865.076 455.411 863.078 453.477 863.261C449.226 863.66 445.132 865.536 440.916 866.534C438.643 867.073 436.117 868.74 433.259 865.935C436.221 864.112 438.73 862.566 441.657 860.76C437.327 857.209 433.373 859.649 429.557 859.796ZM1507.19 2460.44C1507.13 2460.35 1507.07 2460.27 1507.02 2460.19C1506.99 2460.32 1506.97 2460.45 1506.94 2460.57M1507.19 2460.44C1507.11 2460.48 1507.02 2460.53 1506.94 2460.57M1506.94 2460.57C1504.73 2461.75 1502.51 2462.92 1500.29 2464.08M1506.94 2460.57C1505.68 2466.78 1504.58 2467.32 1500.29 2464.08M1500.29 2464.08C1500.24 2464.05 1500.2 2464.02 1500.16 2463.98C1500.1 2463.99 1500.05 2464 1500.01 2464.01M1500.29 2464.08C1500.17 2464.14 1500.06 2464.2 1499.95 2464.26C1499.96 2464.17 1499.99 2464.1 1500.01 2464.01M1500.01 2464.01C1500.9 2460.47 1501.78 2456.91 1502.86 2452.61C1495.89 2455.06 1495.13 2455.79 1494.88 2459.4C1494.62 2463.18 1496.36 2464.68 1500.01 2464.01Z" stroke="#0055FF" stroke-width="14" />
</svg>
