<svg width="1232" height="1012" viewBox="0 0 1232 1012" fill="none" xmlns="http://www.w3.org/2000/svg">
<path d="M785.095 787.535V1002.8H245.765C184.316 1002.8 134.32 954.517 134.32 895.169C134.32 835.821 184.316 787.535 245.765 787.535H785.095Z" fill="#FAFAFA"/>
<path d="M798.342 1001.15C798.341 1003.34 797.468 1005.45 795.915 1007C794.363 1008.55 792.258 1009.43 790.062 1009.43H236.159C206.075 1009.43 177.224 997.478 155.951 976.205C134.679 954.933 122.729 926.082 122.729 895.998C122.729 865.915 134.679 837.063 155.951 815.791C177.224 794.519 206.075 782.568 236.159 782.568H790.062C792.258 782.568 794.364 783.44 795.916 784.993C797.469 786.546 798.342 788.652 798.342 790.848C798.342 793.044 797.469 795.149 795.916 796.702C794.364 798.255 792.258 799.127 790.062 799.127H236.159C210.467 799.127 185.827 809.333 167.66 827.5C149.494 845.667 139.288 870.306 139.288 895.998C139.288 921.69 149.494 946.329 167.66 964.496C185.827 982.663 210.467 992.869 236.159 992.869H790.062C792.258 992.87 794.363 993.743 795.915 995.295C797.468 996.848 798.341 998.953 798.342 1001.15Z" fill="#11EE77"/>
<path d="M785.091 837.213H205.521C205.082 837.213 204.661 837.039 204.35 836.728C204.04 836.418 203.865 835.996 203.865 835.557C203.865 835.118 204.04 834.697 204.35 834.386C204.661 834.076 205.082 833.901 205.521 833.901H785.091C785.53 833.901 785.951 834.076 786.262 834.386C786.573 834.697 786.747 835.118 786.747 835.557C786.747 835.996 786.573 836.418 786.262 836.728C785.951 837.039 785.53 837.213 785.091 837.213Z" fill="#CED3DC"/>
<path d="M785.091 876.955H205.521C205.082 876.955 204.661 876.781 204.35 876.47C204.04 876.16 203.865 875.739 203.865 875.299C203.865 874.86 204.04 874.439 204.35 874.129C204.661 873.818 205.082 873.644 205.521 873.644H785.091C785.53 873.644 785.951 873.818 786.262 874.129C786.573 874.439 786.747 874.86 786.747 875.299C786.747 875.739 786.573 876.16 786.262 876.47C785.951 876.781 785.53 876.955 785.091 876.955Z" fill="#CED3DC"/>
<path d="M785.091 916.698H205.521C205.082 916.698 204.661 916.523 204.35 916.213C204.04 915.902 203.865 915.481 203.865 915.042C203.865 914.603 204.04 914.182 204.35 913.871C204.661 913.56 205.082 913.386 205.521 913.386H785.091C785.53 913.386 785.951 913.56 786.262 913.871C786.573 914.182 786.747 914.603 786.747 915.042C786.747 915.481 786.573 915.902 786.262 916.213C785.951 916.523 785.53 916.698 785.091 916.698Z" fill="#CED3DC"/>
<path d="M785.091 956.44H205.521C205.082 956.44 204.661 956.265 204.35 955.955C204.04 955.644 203.865 955.223 203.865 954.784C203.865 954.345 204.04 953.924 204.35 953.613C204.661 953.302 205.082 953.128 205.521 953.128H785.091C785.53 953.128 785.951 953.302 786.262 953.613C786.573 953.924 786.747 954.345 786.747 954.784C786.747 955.223 786.573 955.644 786.262 955.955C785.951 956.265 785.53 956.44 785.091 956.44Z" fill="#CED3DC"/>
<path d="M1201.91 828.057L1066.85 995.682L646.884 657.296C599.035 618.741 590.4 549.773 627.636 503.56C664.872 457.347 734.099 451.116 781.948 489.67L1201.91 828.057Z" fill="#FAFAFA"/>
<path d="M1078.21 1002.7C1076.83 1004.41 1074.83 1005.51 1072.65 1005.74C1070.46 1005.98 1068.28 1005.33 1066.57 1003.96L635.252 656.426C611.827 637.551 596.859 610.144 593.641 580.233C590.424 550.322 599.22 520.358 618.095 496.932C636.97 473.507 664.378 458.539 694.289 455.321C724.2 452.104 754.164 460.9 777.589 479.775L1208.9 827.305C1209.75 827.987 1210.45 828.83 1210.98 829.784C1211.5 830.738 1211.83 831.786 1211.94 832.868C1212.06 833.949 1211.96 835.043 1211.66 836.087C1211.35 837.13 1210.84 838.103 1210.16 838.95C1209.48 839.797 1208.63 840.502 1207.68 841.023C1206.72 841.544 1205.68 841.872 1204.59 841.988C1203.51 842.104 1202.42 842.006 1201.38 841.699C1200.33 841.392 1199.36 840.883 1198.51 840.2L767.2 492.669C757.294 484.682 745.913 478.724 733.704 475.136C721.496 471.548 708.701 470.401 696.049 471.759C683.397 473.118 671.137 476.956 659.969 483.053C648.801 489.151 638.943 497.39 630.96 507.298C622.976 517.206 617.023 528.59 613.44 540.8C609.857 553.01 608.714 565.805 610.078 578.457C611.441 591.108 615.284 603.367 621.386 614.532C627.488 625.698 635.73 635.552 645.642 643.532L1076.96 991.063C1078.66 992.441 1079.76 994.441 1079.99 996.624C1080.23 998.807 1079.58 1000.99 1078.21 1002.7V1002.7Z" fill="#CED3DC"/>
<path d="M1170.75 866.74L719.447 503.106C719.278 502.97 719.137 502.801 719.033 502.61C718.928 502.419 718.863 502.21 718.84 501.994C718.816 501.777 718.836 501.559 718.897 501.35C718.958 501.141 719.06 500.947 719.197 500.778C719.333 500.608 719.501 500.467 719.692 500.363C719.883 500.259 720.093 500.193 720.309 500.17C720.525 500.147 720.744 500.166 720.952 500.228C721.161 500.289 721.356 500.391 721.525 500.527L1172.82 864.161C1172.99 864.298 1173.14 864.466 1173.24 864.657C1173.34 864.848 1173.41 865.058 1173.43 865.274C1173.46 865.49 1173.44 865.709 1173.38 865.918C1173.32 866.127 1173.21 866.322 1173.08 866.491C1172.94 866.661 1172.77 866.802 1172.58 866.906C1172.39 867.01 1172.18 867.076 1171.96 867.099C1171.75 867.122 1171.53 867.102 1171.32 867.041C1171.11 866.979 1170.92 866.877 1170.75 866.74V866.74Z" fill="#CED3DC"/>
<path d="M1145.81 897.686L694.51 534.052C694.169 533.776 693.951 533.376 693.904 532.94C693.857 532.504 693.986 532.067 694.261 531.725C694.536 531.383 694.936 531.165 695.372 531.118C695.809 531.07 696.246 531.198 696.588 531.473L1147.89 895.107C1148.06 895.244 1148.2 895.412 1148.3 895.603C1148.41 895.794 1148.47 896.004 1148.5 896.22C1148.52 896.436 1148.5 896.655 1148.44 896.864C1148.38 897.073 1148.28 897.268 1148.14 897.437C1148 897.607 1147.83 897.747 1147.64 897.852C1147.45 897.956 1147.24 898.021 1147.03 898.045C1146.81 898.068 1146.59 898.048 1146.38 897.987C1146.17 897.925 1145.98 897.823 1145.81 897.686V897.686Z" fill="#CED3DC"/>
<path d="M1120.88 928.632L669.578 564.998C669.236 564.723 669.017 564.322 668.97 563.886C668.923 563.449 669.052 563.012 669.327 562.67C669.603 562.328 670.003 562.109 670.44 562.062C670.876 562.015 671.314 562.144 671.656 562.419L1122.96 926.054C1123.12 926.19 1123.27 926.358 1123.37 926.549C1123.47 926.74 1123.54 926.95 1123.56 927.166C1123.59 927.382 1123.57 927.601 1123.51 927.809C1123.44 928.018 1123.34 928.213 1123.21 928.382C1123.07 928.551 1122.9 928.692 1122.71 928.796C1122.52 928.901 1122.31 928.966 1122.09 928.989C1121.88 929.013 1121.66 928.993 1121.45 928.932C1121.24 928.871 1121.05 928.769 1120.88 928.632V928.632Z" fill="#CED3DC"/>
<path d="M1095.94 959.58L644.642 595.945C644.473 595.809 644.332 595.64 644.228 595.45C644.124 595.259 644.058 595.049 644.035 594.833C644.012 594.617 644.031 594.398 644.092 594.189C644.154 593.981 644.256 593.786 644.392 593.617C644.528 593.448 644.697 593.307 644.888 593.203C645.079 593.098 645.288 593.033 645.504 593.01C645.72 592.986 645.939 593.006 646.148 593.067C646.356 593.128 646.551 593.23 646.72 593.366L1098.02 957.001C1098.19 957.137 1098.33 957.305 1098.44 957.496C1098.54 957.687 1098.61 957.897 1098.63 958.113C1098.65 958.33 1098.63 958.549 1098.57 958.757C1098.51 958.966 1098.41 959.161 1098.27 959.33C1098.14 959.5 1097.97 959.641 1097.78 959.745C1097.58 959.849 1097.38 959.915 1097.16 959.938C1096.94 959.961 1096.72 959.941 1096.51 959.88C1096.31 959.818 1096.11 959.716 1095.94 959.58V959.58Z" fill="#CED3DC"/>
<path d="M1230.34 1011.09H1.65591C1.21674 1011.09 0.795549 1010.91 0.485005 1010.6C0.174461 1010.29 0 1009.87 0 1009.43C0 1008.99 0.174461 1008.57 0.485005 1008.26C0.795549 1007.95 1.21674 1007.77 1.65591 1007.77H1230.34C1230.78 1007.77 1231.2 1007.95 1231.51 1008.26C1231.83 1008.57 1232 1008.99 1232 1009.43C1232 1009.87 1231.83 1010.29 1231.51 1010.6C1231.2 1010.91 1230.78 1011.09 1230.34 1011.09Z" fill="#CED3DC"/>
<path d="M252.338 178.12C223.424 177.928 194.872 171.594 168.526 159.527C166.957 158.819 165.626 157.664 164.694 156.203C163.763 154.742 163.27 153.038 163.277 151.299V78.2904C163.28 75.8986 164.219 73.6055 165.889 71.9143C167.558 70.223 169.822 69.2717 172.183 69.269H332.492C334.853 69.2717 337.117 70.2231 338.786 71.9143C340.456 73.6056 341.395 75.8986 341.398 78.2904V151.299C341.405 153.038 340.913 154.742 339.981 156.203C339.049 157.664 337.718 158.819 336.149 159.527C309.803 171.594 281.251 177.928 252.338 178.12V178.12Z" fill="#11EE77"/>
<path d="M251.947 118.747C250.762 118.748 249.588 118.513 248.496 118.057L121.703 64.8365C120.068 64.1503 118.677 62.9925 117.71 61.5124C116.742 60.0324 116.242 58.2979 116.275 56.5327C116.307 54.7675 116.871 53.0524 117.892 51.6086C118.914 50.1648 120.346 49.0585 122.005 48.4323L248.8 0.577289C250.842 -0.197029 253.1 -0.192252 255.139 0.590714L380.234 48.4456C381.883 49.0769 383.306 50.1834 384.321 51.6238C385.335 53.0641 385.894 54.7727 385.927 56.531C385.959 58.2893 385.464 60.0173 384.504 61.4939C383.544 62.9706 382.163 64.1287 380.538 64.8202L255.441 118.039C254.337 118.507 253.148 118.748 251.947 118.747V118.747Z" fill="#11EE77"/>
<path d="M178.121 163.277C184.953 163.277 190.491 158.293 190.491 152.144C190.491 145.996 184.953 141.012 178.121 141.012C171.29 141.012 165.752 145.996 165.752 152.144C165.752 158.293 171.29 163.277 178.121 163.277Z" fill="#536375"/>
<path opacity="0.2" d="M381.141 57.6778L256.281 110.347C255.308 110.757 254.261 110.97 253.202 110.973C252.143 110.975 251.095 110.767 250.12 110.361L123.567 57.6932C121.978 57.0475 120.652 55.8979 119.799 54.4259C119.241 55.3804 118.895 56.4411 118.785 57.5376C118.674 58.6341 118.801 59.7412 119.158 60.7855C119.514 61.8298 120.092 62.7873 120.852 63.5945C121.612 64.4018 122.538 65.0402 123.567 65.4675L250.12 118.136C251.095 118.542 252.143 118.75 253.202 118.747C254.261 118.745 255.308 118.532 256.281 118.121L381.141 65.452C382.166 65.021 383.086 64.3806 383.841 63.573C384.596 62.7654 385.169 61.809 385.521 60.767C385.874 59.7249 385.999 58.6209 385.887 57.5279C385.776 56.4348 385.43 55.3775 384.874 54.4258C384.027 55.886 382.715 57.0292 381.141 57.6778V57.6778Z" fill="#011E41"/>
<path d="M180.045 153.382C180.556 153.382 181.045 153.172 181.406 152.799C181.767 152.425 181.97 151.919 181.97 151.391V84.7937L245.437 60.8802C245.947 60.8881 246.44 60.6859 246.806 60.3182C247.172 59.9505 247.382 59.4474 247.39 58.9196C247.398 58.3917 247.202 57.8824 246.847 57.5036C246.491 57.1247 246.005 56.9075 245.494 56.8997L182.027 80.8132C181.516 80.801 181.009 80.8962 180.534 81.093C180.06 81.2897 179.63 81.584 179.269 81.958C178.904 82.3274 178.615 82.7686 178.417 83.2557C178.22 83.7427 178.12 84.2657 178.121 84.7937V151.391C178.121 151.919 178.324 152.425 178.685 152.799C179.046 153.172 179.535 153.382 180.045 153.382V153.382Z" fill="#536375"/>
<path d="M458.211 215.262L413.511 276.281C413.511 276.281 375.401 292.306 330.86 324.483L341.522 341.127C341.522 341.127 415.04 311.023 433.854 298.303L468.209 244.444L458.211 215.262V215.262Z" fill="#FFB8B8"/>
<path d="M304.132 354.039C299.867 347.796 304.931 336.912 315.445 329.727C325.959 322.543 337.94 321.779 342.206 328.022C346.472 334.264 341.407 345.149 330.893 352.333C320.379 359.518 308.398 360.281 304.132 354.039Z" fill="#FFB8B8"/>
<path d="M480.061 163.174L465.432 159.024C465.432 159.024 456.917 159.041 452.113 167.404C447.31 175.768 413.297 250.34 414.909 253.229C416.521 256.118 418.772 256.756 415.883 258.368C412.994 259.98 410.349 259.163 412.318 261.579C414.287 263.994 411.566 269.301 411.566 269.301L449.09 296.987L480.061 163.174V163.174Z" fill="#536375"/>
<path d="M536.813 776.365L518.966 776.363L510.477 707.527L536.816 707.529L536.813 776.365Z" fill="#FFB8B8"/>
<path d="M475.669 775.96C475.114 776.895 474.82 779.916 474.82 781.004C474.82 784.349 477.532 787.061 480.878 787.061H536.145C538.428 787.061 540.278 785.211 540.278 782.929V780.628C540.278 780.628 543.012 773.713 537.383 765.189C537.383 765.189 530.387 771.863 519.933 761.409L516.85 755.825L494.535 772.145L482.166 773.667C479.46 774 477.061 773.615 475.669 775.96V775.96Z" fill="#011E41"/>
<path d="M472.225 758.974L454.625 761.93L434.847 695.451L460.823 691.089L472.225 758.974Z" fill="#FFB8B8"/>
<path d="M411.857 768.705C411.464 769.72 411.676 772.747 411.856 773.821C412.41 777.12 415.534 779.345 418.833 778.79L473.337 769.633C475.588 769.255 477.106 767.124 476.727 764.874L476.346 762.605C476.346 762.605 477.897 755.332 470.933 747.858C470.933 747.858 465.14 755.599 453.098 747.022L449.133 742.025L429.83 761.817L417.885 765.368C415.271 766.144 412.842 766.162 411.857 768.705H411.857Z" fill="#011E41"/>
<path d="M435.641 405.762C435.641 405.762 411.663 433.833 411.663 459.565C411.663 485.297 411.078 566.131 411.078 566.131C411.078 566.131 425.114 692.322 428.623 702.849C432.132 713.375 433.886 730.92 433.886 730.92L467.805 722.733C467.805 722.733 472.484 604.015 458.448 575.943L492.368 480.033L504.064 751.389H543.44C543.44 751.389 563.715 608.693 553.189 571.265C553.189 571.265 576.581 428.57 570.733 420.382C564.885 412.195 435.641 405.762 435.641 405.762V405.762Z" fill="#011E41"/>
<path d="M522.777 126.22L491.197 128.559L480.67 146.103C480.67 146.103 456.108 156.63 452.599 171.835C449.09 187.04 447.92 364.825 447.92 364.825L430.376 390.557L431.546 412.78L571.902 419.798V398.431L584.768 373.012C584.768 373.012 570.732 169.496 567.223 168.326C563.714 167.157 536.813 148.443 536.813 148.443L522.777 126.219V126.22Z" fill="#536375"/>
<path d="M508.486 121.865C486.523 121.865 468.719 104.061 468.719 82.0979C468.719 60.1349 486.523 42.3303 508.486 42.3303C530.449 42.3303 548.254 60.1349 548.254 82.0979C548.254 104.061 530.449 121.865 508.486 121.865Z" fill="#FFB8B8"/>
<path d="M476.718 50.113C478.741 44.374 484.355 40.8923 490.439 41.0279C490.697 41.0336 490.955 41.0312 491.21 41.0207C494.274 40.8954 497.214 39.849 500.219 39.2351C505.818 38.0908 511.722 38.4739 517.126 40.3321C518.806 40.9097 520.488 41.636 522.264 41.6362C524.041 41.6365 525.976 40.6624 526.409 38.9398C526.512 40.4994 526.614 42.059 526.717 43.6186C527.295 42.3563 527.873 41.0939 528.451 39.8316L529.609 44.8657L533.317 40.6584C532.986 42.5128 534.067 44.3819 535.531 45.5675C536.995 46.7531 538.803 47.409 540.536 48.1477C548.015 51.3359 555.038 56.9807 557.194 64.8208C558.555 69.7742 557.843 75.0312 557.121 80.1173C556.484 84.6136 555.79 89.2654 553.346 93.0929C551.779 95.5465 549.521 97.6111 548.567 100.362C547.678 102.925 548.015 105.861 546.75 108.261C545.479 110.673 542.856 112.037 540.29 112.953C537.723 113.87 534.994 114.518 532.783 116.112C530.573 117.707 528.008 122.3 523.191 122.053L521.637 119.133C520.038 117.83 525.956 118.863 526.017 116.801C526.079 114.74 518.897 113.466 519.915 111.672C521.476 108.921 523.588 106.527 525.347 103.898C527.404 100.823 529.022 97.2308 528.312 93.4783C528.036 92.0185 527.353 90.6396 526.312 89.5793C523.312 86.5225 519.967 87.866 516.716 88.3033C514.476 88.6049 511.8 88.2567 510.636 86.3181C509.275 84.0502 510.792 81.165 510.607 78.5265C510.41 75.7308 508.292 73.4383 505.987 71.8444C503.682 70.2505 501.064 69.0893 498.99 67.2041C496.917 65.3188 495.44 62.3736 496.344 59.7208C486.514 55.6284 485.009 55.2413 474.658 57.737C475.151 55.1485 475.842 52.598 476.718 50.113L476.718 50.113Z" fill="#011E41"/>
<path d="M552.246 246.619L553.289 309.597C553.289 309.597 556.621 358.679 564.897 413.913L584.623 415.172C584.623 415.172 582.196 328.93 583.08 306.237L581.685 255.834L552.246 246.619H552.246Z" fill="#FFB8B8"/>
<path d="M572.896 452.951C565.339 452.694 559.564 442.169 559.997 429.443C560.43 416.716 566.906 406.607 574.462 406.864C582.019 407.121 587.794 417.646 587.361 430.373C586.929 443.099 580.452 453.208 572.896 452.951Z" fill="#FFB8B8"/>
<path d="M552.552 166.441L567.747 166.995C567.747 166.995 575.844 169.631 577.841 179.067C579.838 188.503 593.838 286.156 591.415 288.409C588.992 290.662 586.655 290.576 588.907 292.999C591.16 295.422 593.928 295.458 591.311 297.151C588.694 298.844 589.65 304.73 589.65 304.73L547.624 301.753L552.552 166.441V166.441Z" fill="#536375"/>
</svg>
