<svg width="1232" height="709" viewBox="0 0 1232 709" fill="none" xmlns="http://www.w3.org/2000/svg">
<g clip-path="url(#clip0_246_1306)">
<path d="M266.94 629.347C302.326 629.347 331.011 600.616 331.011 565.175C331.011 529.733 302.326 501.002 266.94 501.002C231.555 501.002 202.869 529.733 202.869 565.175C202.869 600.616 231.555 629.347 266.94 629.347Z" fill="#FAFAFA"/>
<path d="M277.358 619.956C312.744 619.956 341.429 591.225 341.429 555.784C341.429 520.342 312.744 491.611 277.358 491.611C241.973 491.611 213.287 520.342 213.287 555.784C213.287 591.225 241.973 619.956 277.358 619.956Z" fill="#11EE77"/>
<path d="M1121.69 484.778H328.957V486.944H1121.69V484.778Z" fill="#536375"/>
<path d="M739.514 20.204H458.143V14.3955H330.559V20.204H48.0287C45.5293 20.204 43.0544 20.697 40.7452 21.655C38.4361 22.613 36.3379 24.0172 34.5706 25.7873C32.8033 27.5574 31.4013 29.6589 30.4449 31.9717C29.4884 34.2845 28.9961 36.7633 28.9961 39.2666V425.158C28.9961 430.214 31.0013 435.063 34.5706 438.638C38.1399 442.213 42.9809 444.221 48.0287 444.221H739.514C744.561 444.221 749.402 442.213 752.972 438.638C756.541 435.063 758.546 430.214 758.546 425.158V39.2666C758.546 36.7633 758.054 34.2845 757.097 31.9717C756.141 29.6589 754.739 27.5574 752.972 25.7873C751.204 24.0172 749.106 22.613 746.797 21.655C744.488 20.697 742.013 20.204 739.514 20.204V20.204Z" fill="#536375"/>
<path d="M733.03 53.8931H54.5137V437.251H733.03V53.8931Z" fill="#11EE77"/>
<path d="M393.192 43.4378C397.035 43.4378 400.151 40.3172 400.151 36.4677C400.151 32.6182 397.035 29.4976 393.192 29.4976C389.348 29.4976 386.232 32.6182 386.232 36.4677C386.232 40.3172 389.348 43.4378 393.192 43.4378Z" fill="#11EE77"/>
<path opacity="0.1" d="M538.986 437.251H54.5137V53.8936L538.986 437.251Z" fill="#011E41"/>
<path d="M160.68 408.564C196.701 408.564 225.901 379.317 225.901 343.24C225.901 307.162 196.701 277.916 160.68 277.916C124.659 277.916 95.459 307.162 95.459 343.24C95.459 379.317 124.659 408.564 160.68 408.564Z" fill="#FAFAFA"/>
<path d="M614.889 260.641H551.508V273.906H614.889V260.641Z" fill="#536375"/>
<path d="M691.513 157.366H474.883V163.051H691.513V157.366Z" fill="#536375"/>
<path d="M691.513 175.368H474.883V181.053H691.513V175.368Z" fill="#536375"/>
<path d="M691.513 193.37H474.883V199.055H691.513V193.37Z" fill="#536375"/>
<path d="M691.513 211.372H474.883V217.057H691.513V211.372Z" fill="#536375"/>
<path d="M691.513 229.374H474.883V235.059H691.513V229.374Z" fill="#536375"/>
<path d="M691.513 61.6704H665.025V88.1998H691.513V61.6704Z" fill="#FAFAFA"/>
<path d="M703.812 100.517H671.648V68.3027H703.812V100.517ZM673.047 99.1165H702.413V69.7034H673.047V99.1165Z" fill="#536375"/>
<path d="M777.598 430.281H711.379V425.502C711.379 425.378 711.355 425.255 711.307 425.14C711.259 425.025 711.19 424.92 711.102 424.832C711.014 424.744 710.91 424.674 710.795 424.627C710.68 424.579 710.557 424.555 710.433 424.555H687.729C687.605 424.555 687.482 424.579 687.367 424.627C687.253 424.674 687.148 424.744 687.06 424.832C686.973 424.92 686.903 425.025 686.855 425.14C686.808 425.255 686.783 425.378 686.783 425.502V430.281H672.594V425.502C672.594 425.378 672.569 425.255 672.522 425.14C672.474 425.025 672.404 424.92 672.317 424.832C672.229 424.744 672.124 424.674 672.01 424.627C671.895 424.579 671.772 424.555 671.648 424.555H648.944C648.82 424.555 648.697 424.579 648.582 424.627C648.467 424.674 648.363 424.744 648.275 424.832C648.187 424.92 648.118 425.025 648.07 425.14C648.023 425.255 647.998 425.378 647.998 425.502V430.281H633.808V425.502C633.808 425.378 633.784 425.255 633.736 425.14C633.689 425.025 633.619 424.92 633.531 424.832C633.443 424.744 633.339 424.674 633.224 424.627C633.11 424.579 632.987 424.555 632.862 424.555H610.159C610.035 424.555 609.912 424.579 609.797 424.627C609.682 424.674 609.578 424.744 609.49 424.832C609.402 424.92 609.332 425.025 609.285 425.14C609.237 425.255 609.213 425.378 609.213 425.502V430.281H595.023V425.502C595.023 425.378 594.999 425.255 594.951 425.14C594.904 425.025 594.834 424.92 594.746 424.832C594.658 424.744 594.554 424.674 594.439 424.627C594.324 424.579 594.201 424.555 594.077 424.555H571.374C571.249 424.555 571.126 424.579 571.011 424.627C570.897 424.674 570.792 424.744 570.705 424.832C570.617 424.92 570.547 425.025 570.5 425.14C570.452 425.255 570.428 425.378 570.428 425.502V430.281H556.238V425.502C556.238 425.378 556.213 425.255 556.166 425.14C556.118 425.025 556.049 424.92 555.961 424.832C555.873 424.744 555.769 424.674 555.654 424.627C555.539 424.579 555.416 424.555 555.292 424.555H532.588C532.464 424.555 532.341 424.579 532.226 424.627C532.111 424.674 532.007 424.744 531.919 424.832C531.831 424.92 531.762 425.025 531.714 425.14C531.667 425.255 531.642 425.378 531.642 425.502V430.281H517.453V425.502C517.453 425.378 517.428 425.255 517.381 425.14C517.333 425.025 517.263 424.92 517.175 424.832C517.088 424.744 516.983 424.674 516.869 424.627C516.754 424.579 516.631 424.555 516.507 424.555H493.803C493.679 424.555 493.556 424.579 493.441 424.627C493.326 424.674 493.222 424.744 493.134 424.832C493.046 424.92 492.977 425.025 492.929 425.14C492.881 425.255 492.857 425.378 492.857 425.502V430.281H478.667V425.502C478.667 425.378 478.643 425.255 478.595 425.14C478.548 425.025 478.478 424.92 478.39 424.832C478.302 424.744 478.198 424.674 478.083 424.627C477.968 424.579 477.845 424.555 477.721 424.555H299.877C299.752 424.555 299.629 424.579 299.514 424.627C299.4 424.674 299.295 424.744 299.208 424.832C299.12 424.92 299.05 425.025 299.003 425.14C298.955 425.255 298.931 425.378 298.931 425.502V430.281H284.741V425.502C284.741 425.378 284.716 425.255 284.669 425.14C284.621 425.025 284.552 424.92 284.464 424.832C284.376 424.744 284.272 424.674 284.157 424.627C284.042 424.579 283.919 424.555 283.795 424.555H261.091C260.967 424.555 260.844 424.579 260.729 424.627C260.614 424.674 260.51 424.744 260.422 424.832C260.334 424.92 260.265 425.025 260.217 425.14C260.17 425.255 260.145 425.378 260.145 425.502V430.281H245.955V425.502C245.955 425.378 245.931 425.255 245.883 425.14C245.836 425.025 245.766 424.92 245.678 424.832C245.591 424.744 245.486 424.674 245.372 424.627C245.257 424.579 245.134 424.555 245.009 424.555H222.306C222.182 424.555 222.059 424.579 221.944 424.627C221.829 424.674 221.725 424.744 221.637 424.832C221.549 424.92 221.479 425.025 221.432 425.14C221.384 425.255 221.36 425.378 221.36 425.502V430.281H207.17V425.502C207.17 425.378 207.146 425.255 207.098 425.14C207.051 425.025 206.981 424.92 206.893 424.832C206.805 424.744 206.701 424.674 206.586 424.627C206.471 424.579 206.348 424.555 206.224 424.555H183.521C183.396 424.555 183.273 424.579 183.159 424.627C183.044 424.674 182.94 424.744 182.852 424.832C182.764 424.92 182.694 425.025 182.647 425.14C182.599 425.255 182.575 425.378 182.575 425.502V430.281H168.385V425.502C168.385 425.378 168.36 425.255 168.313 425.14C168.265 425.025 168.196 424.92 168.108 424.832C168.02 424.744 167.916 424.674 167.801 424.627C167.686 424.579 167.563 424.555 167.439 424.555H144.735C144.611 424.555 144.488 424.579 144.373 424.627C144.259 424.674 144.154 424.744 144.066 424.832C143.979 424.92 143.909 425.025 143.861 425.14C143.814 425.255 143.789 425.378 143.789 425.502V430.281H129.6V425.502C129.6 425.378 129.575 425.255 129.528 425.14C129.48 425.025 129.41 424.92 129.323 424.832C129.235 424.744 129.13 424.674 129.016 424.627C128.901 424.579 128.778 424.555 128.654 424.555H105.95C105.826 424.555 105.703 424.579 105.588 424.627C105.473 424.674 105.369 424.744 105.281 424.832C105.193 424.92 105.124 425.025 105.076 425.14C105.029 425.255 105.004 425.378 105.004 425.502V430.281H90.8143V425.502C90.8143 425.378 90.7899 425.255 90.7423 425.14C90.6948 425.025 90.6251 424.92 90.5373 424.832C90.4494 424.744 90.3451 424.674 90.2304 424.627C90.1156 424.579 89.9926 424.555 89.8684 424.555H67.1648C67.0405 424.555 66.9175 424.579 66.8028 424.627C66.688 424.674 66.5837 424.744 66.4959 424.832C66.408 424.92 66.3383 425.025 66.2908 425.14C66.2432 425.255 66.2188 425.378 66.2188 425.502V430.281H22.7036C16.6822 430.281 10.9075 432.677 6.64973 436.941C2.39199 441.205 5.73656e-06 446.989 0 453.02V463.302C1.72097e-05 469.333 2.392 475.117 6.64975 479.382C10.9075 483.646 16.6822 486.042 22.7036 486.042H777.598C783.619 486.042 789.394 483.646 793.652 479.382C797.909 475.117 800.301 469.333 800.301 463.302V453.02C800.301 446.989 797.909 441.205 793.652 436.941C789.394 432.677 783.619 430.281 777.598 430.281Z" fill="#536375"/>
<path d="M176.469 384.041C160.212 384.041 144.321 379.213 130.804 370.167C117.288 361.121 106.753 348.264 100.532 333.221C94.311 318.179 92.6833 301.626 95.8547 285.657C99.0262 269.688 106.854 255.02 118.349 243.506C129.844 231.993 144.49 224.153 160.433 220.976C176.377 217.8 192.904 219.43 207.922 225.661C222.941 231.892 235.778 242.443 244.81 255.981C253.841 269.519 258.662 285.436 258.662 301.718C258.637 323.543 249.969 344.468 234.561 359.902C219.152 375.335 198.26 384.016 176.469 384.041ZM176.469 221.561C160.64 221.561 145.167 226.262 132.006 235.07C118.845 243.878 108.588 256.396 102.53 271.043C96.473 285.69 94.8882 301.807 97.9762 317.355C101.064 332.904 108.686 347.187 119.879 358.397C131.071 369.607 145.331 377.241 160.855 380.334C176.38 383.427 192.471 381.84 207.095 375.773C221.718 369.706 234.217 359.432 243.011 346.25C251.805 333.069 256.499 317.571 256.499 301.718C256.475 280.466 248.035 260.092 233.032 245.065C218.029 230.038 197.686 221.585 176.469 221.561V221.561Z" fill="#536375"/>
<path d="M909.716 35.251H633.938V37.4174H909.716V35.251Z" fill="#536375"/>
<path d="M1232 607.179H439.27V609.346H1232V607.179Z" fill="#536375"/>
<path d="M484.152 706.833H208.373V709H484.152V706.833Z" fill="#536375"/>
<path d="M539.663 595.759H509.381V626.089H539.663V595.759Z" fill="#11EE77"/>
<path d="M558.048 608.757H521.277V571.929H558.048V608.757ZM522.876 607.156H556.449V573.53H522.876V607.156Z" fill="#536375"/>
<path d="M891.147 23.8306H860.865V54.1601H891.147V23.8306Z" fill="#11EE77"/>
<path d="M909.532 36.8287H872.762V0H909.532V36.8287ZM874.36 35.2275H907.934V1.60125H874.36V35.2275Z" fill="#536375"/>
<path d="M1196.13 595.759H1165.84V626.089H1196.13V595.759Z" fill="#11EE77"/>
<path d="M1214.51 608.757H1177.74V571.929H1214.51V608.757ZM1179.34 607.156H1212.91V573.53H1179.34V607.156Z" fill="#536375"/>
<path d="M1143.32 251.257H1140.75V180.674C1140.75 175.309 1139.69 169.997 1137.64 165.041C1135.59 160.084 1132.59 155.581 1128.8 151.787C1125.01 147.994 1120.52 144.985 1115.57 142.932C1110.62 140.879 1105.32 139.822 1099.96 139.822H950.656C945.3 139.822 939.996 140.879 935.048 142.932C930.099 144.985 925.603 147.994 921.815 151.787C918.028 155.581 915.024 160.084 912.974 165.041C910.924 169.997 909.869 175.309 909.869 180.674V567.897C909.869 573.262 910.924 578.574 912.974 583.53C915.024 588.486 918.028 592.99 921.815 596.783C925.603 600.577 930.099 603.586 935.048 605.639C939.996 607.692 945.3 608.748 950.656 608.748H1099.96C1105.32 608.748 1110.62 607.692 1115.57 605.639C1120.52 603.586 1125.01 600.577 1128.8 596.783C1132.59 592.99 1135.59 588.486 1137.64 583.53C1139.69 578.574 1140.75 573.262 1140.75 567.897V301.499H1143.32V251.257Z" fill="#536375"/>
<path d="M1132.06 183.075V569.733C1132.06 577.824 1128.85 585.585 1123.14 591.307C1117.43 597.03 1109.68 600.245 1101.61 600.247H951.582C943.503 600.245 935.756 597.03 930.045 591.307C924.333 585.585 921.126 577.824 921.127 569.733V183.075C921.128 174.985 924.337 167.227 930.048 161.507C935.759 155.787 943.505 152.573 951.582 152.572H969.783C968.887 154.772 968.546 157.16 968.788 159.524C969.031 161.888 969.85 164.156 971.174 166.128C972.498 168.101 974.285 169.716 976.379 170.834C978.474 171.951 980.81 172.535 983.183 172.535H1068.72C1071.09 172.535 1073.43 171.951 1075.52 170.834C1077.62 169.717 1079.4 168.101 1080.73 166.128C1082.05 164.156 1082.87 161.888 1083.11 159.524C1083.35 157.16 1083.01 154.772 1082.12 152.572H1101.61C1109.68 152.573 1117.43 155.787 1123.14 161.507C1128.85 167.227 1132.06 174.985 1132.06 183.075V183.075Z" fill="#11EE77"/>
<path d="M1048.94 407.518H1004.25V420.783H1048.94V407.518Z" fill="#536375"/>
<path d="M1102.97 304.243H950.219V309.928H1102.97V304.243Z" fill="#536375"/>
<path d="M1102.97 322.245H950.219V327.93H1102.97V322.245Z" fill="#536375"/>
<path d="M1102.97 340.248H950.219V345.932H1102.97V340.248Z" fill="#536375"/>
<path d="M1102.97 358.25H950.219V363.934H1102.97V358.25Z" fill="#536375"/>
<path d="M1102.97 376.251H950.219V381.936H1102.97V376.251Z" fill="#536375"/>
<path d="M1031.93 228.749H1005.44V255.278H1031.93V228.749Z" fill="#FAFAFA"/>
<path d="M1015.58 235.382V267.597H1047.75V235.382H1015.58ZM1046.35 266.199H1016.98V236.78H1046.35V266.199Z" fill="#536375"/>
<path opacity="0.1" d="M1132.06 528.442V569.733C1132.06 577.825 1128.85 585.585 1123.14 591.307C1117.43 597.03 1109.68 600.246 1101.61 600.247H951.582C943.503 600.245 935.756 597.03 930.045 591.307C924.333 585.585 921.126 577.825 921.127 569.733V361.532L1047.52 461.543L1049.68 463.255L1073.2 481.853L1075.39 483.597L1132.06 528.442Z" fill="#011E41"/>
<path d="M1013.62 587.716C1039.82 587.716 1061.06 566.442 1061.06 540.198C1061.06 513.955 1039.82 492.681 1013.62 492.681C987.415 492.681 966.174 513.955 966.174 540.198C966.174 566.442 987.415 587.716 1013.62 587.716Z" fill="#FAFAFA"/>
<path d="M346.261 709C327.652 709 309.461 703.473 293.988 693.118C278.515 682.763 266.455 668.045 259.334 650.825C252.213 633.605 250.349 614.657 253.98 596.377C257.61 578.096 266.571 561.305 279.73 548.125C292.889 534.946 309.654 525.97 327.905 522.334C346.157 518.698 365.075 520.564 382.268 527.697C399.46 534.83 414.155 546.908 424.494 562.406C434.833 577.903 440.351 596.123 440.351 614.762C440.323 639.747 430.401 663.7 412.762 681.367C395.122 699.034 371.207 708.972 346.261 709ZM346.261 522.69C328.08 522.69 310.307 528.09 295.19 538.207C280.073 548.324 268.29 562.703 261.332 579.527C254.375 596.351 252.554 614.864 256.101 632.724C259.648 650.584 268.403 666.99 281.26 679.866C294.116 692.743 310.495 701.512 328.327 705.064C346.159 708.617 364.643 706.794 381.44 699.825C398.238 692.856 412.594 681.055 422.695 665.914C432.797 650.773 438.188 632.972 438.188 614.762C438.16 590.351 428.466 566.948 411.233 549.688C393.999 532.427 370.633 522.717 346.261 522.69V522.69Z" fill="#536375"/>
<path d="M1027.6 576.85C1015.83 576.85 1004.33 573.356 994.553 566.809C984.771 560.263 977.147 550.959 972.645 540.073C968.143 529.187 966.965 517.208 969.26 505.651C971.555 494.095 977.22 483.479 985.539 475.147C993.858 466.816 1004.46 461.142 1015.99 458.843C1027.53 456.544 1039.49 457.724 1050.36 462.233C1061.23 466.742 1070.52 474.378 1077.06 484.175C1083.59 493.973 1087.08 505.491 1087.08 517.274C1087.06 533.069 1080.79 548.212 1069.64 559.381C1058.49 570.549 1043.37 576.832 1027.6 576.85V576.85ZM1027.6 459.864C1016.26 459.864 1005.18 463.231 995.754 469.54C986.328 475.848 978.982 484.814 974.643 495.304C970.305 505.794 969.17 517.338 971.382 528.474C973.593 539.61 979.052 549.84 987.068 557.869C995.085 565.897 1005.3 571.365 1016.42 573.58C1027.54 575.795 1039.06 574.659 1049.53 570.313C1060.01 565.968 1068.96 558.61 1075.26 549.169C1081.56 539.728 1084.92 528.628 1084.92 517.274C1084.9 502.053 1078.86 487.461 1068.11 476.698C1057.37 465.935 1042.8 459.881 1027.6 459.864Z" fill="#536375"/>
</g>
<defs>
<clipPath id="clip0_246_1306">
<rect width="1232" height="709" fill="white"/>
</clipPath>
</defs>
</svg>
