<svg width="1232" height="748" viewBox="0 0 1232 748" fill="none" xmlns="http://www.w3.org/2000/svg">
<path d="M319.496 747.448C495.949 747.448 638.992 740.794 638.992 732.587C638.992 724.379 495.949 717.725 319.496 717.725C143.043 717.725 0 724.379 0 732.587C0 740.794 143.043 747.448 319.496 747.448Z" fill="#CED3DC"/>
<path d="M595.19 0C592.029 0.00354008 588.998 1.32306 586.762 3.669C584.526 6.01494 583.269 9.1957 583.266 12.5134V476.417C583.269 479.735 584.526 482.916 586.762 485.262C588.997 487.609 592.029 488.928 595.19 488.932H1220.07C1223.24 488.928 1226.27 487.609 1228.5 485.262C1230.74 482.916 1232 479.735 1232 476.417V12.5134C1232 9.1957 1230.74 6.01495 1228.5 3.669C1226.27 1.32306 1223.24 0.00353614 1220.07 0H595.19Z" fill="#CED3DC"/>
<path d="M596.656 459.071C596.656 467.355 603.372 474.071 611.656 474.071H1203.61C1211.89 474.071 1218.61 467.355 1218.61 459.071V28.375C1218.61 20.0907 1211.89 13.375 1203.61 13.375H611.656C603.372 13.375 596.656 20.0907 596.656 28.375V459.071Z" fill="#FAFAFA"/>
<path d="M473.142 506.097C469.134 506.098 465.249 507.472 462.134 509.991C459.02 512.509 456.865 516.019 456.029 519.933H480.433V581.103H456.029C456.93 585.327 459.364 589.068 462.862 591.605C466.361 594.142 470.676 595.295 474.976 594.843C479.275 594.391 483.255 592.364 486.147 589.155C489.04 585.946 490.64 581.78 490.64 577.462V523.574C490.64 521.279 490.187 519.006 489.308 516.886C488.429 514.765 487.14 512.839 485.515 511.216C483.89 509.593 481.961 508.306 479.838 507.427C477.715 506.549 475.44 506.097 473.142 506.097V506.097Z" fill="#21364E"/>
<path d="M276.395 399.049C268.054 399.059 260.057 402.372 254.159 408.263C248.261 414.154 244.943 422.141 244.934 430.472V672.02C244.943 680.351 248.261 688.338 254.159 694.229C260.057 700.12 268.054 703.434 276.395 703.443H429.286C437.627 703.434 445.624 700.12 451.522 694.229C457.42 688.338 460.738 680.351 460.747 672.02V430.472C460.738 422.141 457.42 414.154 451.522 408.263C445.624 402.372 437.627 399.059 429.286 399.049H276.395Z" fill="#21364E"/>
<path d="M260.245 731.843C269.104 731.843 276.285 724.671 276.285 715.823C276.285 706.975 269.104 699.802 260.245 699.802C251.387 699.802 244.205 706.975 244.205 715.823C244.205 724.671 251.387 731.843 260.245 731.843Z" fill="#21364E"/>
<path d="M439.603 731.843C448.461 731.843 455.643 724.671 455.643 715.823C455.643 706.975 448.461 699.802 439.603 699.802C430.744 699.802 423.562 706.975 423.562 715.823C423.562 724.671 430.744 731.843 439.603 731.843Z" fill="#21364E"/>
<path d="M280.659 396.865H271.91V704.171H280.659V396.865Z" fill="#536375"/>
<path d="M305.448 396.865H296.699V704.171H305.448V396.865Z" fill="#536375"/>
<path d="M330.237 396.865H321.488V704.171H330.237V396.865Z" fill="#536375"/>
<path d="M355.028 396.865H346.279V704.171H355.028V396.865Z" fill="#536375"/>
<path d="M379.818 396.865H371.068V704.171H379.818V396.865Z" fill="#536375"/>
<path d="M404.607 396.865H395.857V704.171H404.607V396.865Z" fill="#536375"/>
<path d="M429.398 396.865H420.648V704.171H429.398V396.865Z" fill="#536375"/>
<path d="M427.046 373.562C432.764 363.85 435.778 352.787 435.777 341.521H280.843C280.842 352.787 283.856 363.85 289.573 373.562H258.059C258.059 390.454 272.34 404.147 289.957 404.147H328.994C335.552 406.085 342.356 407.066 349.196 407.06H367.424C374.263 407.066 381.067 406.085 387.626 404.147H426.663C444.28 404.147 458.561 390.454 458.561 373.562H427.046Z" fill="#011E41"/>
<path d="M312.599 594.211C312.887 597.316 312.226 600.435 310.703 603.158C309.18 605.88 306.867 608.077 304.068 609.46L303.99 609.503C289.406 617.811 277.473 624.334 263.31 623.132C261.883 623.006 260.504 622.552 259.282 621.807C258.059 621.061 257.025 620.043 256.26 618.833C255.496 617.623 255.021 616.253 254.874 614.829C254.726 613.406 254.91 611.968 255.41 610.627L275.555 572.364C287.257 558.747 295.504 558.734 309.823 570.18L312.599 594.211Z" fill="#011E41"/>
<path d="M395.999 594.211C395.712 597.316 396.373 600.435 397.896 603.158C399.418 605.88 401.732 608.077 404.53 609.46L404.608 609.503C419.192 617.811 431.125 624.334 445.288 623.132C446.715 623.006 448.094 622.552 449.317 621.807C450.54 621.061 451.574 620.043 452.338 618.833C453.103 617.623 453.577 616.253 453.725 614.829C453.872 613.406 453.689 611.968 453.188 610.627L433.043 572.364C421.341 558.747 413.095 558.734 398.776 570.18L395.999 594.211Z" fill="#011E41"/>
<path d="M337.451 143.446H281.396C278.856 143.45 276.383 142.637 274.343 141.127C272.302 139.617 270.803 137.491 270.068 135.064C268.342 129.318 266.113 123.743 266.078 118.687C265.94 99.0635 266.917 86.573 275.556 78.635C304.342 56.8344 325.199 60.8445 344.821 83.7325C351.709 96.5194 349.941 115.603 346.215 136.111C345.846 138.166 344.767 140.026 343.165 141.366C341.563 142.707 339.541 143.443 337.451 143.446Z" fill="#011E41"/>
<path d="M308.364 168.205C329.303 168.205 346.278 151.251 346.278 130.338C346.278 109.424 329.303 92.4707 308.364 92.4707C287.425 92.4707 270.451 109.424 270.451 130.338C270.451 151.251 287.425 168.205 308.364 168.205Z" fill="#FFB8B8"/>
<path d="M337.528 206.073L285.033 207.53L280.658 150.729L331.695 149.272L337.528 206.073Z" fill="#FFB8B8"/>
<path d="M426.48 341.52L390.256 358.267C384.187 372.647 375.82 372.233 365.235 357.541C355.132 375.212 333.373 364.623 322.742 356.904C315.889 353.416 308.31 351.59 300.618 351.574C292.927 351.558 285.34 353.353 278.472 356.813L239.83 185.682C251.741 175.455 267.613 169.03 282.847 164.564L312.74 201.703L333.155 165.292C347.344 153.898 367.274 153.877 388.566 156.554L400.999 222.938C392.799 275.303 405.129 301.568 426.48 341.52Z" fill="#11EE77"/>
<path d="M306.907 567.267L276.284 570.18L230.92 369.93C229.889 365.292 229.913 360.483 230.991 355.856C232.069 351.229 234.174 346.904 237.15 343.198C240.126 339.493 243.898 336.502 248.186 334.447C252.474 332.392 257.169 331.325 261.925 331.325V331.325C266.448 331.325 270.918 332.29 275.037 334.154C279.155 336.019 282.828 338.74 285.809 342.137C288.79 345.533 291.011 349.526 292.322 353.849C293.633 358.171 294.005 362.724 293.413 367.202L287.95 408.516L306.907 567.267Z" fill="#011E41"/>
<path d="M398.773 570.18L429.396 568.723L474.76 369.93C475.792 365.292 475.767 360.483 474.689 355.856C473.611 351.229 471.506 346.904 468.53 343.198C465.554 339.493 461.783 336.502 457.495 334.447C453.206 332.392 448.511 331.325 443.755 331.325V331.325C439.233 331.325 434.763 332.29 430.644 334.154C426.525 336.019 422.852 338.74 419.871 342.137C416.89 345.533 414.67 349.526 413.358 353.849C412.047 358.171 411.675 362.724 412.267 367.202L417.73 408.516L398.773 570.18Z" fill="#011E41"/>
<path d="M498.308 282.797L472.414 349.531C458.257 338.72 446.843 337.244 431.139 342.977C426.797 342.375 423.564 332.841 423.564 328.463C423.564 326.205 424.436 324.034 425.997 322.402C427.559 320.77 429.691 319.802 431.949 319.699L455.645 318.624C459.981 307.286 462.616 295.37 463.464 283.263C474.834 280.041 486.855 279.88 498.308 282.797V282.797Z" fill="#FFB8B8"/>
<path d="M500.849 284.719L507.162 261.193C509.918 252.589 509.648 243.302 506.394 234.872C503.141 226.443 497.1 219.377 489.274 214.847L388.568 156.554L387.109 220.637L461.478 252.678C463.532 263.581 464.199 274.7 463.464 285.77C475.064 282.326 489.22 281.595 500.849 284.719Z" fill="#11EE77"/>
<path d="M345.55 109.22L306.178 116.502C302.54 116.502 298.937 115.786 295.576 114.396C292.214 113.005 289.16 110.967 286.587 108.397C284.015 105.828 281.974 102.777 280.582 99.4197C279.189 96.0624 278.473 92.464 278.473 88.8301H347.008L345.55 109.22Z" fill="#011E41"/>
<path d="M273.368 123.784C275.382 123.784 277.014 120.524 277.014 116.502C277.014 112.481 275.382 109.22 273.368 109.22C271.355 109.22 269.723 112.481 269.723 116.502C269.723 120.524 271.355 123.784 273.368 123.784Z" fill="#FFB8B8"/>
<path d="M393.669 232.407H393.246V220.821C393.246 219.94 393.072 219.068 392.735 218.254C392.398 217.441 391.903 216.702 391.279 216.079C390.656 215.456 389.916 214.962 389.101 214.625C388.287 214.288 387.414 214.115 386.532 214.115H361.954C361.073 214.115 360.2 214.288 359.385 214.625C358.57 214.962 357.83 215.456 357.207 216.079C356.583 216.702 356.089 217.441 355.751 218.254C355.414 219.068 355.24 219.94 355.24 220.821V284.385C355.24 285.266 355.414 286.138 355.751 286.952C356.089 287.765 356.583 288.505 357.207 289.127C357.83 289.75 358.57 290.244 359.385 290.581C360.2 290.918 361.073 291.091 361.954 291.091H386.532C387.414 291.091 388.287 290.918 389.101 290.581C389.916 290.244 390.656 289.75 391.279 289.127C391.903 288.505 392.398 287.765 392.735 286.952C393.072 286.138 393.246 285.266 393.246 284.385V240.655H393.669V232.407Z" fill="#EDEDED"/>
<path d="M373.255 238.842C376.476 238.842 379.087 236.234 379.087 233.016C379.087 229.799 376.476 227.19 373.255 227.19C370.033 227.19 367.422 229.799 367.422 233.016C367.422 236.234 370.033 238.842 373.255 238.842Z" fill="#11EE77"/>
<path d="M368.151 286.176C338.156 309.694 308.082 329.268 285.763 332.053L282.117 292.002C303.554 288.915 332.215 274.81 362.318 258.504L377.041 250.857C379.416 249.624 382.059 248.998 384.735 249.035C387.411 249.072 390.035 249.771 392.375 251.069C394.714 252.368 396.694 254.225 398.139 256.475C399.583 258.725 400.446 261.298 400.652 263.963V263.963C400.943 267.742 399.895 271.504 397.692 274.59C395.488 277.677 392.269 279.892 388.597 280.849L368.151 286.176Z" fill="#FFB8B8"/>
<path d="M311.281 332.782L251.495 334.238C231.378 294.821 224.077 252.758 228.164 208.346C228.164 203.6 229.316 198.925 231.521 194.721C233.727 190.517 236.919 186.91 240.826 184.209L247.121 179.856C274.034 219.76 290.727 256.815 285.034 287.632L302.532 286.176C291.2 301.451 296.446 317.029 311.281 332.782Z" fill="#11EE77"/>
<path d="M52.5938 504.784C52.5938 504.784 55.6827 438.429 119.005 446.141Z" fill="#CED3DC"/>
<path d="M51.8492 729.63C51.7699 728.936 44.2959 659.792 74.5588 623.2C85.7276 609.695 100.694 602.131 119.04 600.722L119.242 603.329C101.633 604.682 87.2792 611.926 76.5806 624.859C47.0258 660.59 54.3721 728.651 54.4487 729.334L51.8492 729.63Z" fill="#CED3DC"/>
<path d="M51.9271 436.938H49.293V727.653H51.9271V436.938Z" fill="#CED3DC"/>
<path d="M50.9778 440.265C62.9195 440.265 72.6002 430.596 72.6002 418.668C72.6002 406.741 62.9195 397.072 50.9778 397.072C39.0361 397.072 29.3555 406.741 29.3555 418.668C29.3555 430.596 39.0361 440.265 50.9778 440.265Z" fill="#11EE77"/>
<path d="M119.142 623.485C131.008 623.485 140.627 613.877 140.627 602.025C140.627 590.173 131.008 580.566 119.142 580.566C107.276 580.566 97.6562 590.173 97.6562 602.025C97.6562 613.877 107.276 623.485 119.142 623.485Z" fill="#CED3DC"/>
<path d="M688.538 105.813C681.436 105.813 674.493 107.917 668.588 111.858C662.683 115.799 658.08 121.4 655.362 127.954C652.644 134.508 651.933 141.719 653.319 148.676C654.704 155.634 658.125 162.024 663.147 167.04C668.169 172.056 674.567 175.472 681.533 176.856C688.498 178.24 695.719 177.529 702.28 174.815C708.842 172.1 714.45 167.503 718.396 161.605C722.342 155.707 724.448 148.773 724.448 141.679C724.448 136.969 723.519 132.305 721.714 127.954C719.909 123.602 717.264 119.649 713.93 116.318C710.595 112.988 706.637 110.346 702.28 108.544C697.923 106.741 693.254 105.813 688.538 105.813V105.813ZM705.08 145.175C704.71 145.175 703.478 145.164 703.118 145.142L696.041 144.957C696.005 144.956 695.968 144.965 695.936 144.982C695.903 144.999 695.876 145.024 695.856 145.055L685.236 160.912C685.078 161.159 684.861 161.363 684.604 161.504C684.346 161.645 684.057 161.718 683.764 161.717H681.18C680.569 161.717 680.362 161.108 680.58 160.541L686.043 144.979C686.055 144.947 686.06 144.912 686.056 144.877C686.052 144.843 686.04 144.81 686.021 144.781C686.002 144.752 685.976 144.728 685.945 144.712C685.915 144.695 685.881 144.686 685.846 144.685L672.577 144.391C672.439 144.388 672.302 144.417 672.177 144.475C672.052 144.534 671.943 144.62 671.857 144.728L667.746 149.705C667.582 149.912 667.373 150.079 667.135 150.194C666.897 150.309 666.637 150.369 666.373 150.37H664.552C664.482 150.37 664.413 150.354 664.351 150.323C664.289 150.291 664.235 150.245 664.194 150.189C664.154 150.132 664.127 150.066 664.117 149.997C664.107 149.929 664.114 149.858 664.137 149.792L666.307 142.311C666.471 141.894 666.471 141.431 666.307 141.015L664.137 133.533C664.114 133.467 664.107 133.397 664.117 133.328C664.127 133.259 664.154 133.193 664.194 133.137C664.235 133.08 664.289 133.034 664.351 133.003C664.413 132.971 664.482 132.955 664.552 132.956H666.383C666.648 132.954 666.909 133.013 667.148 133.129C667.386 133.244 667.594 133.412 667.757 133.62L671.792 138.521C671.877 138.63 671.986 138.717 672.111 138.776C672.236 138.834 672.373 138.863 672.511 138.858L685.857 138.662C685.892 138.662 685.927 138.654 685.957 138.637C685.988 138.62 686.014 138.597 686.034 138.568C686.053 138.539 686.065 138.505 686.069 138.47C686.072 138.436 686.067 138.401 686.054 138.368L680.591 122.817C680.373 122.251 680.58 121.641 681.191 121.641H683.775C684.068 121.641 684.357 121.715 684.614 121.856C684.871 121.997 685.089 122.2 685.247 122.447L695.856 138.314C695.875 138.346 695.902 138.372 695.935 138.389C695.968 138.406 696.004 138.414 696.041 138.412L703.118 138.227C703.467 138.205 704.71 138.194 705.08 138.194C709.922 138.194 712.964 139.762 712.964 141.69C712.964 143.617 709.911 145.175 705.08 145.175Z" fill="#21364E"/>
<path d="M779.664 139.994H770.736V142.966H779.664V139.994Z" fill="#21364E"/>
<path d="M1054.94 142.667H1039.79V139.695H1054.94V142.667ZM1024.65 142.667H1009.51V139.695H1024.65L1024.65 142.667ZM994.369 142.667H979.226V139.695H994.369V142.667ZM964.085 142.667H948.943V139.695H964.085V142.667ZM933.802 142.667H918.659V139.695H933.802V142.667ZM903.518 142.667H888.376V139.695H903.518V142.667ZM873.235 142.667H858.092V139.695H873.235V142.667ZM842.951 142.667H827.809V139.695H842.951V142.667ZM812.668 142.667H797.525V139.695H812.668V142.667Z" fill="#21364E"/>
<path d="M1080.22 139.994H1071.3V142.966H1080.22V139.994Z" fill="#21364E"/>
<path d="M779.664 242.536H770.736V245.508H779.664V242.536Z" fill="#21364E"/>
<path d="M1054.94 245.209H1039.79V242.237H1054.94V245.209ZM1024.65 245.209H1009.51V242.237H1024.65L1024.65 245.209ZM994.369 245.209H979.226V242.237H994.369V245.209ZM964.085 245.209H948.943V242.237H964.085V245.209ZM933.802 245.209H918.659V242.237H933.802V245.209ZM903.518 245.209H888.376V242.237H903.518V245.209ZM873.235 245.209H858.092V242.237H873.235V245.209ZM842.951 245.209H827.809V242.237H842.951V245.209ZM812.668 245.209H797.525V242.237H812.668V245.209Z" fill="#21364E"/>
<path d="M1080.22 242.536H1071.3V245.508H1080.22V242.536Z" fill="#21364E"/>
<path d="M779.664 345.078H770.736V348.05H779.664V345.078Z" fill="#21364E"/>
<path d="M1054.94 347.751H1039.79V344.779H1054.94V347.751ZM1024.65 347.751H1009.51V344.779H1024.65L1024.65 347.751ZM994.369 347.751H979.226V344.779H994.369V347.751ZM964.085 347.751H948.943V344.779H964.085V347.751ZM933.802 347.751H918.659V344.779H933.802V347.751ZM903.518 347.751H888.376V344.779H903.518V347.751ZM873.235 347.751H858.092V344.779H873.235V347.751ZM842.951 347.751H827.809V344.779H842.951V347.751ZM812.668 347.751H797.525V344.779H812.668V347.751Z" fill="#21364E"/>
<path d="M1080.22 345.078H1071.3V348.05H1080.22V345.078Z" fill="#21364E"/>
<path d="M687.894 209.841C681.03 209.841 674.321 211.874 668.614 215.683C662.907 219.491 658.46 224.904 655.833 231.238C653.206 237.571 652.519 244.54 653.858 251.264C655.197 257.987 658.502 264.163 663.356 269.01C668.209 273.858 674.392 277.159 681.124 278.496C687.856 279.834 694.833 279.147 701.174 276.524C707.515 273.9 712.935 269.458 716.748 263.758C720.561 258.058 722.597 251.357 722.597 244.502C722.597 235.309 718.94 226.493 712.432 219.993C705.924 213.493 697.098 209.841 687.894 209.841V209.841ZM671.667 243.323L673.584 233.135C674.08 230.367 675.365 228.189 677.778 228.189H681.403L681.614 227.357C681.798 226.632 682.22 225.989 682.811 225.53C683.403 225.07 684.131 224.821 684.88 224.821H690.887C691.634 224.821 692.361 225.069 692.952 225.526C693.544 225.983 693.966 226.624 694.153 227.347L694.364 228.189H698.01C700.37 228.189 701.624 230.325 702.214 233.125V233.135L704.142 243.334C704.158 243.41 704.152 243.489 704.125 243.561C704.098 243.634 704.051 243.698 703.99 243.746C703.929 243.794 703.856 243.824 703.778 243.833C703.701 243.842 703.623 243.83 703.552 243.797L700.876 242.565C700.813 242.539 700.757 242.497 700.715 242.444C700.673 242.391 700.645 242.327 700.634 242.26L698.927 233.251C698.61 232.093 698.168 231.567 697.23 231.567H678.568C677.641 231.567 677.135 232.125 676.872 233.251L675.165 242.26C675.152 242.327 675.123 242.389 675.081 242.442C675.039 242.495 674.985 242.537 674.923 242.565L672.257 243.786C672.186 243.818 672.108 243.83 672.032 243.821C671.955 243.811 671.882 243.781 671.821 243.733C671.76 243.686 671.714 243.622 671.686 243.55C671.659 243.477 671.652 243.399 671.667 243.323L671.667 243.323ZM708.831 249.88L703.068 264.182C700.903 263.966 698.837 263.166 697.093 261.867C694.44 262.991 691.614 263.653 688.737 263.825C688.442 263.835 688.157 263.846 687.894 263.846C687.631 263.846 687.346 263.846 687.051 263.825C684.175 263.648 681.35 262.986 678.695 261.867C676.951 263.166 674.885 263.966 672.72 264.182L666.957 249.88C666.868 249.655 666.821 249.416 666.82 249.175C666.82 248.811 666.924 248.456 667.12 248.15C667.316 247.844 667.596 247.601 667.926 247.449L687.536 238.45C687.646 238.398 687.767 238.371 687.889 238.371C688.011 238.371 688.131 238.398 688.242 238.45L707.862 247.449C708.192 247.601 708.472 247.844 708.668 248.15C708.864 248.456 708.968 248.811 708.968 249.175C708.967 249.416 708.92 249.655 708.831 249.88V249.88Z" fill="#21364E"/>
<path d="M700.401 338.232H689.963C689.85 338.232 689.742 338.277 689.662 338.357C689.582 338.437 689.537 338.545 689.537 338.657V353.551C689.537 353.664 689.582 353.772 689.662 353.851C689.742 353.931 689.85 353.976 689.963 353.976H700.401C700.853 353.975 701.285 353.795 701.605 353.476C701.924 353.157 702.104 352.725 702.105 352.274V339.934C702.104 339.483 701.924 339.051 701.605 338.732C701.285 338.413 700.853 338.233 700.401 338.232Z" fill="#21364E"/>
<path d="M698.059 357.168C697.398 357.22 696.784 357.525 696.344 358.02C695.904 358.515 695.673 359.161 695.699 359.822C695.725 360.483 696.007 361.109 696.484 361.567C696.962 362.026 697.599 362.282 698.261 362.282C698.924 362.282 699.561 362.026 700.038 361.567C700.516 361.109 700.797 360.483 700.824 359.822C700.85 359.161 700.619 358.515 700.179 358.02C699.739 357.525 699.124 357.22 698.464 357.168C698.329 357.157 698.194 357.157 698.059 357.168Z" fill="#21364E"/>
<path d="M677.619 357.168C676.959 357.22 676.344 357.525 675.905 358.02C675.465 358.515 675.234 359.161 675.26 359.822C675.286 360.483 675.567 361.109 676.045 361.567C676.523 362.026 677.159 362.282 677.822 362.282C678.485 362.282 679.121 362.026 679.599 361.567C680.077 361.109 680.358 360.483 680.384 359.822C680.41 359.161 680.179 358.515 679.739 358.02C679.299 357.525 678.685 357.22 678.024 357.168C677.89 357.157 677.754 357.157 677.619 357.168V357.168Z" fill="#21364E"/>
<path d="M686.129 338.232H675.712C675.255 338.234 674.817 338.416 674.494 338.739C674.17 339.061 673.988 339.499 673.986 339.955V352.253C673.988 352.709 674.17 353.147 674.494 353.47C674.817 353.792 675.255 353.975 675.712 353.976H686.128C686.241 353.976 686.35 353.931 686.429 353.851C686.509 353.772 686.554 353.664 686.554 353.551V338.657C686.554 338.545 686.509 338.437 686.429 338.357C686.35 338.277 686.241 338.232 686.129 338.232V338.232Z" fill="#21364E"/>
<path d="M688.046 312.558C681.109 312.558 674.327 314.612 668.558 318.462C662.79 322.312 658.294 327.783 655.639 334.185C652.984 340.587 652.289 347.631 653.643 354.427C654.996 361.224 658.337 367.466 663.243 372.366C668.148 377.266 674.399 380.602 681.203 381.954C688.007 383.306 695.06 382.612 701.47 379.961C707.879 377.309 713.358 372.818 717.212 367.057C721.066 361.295 723.124 354.522 723.124 347.593C723.124 338.301 719.428 329.389 712.85 322.819C706.271 316.249 697.349 312.558 688.046 312.558V312.558ZM705.088 361.848C705.085 362.975 704.635 364.056 703.836 364.853C703.038 365.65 701.956 366.1 700.828 366.103H675.265C674.136 366.1 673.054 365.65 672.256 364.853C671.458 364.056 671.008 362.975 671.005 361.848V332.486C671.007 331.584 671.367 330.72 672.006 330.082C672.644 329.444 673.51 329.085 674.413 329.082H701.68C702.583 329.085 703.448 329.444 704.087 330.082C704.725 330.72 705.085 331.584 705.088 332.486V361.848Z" fill="#21364E"/>
<path d="M700.507 332.062H675.584C675.379 332.048 675.174 332.076 674.981 332.145C674.788 332.213 674.611 332.32 674.461 332.46C674.311 332.6 674.192 332.769 674.11 332.956C674.029 333.144 673.986 333.347 673.986 333.551C673.986 333.756 674.029 333.959 674.11 334.146C674.192 334.334 674.311 334.503 674.461 334.643C674.611 334.783 674.788 334.89 674.981 334.958C675.174 335.027 675.379 335.055 675.584 335.041H700.507C700.712 335.055 700.917 335.027 701.11 334.958C701.303 334.89 701.48 334.783 701.63 334.643C701.78 334.503 701.9 334.334 701.981 334.146C702.063 333.959 702.105 333.756 702.105 333.551C702.105 333.347 702.063 333.144 701.981 332.956C701.9 332.769 701.78 332.6 701.63 332.46C701.48 332.32 701.303 332.213 701.11 332.145C700.917 332.076 700.712 332.048 700.507 332.062Z" fill="#21364E"/>
<path d="M1132.3 163.772C1127.89 163.772 1123.57 162.465 1119.9 160.015C1116.23 157.566 1113.37 154.084 1111.68 150.011C1109.99 145.938 1109.55 141.456 1110.41 137.131C1111.27 132.807 1113.4 128.835 1116.52 125.718C1119.64 122.6 1123.62 120.477 1127.95 119.617C1132.28 118.757 1136.77 119.198 1140.84 120.885C1144.92 122.573 1148.41 125.43 1150.86 129.096C1153.31 132.761 1154.62 137.071 1154.62 141.48C1154.62 147.39 1152.26 153.057 1148.08 157.236C1143.89 161.415 1138.22 163.765 1132.3 163.772ZM1132.3 122.161C1128.48 122.161 1124.74 123.294 1121.56 125.417C1118.38 127.54 1115.9 130.557 1114.43 134.087C1112.97 137.617 1112.59 141.502 1113.33 145.249C1114.08 148.997 1115.92 152.439 1118.63 155.141C1121.33 157.843 1124.78 159.683 1128.53 160.429C1132.28 161.174 1136.17 160.791 1139.71 159.329C1143.24 157.867 1146.26 155.391 1148.39 152.214C1150.51 149.037 1151.65 145.301 1151.65 141.48C1151.64 136.358 1149.6 131.448 1145.97 127.826C1142.35 124.204 1137.43 122.167 1132.3 122.161V122.161Z" fill="#00D060"/>
<path d="M1140.79 135.1L1138.69 132.999L1132.3 139.378L1125.91 132.999L1123.81 135.1L1130.2 141.48L1123.81 147.86L1125.91 149.961L1132.3 143.581L1138.69 149.961L1140.79 147.86L1134.41 141.48L1140.79 135.1Z" fill="#00D060"/>
<path d="M1132.3 266.314C1127.89 266.314 1123.57 265.007 1119.9 262.557C1116.23 260.108 1113.37 256.626 1111.68 252.553C1109.99 248.48 1109.55 243.998 1110.41 239.673C1111.27 235.349 1113.4 231.377 1116.52 228.26C1119.64 225.142 1123.62 223.019 1127.95 222.159C1132.28 221.299 1136.77 221.74 1140.84 223.427C1144.92 225.115 1148.41 227.972 1150.86 231.638C1153.31 235.303 1154.62 239.613 1154.62 244.022C1154.62 249.932 1152.26 255.599 1148.08 259.778C1143.89 263.957 1138.22 266.307 1132.3 266.314ZM1132.3 224.703C1128.48 224.703 1124.74 225.836 1121.56 227.959C1118.38 230.082 1115.9 233.099 1114.43 236.629C1112.97 240.159 1112.59 244.044 1113.33 247.791C1114.08 251.539 1115.92 254.981 1118.63 257.683C1121.33 260.385 1124.78 262.225 1128.53 262.971C1132.28 263.716 1136.17 263.333 1139.71 261.871C1143.24 260.409 1146.26 257.933 1148.39 254.756C1150.51 251.579 1151.65 247.843 1151.65 244.022C1151.64 238.9 1149.6 233.99 1145.97 230.368C1142.35 226.746 1137.43 224.709 1132.3 224.703V224.703Z" fill="#00D060"/>
<path d="M1140.79 237.642L1138.69 235.541L1132.3 241.92L1125.91 235.541L1123.81 237.642L1130.2 244.022L1123.81 250.402L1125.91 252.503L1132.3 246.123L1138.69 252.503L1140.79 250.402L1134.41 244.022L1140.79 237.642Z" fill="#00D060"/>
<path d="M1132.3 368.856C1127.89 368.856 1123.57 367.549 1119.9 365.099C1116.23 362.65 1113.37 359.168 1111.68 355.095C1109.99 351.022 1109.55 346.54 1110.41 342.215C1111.27 337.891 1113.4 333.919 1116.52 330.802C1119.64 327.684 1123.62 325.561 1127.95 324.701C1132.28 323.841 1136.77 324.282 1140.84 325.969C1144.92 327.657 1148.41 330.514 1150.86 334.18C1153.31 337.845 1154.62 342.155 1154.62 346.564C1154.62 352.474 1152.26 358.141 1148.08 362.32C1143.89 366.499 1138.22 368.85 1132.3 368.856V368.856ZM1132.3 327.245C1128.48 327.245 1124.74 328.378 1121.56 330.501C1118.38 332.623 1115.9 335.641 1114.43 339.171C1112.97 342.701 1112.59 346.586 1113.33 350.333C1114.08 354.081 1115.92 357.523 1118.63 360.225C1121.33 362.927 1124.78 364.767 1128.53 365.513C1132.28 366.258 1136.17 365.875 1139.71 364.413C1143.24 362.951 1146.26 360.475 1148.39 357.298C1150.51 354.121 1151.65 350.385 1151.65 346.564C1151.64 341.442 1149.6 336.532 1145.97 332.91C1142.35 329.288 1137.43 327.251 1132.3 327.245V327.245Z" fill="#00D060"/>
<path d="M1140.79 340.184L1138.69 338.083L1132.3 344.462L1125.91 338.083L1123.81 340.184L1130.2 346.564L1123.81 352.944L1125.91 355.045L1132.3 348.665L1138.69 355.045L1140.79 352.944L1134.41 346.564L1140.79 340.184Z" fill="#00D060"/>
</svg>
