<svg width="1025" height="745" viewBox="0 0 1025 745" fill="none" xmlns="http://www.w3.org/2000/svg">
<g clip-path="url(#clip0_139_8)">
<path d="M597.061 131.335C616.271 131.335 631.844 115.772 631.844 96.5741C631.844 77.3764 616.271 61.8135 597.061 61.8135C577.851 61.8135 562.277 77.3764 562.277 96.5741C562.277 115.772 577.851 131.335 597.061 131.335Z" fill="#CED3DC"/>
<path d="M866.887 647.223C918.588 607.869 943.282 541.739 927.823 478.655C927.439 477.087 927.033 475.523 926.606 473.963C916.357 436.517 891.001 400.928 854.045 388.963C823.015 378.916 789.145 386.642 756.773 382.647C693.225 374.804 643.957 323.42 609.291 269.62C574.625 215.82 547.983 155.599 501.92 111.152C425.991 37.8896 302.133 22.1161 207.993 69.8046C113.853 117.493 53.8865 223.294 56.4439 328.739C59.0014 434.183 121.64 534.995 212.606 588.482C246.024 608.131 284.674 622.051 323.139 617.18C356.515 612.953 386.841 595.032 420.059 589.711C472.287 581.346 524.181 604.944 569.354 632.443C614.526 659.942 658.16 692.537 709.492 705.285C759.336 717.664 821.087 682.084 866.887 647.223Z" fill="#CED3DC"/>
<path d="M792.604 72.0188C791.471 71.2637 790.324 70.5477 789.191 69.8187C756.429 48.8792 721.314 31.8683 684.57 19.1372L676.05 136.591H622.04V1.99172C618.64 1.28872 615.214 0.624771 611.787 -0.00012207V136.591H547.603C512.268 136.591 478.381 122.564 453.396 97.595C428.411 72.6262 414.374 38.7612 414.374 3.44996V3.44984C410.935 4.1919 407.522 4.98604 404.109 5.83225V136.591H351.831L343.715 24.592C305.956 39.0639 270.108 58.0951 236.971 81.2621C236.398 81.6526 235.825 82.0562 235.265 82.4467C232.386 84.4646 229.546 86.5216 226.719 88.6046V536.692H380.791L378.068 499.003L363.087 292.072H664.782L649.801 499.003L647.078 536.692H799.443V76.5493C797.176 75.0132 794.897 73.503 792.604 72.0188ZM404.109 257.898H360.612L352.574 146.85H404.109V257.898ZM611.788 257.898H538.731V255.698C538.731 254.641 538.523 253.593 538.117 252.616C537.712 251.639 537.118 250.752 536.369 250.005C535.62 249.257 534.731 248.665 533.753 248.261C532.774 247.858 531.726 247.651 530.668 247.653H498.908C497.85 247.652 496.803 247.86 495.826 248.264C494.849 248.669 493.962 249.261 493.214 250.008C492.466 250.756 491.873 251.643 491.469 252.619C491.064 253.595 490.856 254.642 490.857 255.698V257.898H414.375V146.85H611.788V257.898ZM622.04 257.898V146.85H675.308L667.27 257.898H622.04Z" fill="#536375"/>
<path d="M0 565.386C11.317 578.787 23.5576 591.381 36.6323 603.075L988.368 604.377C1001.44 592.682 1013.68 580.089 1025 566.688L0 565.386Z" fill="#536375"/>
<path d="M645.403 444.704V556.279C645.404 557.701 645.969 559.064 646.975 560.07C647.982 561.075 649.346 561.64 650.768 561.642H816.219C817.642 561.64 819.006 561.075 820.012 560.07C821.018 559.064 821.584 557.701 821.585 556.279V444.704C821.581 443.284 821.015 441.922 820.009 440.918C819.003 439.914 817.64 439.35 816.219 439.348H650.768C649.347 439.35 647.984 439.914 646.978 440.918C645.973 441.922 645.406 443.284 645.403 444.704V444.704Z" fill="#536375"/>
<path d="M649.284 446.093V554.903C649.285 555.662 649.588 556.391 650.125 556.928C650.663 557.465 651.392 557.767 652.152 557.769H814.842C815.602 557.767 816.33 557.465 816.868 556.928C817.406 556.391 817.708 555.662 817.709 554.903V446.093C817.709 445.332 817.407 444.602 816.87 444.064C816.332 443.526 815.603 443.222 814.842 443.221H652.152C651.391 443.222 650.661 443.526 650.124 444.064C649.586 444.602 649.284 445.332 649.284 446.093V446.093Z" fill="#11EE77"/>
<path d="M641.942 578.039C642.245 578.419 642.631 578.725 643.069 578.935C643.508 579.145 643.988 579.252 644.474 579.25H821.633C822.117 579.249 822.595 579.141 823.032 578.932C823.47 578.724 823.855 578.42 824.16 578.044C824.465 577.668 824.683 577.229 824.797 576.758C824.911 576.288 824.918 575.798 824.819 575.324L822.069 562.27C821.955 561.737 821.71 561.242 821.355 560.829C821.001 560.415 820.548 560.097 820.039 559.903C819.671 559.759 819.278 559.685 818.882 559.685H647.213C646.817 559.685 646.425 559.759 646.056 559.903C645.547 560.097 645.095 560.415 644.741 560.829C644.386 561.242 644.141 561.737 644.027 562.27L641.277 575.324C641.179 575.797 641.188 576.287 641.303 576.757C641.418 577.226 641.637 577.664 641.942 578.039V578.039Z" fill="#21364E"/>
<path d="M812.804 565.308H816.988C817.34 565.308 817.624 565.023 817.624 564.672V562.671C817.624 562.32 817.34 562.036 816.988 562.036H812.804C812.453 562.036 812.168 562.32 812.168 562.671V564.672C812.168 565.023 812.453 565.308 812.804 565.308Z" fill="#536375"/>
<path d="M801.891 565.308H806.075C806.427 565.308 806.711 565.023 806.711 564.672V562.671C806.711 562.32 806.427 562.036 806.075 562.036H801.891C801.54 562.036 801.255 562.32 801.255 562.671V564.672C801.255 565.023 801.54 565.308 801.891 565.308Z" fill="#536375"/>
<path d="M790.978 565.308H795.163C795.514 565.308 795.799 565.023 795.799 564.672V562.671C795.799 562.32 795.514 562.036 795.163 562.036H790.978C790.627 562.036 790.342 562.32 790.342 562.671V564.672C790.342 565.023 790.627 565.308 790.978 565.308Z" fill="#536375"/>
<path d="M780.066 565.308H784.25C784.601 565.308 784.886 565.023 784.886 564.672V562.671C784.886 562.32 784.601 562.036 784.25 562.036H780.066C779.714 562.036 779.43 562.32 779.43 562.671V564.672C779.43 565.023 779.714 565.308 780.066 565.308Z" fill="#536375"/>
<path d="M769.153 565.308H773.337C773.688 565.308 773.973 565.023 773.973 564.672V562.671C773.973 562.32 773.688 562.036 773.337 562.036H769.153C768.802 562.036 768.517 562.32 768.517 562.671V564.672C768.517 565.023 768.802 565.308 769.153 565.308Z" fill="#536375"/>
<path d="M758.24 565.308H762.424C762.776 565.308 763.06 565.023 763.06 564.672V562.671C763.06 562.32 762.776 562.036 762.424 562.036H758.24C757.889 562.036 757.604 562.32 757.604 562.671V564.672C757.604 565.023 757.889 565.308 758.24 565.308Z" fill="#536375"/>
<path d="M747.327 565.308H751.512C751.863 565.308 752.147 565.023 752.147 564.672V562.671C752.147 562.32 751.863 562.036 751.512 562.036H747.327C746.976 562.036 746.691 562.32 746.691 562.671V564.672C746.691 565.023 746.976 565.308 747.327 565.308Z" fill="#536375"/>
<path d="M736.414 565.308H740.599C740.95 565.308 741.235 565.023 741.235 564.672V562.671C741.235 562.32 740.95 562.036 740.599 562.036H736.414C736.063 562.036 735.778 562.32 735.778 562.671V564.672C735.778 565.023 736.063 565.308 736.414 565.308Z" fill="#536375"/>
<path d="M725.501 565.308H729.686C730.037 565.308 730.322 565.023 730.322 564.672V562.671C730.322 562.32 730.037 562.036 729.686 562.036H725.501C725.15 562.036 724.865 562.32 724.865 562.671V564.672C724.865 565.023 725.15 565.308 725.501 565.308Z" fill="#536375"/>
<path d="M714.589 565.308H718.773C719.124 565.308 719.409 565.023 719.409 564.672V562.671C719.409 562.32 719.124 562.036 718.773 562.036H714.589C714.237 562.036 713.953 562.32 713.953 562.671V564.672C713.953 565.023 714.237 565.308 714.589 565.308Z" fill="#536375"/>
<path d="M703.676 565.308H707.86C708.212 565.308 708.496 565.023 708.496 564.672V562.671C708.496 562.32 708.212 562.036 707.86 562.036H703.676C703.325 562.036 703.04 562.32 703.04 562.671V564.672C703.04 565.023 703.325 565.308 703.676 565.308Z" fill="#536375"/>
<path d="M692.763 565.308H696.947C697.299 565.308 697.583 565.023 697.583 564.672V562.671C697.583 562.32 697.299 562.036 696.947 562.036H692.763C692.412 562.036 692.127 562.32 692.127 562.671V564.672C692.127 565.023 692.412 565.308 692.763 565.308Z" fill="#536375"/>
<path d="M681.85 565.308H686.035C686.386 565.308 686.671 565.023 686.671 564.672V562.671C686.671 562.32 686.386 562.036 686.035 562.036H681.85C681.499 562.036 681.214 562.32 681.214 562.671V564.672C681.214 565.023 681.499 565.308 681.85 565.308Z" fill="#536375"/>
<path d="M670.937 565.308H675.122C675.473 565.308 675.758 565.023 675.758 564.672V562.671C675.758 562.32 675.473 562.036 675.122 562.036H670.937C670.586 562.036 670.301 562.32 670.301 562.671V564.672C670.301 565.023 670.586 565.308 670.937 565.308Z" fill="#536375"/>
<path d="M660.025 565.308H664.209C664.561 565.308 664.845 565.023 664.845 564.672V562.671C664.845 562.32 664.561 562.036 664.209 562.036H660.025C659.674 562.036 659.389 562.32 659.389 562.671V564.672C659.389 565.023 659.674 565.308 660.025 565.308Z" fill="#536375"/>
<path d="M649.112 565.308H653.296C653.648 565.308 653.932 565.023 653.932 564.672V562.671C653.932 562.32 653.648 562.036 653.296 562.036H649.112C648.761 562.036 648.476 562.32 648.476 562.671V564.672C648.476 565.023 648.761 565.308 649.112 565.308Z" fill="#536375"/>
<path d="M812.933 570.76H817.117C817.468 570.76 817.753 570.476 817.753 570.125V568.124C817.753 567.773 817.468 567.489 817.117 567.489H812.933C812.581 567.489 812.297 567.773 812.297 568.124V570.125C812.297 570.476 812.581 570.76 812.933 570.76Z" fill="#536375"/>
<path d="M802.02 570.76H806.204C806.556 570.76 806.84 570.476 806.84 570.125V568.124C806.84 567.773 806.556 567.489 806.204 567.489H802.02C801.669 567.489 801.384 567.773 801.384 568.124V570.125C801.384 570.476 801.669 570.76 802.02 570.76Z" fill="#536375"/>
<path d="M791.107 570.76H795.292C795.643 570.76 795.928 570.476 795.928 570.125V568.124C795.928 567.773 795.643 567.489 795.292 567.489H791.107C790.756 567.489 790.471 567.773 790.471 568.124V570.125C790.471 570.476 790.756 570.76 791.107 570.76Z" fill="#536375"/>
<path d="M780.194 570.76H784.379C784.73 570.76 785.015 570.476 785.015 570.125V568.124C785.015 567.773 784.73 567.489 784.379 567.489H780.194C779.843 567.489 779.558 567.773 779.558 568.124V570.125C779.558 570.476 779.843 570.76 780.194 570.76Z" fill="#536375"/>
<path d="M769.282 570.76H773.466C773.817 570.76 774.102 570.476 774.102 570.125V568.124C774.102 567.773 773.817 567.489 773.466 567.489H769.282C768.93 567.489 768.646 567.773 768.646 568.124V570.125C768.646 570.476 768.93 570.76 769.282 570.76Z" fill="#536375"/>
<path d="M758.369 570.76H762.553C762.905 570.76 763.189 570.476 763.189 570.125V568.124C763.189 567.773 762.905 567.489 762.553 567.489H758.369C758.018 567.489 757.733 567.773 757.733 568.124V570.125C757.733 570.476 758.018 570.76 758.369 570.76Z" fill="#536375"/>
<path d="M747.456 570.76H751.64C751.992 570.76 752.276 570.476 752.276 570.125V568.124C752.276 567.773 751.992 567.489 751.64 567.489H747.456C747.105 567.489 746.82 567.773 746.82 568.124V570.125C746.82 570.476 747.105 570.76 747.456 570.76Z" fill="#536375"/>
<path d="M736.543 570.76H740.728C741.079 570.76 741.364 570.476 741.364 570.125V568.124C741.364 567.773 741.079 567.489 740.728 567.489H736.543C736.192 567.489 735.907 567.773 735.907 568.124V570.125C735.907 570.476 736.192 570.76 736.543 570.76Z" fill="#536375"/>
<path d="M725.63 570.76H729.815C730.166 570.76 730.451 570.476 730.451 570.125V568.124C730.451 567.773 730.166 567.489 729.815 567.489H725.63C725.279 567.489 724.994 567.773 724.994 568.124V570.125C724.994 570.476 725.279 570.76 725.63 570.76Z" fill="#536375"/>
<path d="M714.718 570.76H718.902C719.253 570.76 719.538 570.476 719.538 570.125V568.124C719.538 567.773 719.253 567.489 718.902 567.489H714.718C714.366 567.489 714.082 567.773 714.082 568.124V570.125C714.082 570.476 714.366 570.76 714.718 570.76Z" fill="#536375"/>
<path d="M703.805 570.76H707.989C708.341 570.76 708.625 570.476 708.625 570.125V568.124C708.625 567.773 708.341 567.489 707.989 567.489H703.805C703.454 567.489 703.169 567.773 703.169 568.124V570.125C703.169 570.476 703.454 570.76 703.805 570.76Z" fill="#536375"/>
<path d="M692.892 570.76H697.076C697.428 570.76 697.712 570.476 697.712 570.125V568.124C697.712 567.773 697.428 567.489 697.076 567.489H692.892C692.541 567.489 692.256 567.773 692.256 568.124V570.125C692.256 570.476 692.541 570.76 692.892 570.76Z" fill="#536375"/>
<path d="M681.979 570.76H686.164C686.515 570.76 686.8 570.476 686.8 570.125V568.124C686.8 567.773 686.515 567.489 686.164 567.489H681.979C681.628 567.489 681.343 567.773 681.343 568.124V570.125C681.343 570.476 681.628 570.76 681.979 570.76Z" fill="#536375"/>
<path d="M671.067 570.76H675.251C675.602 570.76 675.887 570.476 675.887 570.125V568.124C675.887 567.773 675.602 567.489 675.251 567.489H671.067C670.715 567.489 670.431 567.773 670.431 568.124V570.125C670.431 570.476 670.715 570.76 671.067 570.76Z" fill="#536375"/>
<path d="M660.154 570.76H664.338C664.689 570.76 664.974 570.476 664.974 570.125V568.124C664.974 567.773 664.689 567.489 664.338 567.489H660.154C659.802 567.489 659.518 567.773 659.518 568.124V570.125C659.518 570.476 659.802 570.76 660.154 570.76Z" fill="#536375"/>
<path d="M649.241 570.76H653.425C653.777 570.76 654.061 570.476 654.061 570.125V568.124C654.061 567.773 653.777 567.489 653.425 567.489H649.241C648.89 567.489 648.605 567.773 648.605 568.124V570.125C648.605 570.476 648.89 570.76 649.241 570.76Z" fill="#536375"/>
<path d="M722.357 577.304H764.736C765.087 577.304 765.372 577.019 765.372 576.668V574.668C765.372 574.317 765.087 574.032 764.736 574.032H722.357C722.005 574.032 721.721 574.317 721.721 574.668V576.668C721.721 577.019 722.005 577.304 722.357 577.304Z" fill="#536375"/>
<path d="M677.457 467.026H673.753C672.629 467.026 671.719 467.936 671.719 469.058C671.719 470.181 672.629 471.09 673.753 471.09H677.457C678.58 471.09 679.491 470.181 679.491 469.058C679.491 467.936 678.58 467.026 677.457 467.026Z" fill="#FAFAFA"/>
<path d="M719.825 467.026H716.121C714.998 467.026 714.087 467.936 714.087 469.058C714.087 470.181 714.998 471.09 716.121 471.09H719.825C720.948 471.09 721.859 470.181 721.859 469.058C721.859 467.936 720.948 467.026 719.825 467.026Z" fill="#FAFAFA"/>
<path d="M731.829 467.026H728.125C727.002 467.026 726.091 467.936 726.091 469.058C726.091 470.181 727.002 471.09 728.125 471.09H731.829C732.953 471.09 733.863 470.181 733.863 469.058C733.863 467.936 732.953 467.026 731.829 467.026Z" fill="#FAFAFA"/>
<path d="M708.301 466.687H685.277C684.154 466.687 683.243 467.597 683.243 468.719C683.243 469.842 684.154 470.752 685.277 470.752H708.301C709.424 470.752 710.335 469.842 710.335 468.719C710.335 467.597 709.424 466.687 708.301 466.687Z" fill="#FAFAFA"/>
<path d="M764.792 466.687H741.768C740.645 466.687 739.734 467.597 739.734 468.719C739.734 469.842 740.645 470.752 741.768 470.752H764.792C765.915 470.752 766.825 469.842 766.825 468.719C766.825 467.597 765.915 466.687 764.792 466.687Z" fill="#FAFAFA"/>
<path d="M688.755 476.199H685.051C683.928 476.199 683.017 477.109 683.017 478.232C683.017 479.354 683.928 480.264 685.051 480.264H688.755C689.878 480.264 690.789 479.354 690.789 478.232C690.789 477.109 689.878 476.199 688.755 476.199Z" fill="#FAFAFA"/>
<path d="M731.123 476.199H727.419C726.296 476.199 725.385 477.109 725.385 478.232C725.385 479.354 726.296 480.264 727.419 480.264H731.123C732.246 480.264 733.157 479.354 733.157 478.232C733.157 477.109 732.246 476.199 731.123 476.199Z" fill="#FAFAFA"/>
<path d="M743.128 476.199H739.423C738.3 476.199 737.39 477.109 737.39 478.232C737.39 479.354 738.3 480.264 739.423 480.264H743.128C744.251 480.264 745.161 479.354 745.161 478.232C745.161 477.109 744.251 476.199 743.128 476.199Z" fill="#FAFAFA"/>
<path d="M719.599 475.861H696.575C695.452 475.861 694.541 476.771 694.541 477.893C694.541 479.015 695.452 479.925 696.575 479.925H719.599C720.722 479.925 721.633 479.015 721.633 477.893C721.633 476.771 720.722 475.861 719.599 475.861Z" fill="#FAFAFA"/>
<path d="M776.09 475.861H753.066C751.943 475.861 751.032 476.771 751.032 477.893C751.032 479.015 751.943 479.925 753.066 479.925H776.09C777.213 479.925 778.124 479.015 778.124 477.893C778.124 476.771 777.213 475.861 776.09 475.861Z" fill="#FAFAFA"/>
<path d="M700.053 485.373H696.349C695.226 485.373 694.315 486.283 694.315 487.406C694.315 488.528 695.226 489.438 696.349 489.438H700.053C701.176 489.438 702.087 488.528 702.087 487.406C702.087 486.283 701.176 485.373 700.053 485.373Z" fill="#FAFAFA"/>
<path d="M742.421 485.373H738.717C737.594 485.373 736.683 486.283 736.683 487.406C736.683 488.528 737.594 489.438 738.717 489.438H742.421C743.545 489.438 744.455 488.528 744.455 487.406C744.455 486.283 743.545 485.373 742.421 485.373Z" fill="#FAFAFA"/>
<path d="M754.426 485.373H750.721C749.598 485.373 748.688 486.283 748.688 487.406C748.688 488.528 749.598 489.438 750.721 489.438H754.426C755.549 489.438 756.459 488.528 756.459 487.406C756.459 486.283 755.549 485.373 754.426 485.373Z" fill="#FAFAFA"/>
<path d="M730.897 485.034H707.873C706.75 485.034 705.84 485.944 705.84 487.067C705.84 488.189 706.75 489.099 707.873 489.099H730.897C732.02 489.099 732.931 488.189 732.931 487.067C732.931 485.944 732.02 485.034 730.897 485.034Z" fill="#FAFAFA"/>
<path d="M787.388 485.034H764.364C763.241 485.034 762.33 485.944 762.33 487.067C762.33 488.189 763.241 489.099 764.364 489.099H787.388C788.511 489.099 789.422 488.189 789.422 487.067C789.422 485.944 788.511 485.034 787.388 485.034Z" fill="#FAFAFA"/>
<path d="M711.352 494.547H707.647C706.524 494.547 705.614 495.457 705.614 496.579C705.614 497.702 706.524 498.612 707.647 498.612H711.352C712.475 498.612 713.385 497.702 713.385 496.579C713.385 495.457 712.475 494.547 711.352 494.547Z" fill="#FAFAFA"/>
<path d="M753.72 494.547H750.015C748.892 494.547 747.981 495.457 747.981 496.579C747.981 497.702 748.892 498.612 750.015 498.612H753.72C754.843 498.612 755.753 497.702 755.753 496.579C755.753 495.457 754.843 494.547 753.72 494.547Z" fill="#FAFAFA"/>
<path d="M765.724 494.547H762.019C760.896 494.547 759.986 495.457 759.986 496.579C759.986 497.702 760.896 498.612 762.019 498.612H765.724C766.847 498.612 767.758 497.702 767.758 496.579C767.758 495.457 766.847 494.547 765.724 494.547Z" fill="#FAFAFA"/>
<path d="M742.195 494.208H719.171C718.048 494.208 717.138 495.118 717.138 496.241C717.138 497.363 718.048 498.273 719.171 498.273H742.195C743.319 498.273 744.229 497.363 744.229 496.241C744.229 495.118 743.319 494.208 742.195 494.208Z" fill="#FAFAFA"/>
<path d="M719.825 531.026H716.121C714.998 531.026 714.087 531.936 714.087 533.058C714.087 534.181 714.998 535.09 716.121 535.09H719.825C720.948 535.09 721.859 534.181 721.859 533.058C721.859 531.936 720.948 531.026 719.825 531.026Z" fill="#FAFAFA"/>
<path d="M731.829 531.026H728.125C727.002 531.026 726.091 531.936 726.091 533.058C726.091 534.181 727.002 535.09 728.125 535.09H731.829C732.953 535.09 733.863 534.181 733.863 533.058C733.863 531.936 732.953 531.026 731.829 531.026Z" fill="#FAFAFA"/>
<path d="M764.792 531.365H741.768C740.645 531.365 739.734 532.275 739.734 533.397C739.734 534.519 740.645 535.429 741.768 535.429H764.792C765.915 535.429 766.825 534.519 766.825 533.397C766.825 532.275 765.915 531.365 764.792 531.365Z" fill="#FAFAFA"/>
<path d="M677.457 531.026H673.753C672.629 531.026 671.719 531.936 671.719 533.058C671.719 534.181 672.629 535.09 673.753 535.09H677.457C678.58 535.09 679.491 534.181 679.491 533.058C679.491 531.936 678.58 531.026 677.457 531.026Z" fill="#FAFAFA"/>
<path d="M708.301 531.365H685.277C684.154 531.365 683.243 532.275 683.243 533.397C683.243 534.519 684.154 535.429 685.277 535.429H708.301C709.424 535.429 710.335 534.519 710.335 533.397C710.335 532.275 709.424 531.365 708.301 531.365Z" fill="#FAFAFA"/>
<path d="M688.755 521.852H685.051C683.928 521.852 683.017 522.762 683.017 523.884C683.017 525.007 683.928 525.917 685.051 525.917H688.755C689.878 525.917 690.789 525.007 690.789 523.884C690.789 522.762 689.878 521.852 688.755 521.852Z" fill="#FAFAFA"/>
<path d="M731.123 521.852H727.419C726.296 521.852 725.385 522.762 725.385 523.884C725.385 525.007 726.296 525.917 727.419 525.917H731.123C732.246 525.917 733.157 525.007 733.157 523.884C733.157 522.762 732.246 521.852 731.123 521.852Z" fill="#FAFAFA"/>
<path d="M743.128 521.852H739.423C738.3 521.852 737.39 522.762 737.39 523.884C737.39 525.007 738.3 525.917 739.423 525.917H743.128C744.251 525.917 745.161 525.007 745.161 523.884C745.161 522.762 744.251 521.852 743.128 521.852Z" fill="#FAFAFA"/>
<path d="M719.599 522.191H696.575C695.452 522.191 694.541 523.101 694.541 524.223C694.541 525.346 695.452 526.255 696.575 526.255H719.599C720.722 526.255 721.633 525.346 721.633 524.223C721.633 523.101 720.722 522.191 719.599 522.191Z" fill="#FAFAFA"/>
<path d="M700.053 512.678H696.349C695.226 512.678 694.315 513.588 694.315 514.711C694.315 515.833 695.226 516.743 696.349 516.743H700.053C701.176 516.743 702.087 515.833 702.087 514.711C702.087 513.588 701.176 512.678 700.053 512.678Z" fill="#FAFAFA"/>
<path d="M742.421 512.678H738.717C737.594 512.678 736.683 513.588 736.683 514.711C736.683 515.833 737.594 516.743 738.717 516.743H742.421C743.545 516.743 744.455 515.833 744.455 514.711C744.455 513.588 743.545 512.678 742.421 512.678Z" fill="#FAFAFA"/>
<path d="M754.426 512.678H750.721C749.598 512.678 748.688 513.588 748.688 514.711C748.688 515.833 749.598 516.743 750.721 516.743H754.426C755.549 516.743 756.459 515.833 756.459 514.711C756.459 513.588 755.549 512.678 754.426 512.678Z" fill="#FAFAFA"/>
<path d="M730.897 513.017H707.873C706.75 513.017 705.84 513.927 705.84 515.049C705.84 516.172 706.75 517.082 707.873 517.082H730.897C732.02 517.082 732.931 516.172 732.931 515.049C732.931 513.927 732.02 513.017 730.897 513.017Z" fill="#FAFAFA"/>
<path d="M711.352 503.504H707.647C706.524 503.504 705.614 504.414 705.614 505.537C705.614 506.659 706.524 507.569 707.647 507.569H711.352C712.475 507.569 713.385 506.659 713.385 505.537C713.385 504.414 712.475 503.504 711.352 503.504Z" fill="#FAFAFA"/>
<path d="M753.72 503.504H750.015C748.892 503.504 747.981 504.414 747.981 505.537C747.981 506.659 748.892 507.569 750.015 507.569H753.72C754.843 507.569 755.753 506.659 755.753 505.537C755.753 504.414 754.843 503.504 753.72 503.504Z" fill="#FAFAFA"/>
<path d="M765.724 503.504H762.019C760.896 503.504 759.986 504.414 759.986 505.537C759.986 506.659 760.896 507.569 762.019 507.569H765.724C766.847 507.569 767.758 506.659 767.758 505.537C767.758 504.414 766.847 503.504 765.724 503.504Z" fill="#FAFAFA"/>
<path d="M742.195 503.843H719.171C718.048 503.843 717.138 504.753 717.138 505.876C717.138 506.998 718.048 507.908 719.171 507.908H742.195C743.319 507.908 744.229 506.998 744.229 505.876C744.229 504.753 743.319 503.843 742.195 503.843Z" fill="#FAFAFA"/>
<path d="M657.762 638.539L640.371 611.068L694.958 567.582L717.488 542.637C720.416 539.396 724.143 536.98 728.297 535.629C732.452 534.279 736.888 534.042 741.163 534.941C745.438 535.841 749.401 537.846 752.658 540.757C755.914 543.667 758.349 547.38 759.72 551.526C761.751 557.669 761.314 564.36 758.502 570.187C755.69 576.015 750.722 580.522 744.647 582.759L709.02 595.875L657.762 638.539Z" fill="#FFB6B6"/>
<path d="M249.717 439.353V572.872H343.317V439.353C343.318 438.393 343.012 437.457 342.442 436.684C341.872 435.911 341.069 435.34 340.151 435.057C339.718 434.914 339.265 434.844 338.809 434.849H254.237C253.644 434.847 253.057 434.963 252.509 435.189C251.961 435.415 251.463 435.746 251.043 436.165C250.623 436.583 250.29 437.08 250.062 437.627C249.835 438.174 249.717 438.761 249.717 439.353V439.353ZM286.245 485.231C286.269 482.598 287.333 480.082 289.204 478.23C291.075 476.377 293.603 475.338 296.237 475.338C298.871 475.338 301.398 476.377 303.269 478.23C305.141 480.082 306.204 482.598 306.229 485.231V500.723C306.215 503.362 305.156 505.889 303.284 507.751C301.412 509.612 298.878 510.657 296.237 510.657C293.596 510.657 291.062 509.612 289.189 507.751C287.317 505.889 286.258 503.362 286.245 500.723V485.231Z" fill="#21364E"/>
<path d="M249.43 568.602V581.477C249.433 582.144 249.698 582.784 250.168 583.256C250.639 583.729 251.277 583.997 251.945 584.003H341.089C341.757 584 342.397 583.732 342.868 583.259C343.339 582.786 343.604 582.145 343.603 581.477V568.602H249.43Z" fill="#536375"/>
<path d="M102.471 238.19V481.976C102.474 485.083 103.71 488.061 105.908 490.258C108.106 492.455 111.087 493.69 114.196 493.693H475.698C478.807 493.69 481.788 492.455 483.986 490.258C486.184 488.061 487.42 485.083 487.423 481.976V238.19C487.415 235.086 486.177 232.111 483.98 229.917C481.782 227.724 478.804 226.49 475.698 226.486H114.196C111.09 226.49 108.112 227.724 105.914 229.917C103.717 232.111 102.479 235.086 102.471 238.19Z" fill="#536375"/>
<path d="M110.952 241.223V478.969C110.955 480.628 111.616 482.22 112.79 483.393C113.965 484.567 115.557 485.228 117.218 485.23H472.689C474.35 485.228 475.942 484.567 477.117 483.393C478.291 482.22 478.952 480.628 478.955 478.969V241.223C478.955 239.561 478.295 237.967 477.121 236.79C475.946 235.614 474.352 234.951 472.689 234.948H117.218C115.555 234.951 113.961 235.614 112.787 236.79C111.612 237.967 110.952 239.561 110.952 241.223Z" fill="#FAFAFA"/>
<path d="M176.921 583.13C177.283 583.584 177.743 583.949 178.267 584.2C178.79 584.45 179.363 584.578 179.944 584.576H391.426C392.004 584.575 392.575 584.445 393.097 584.196C393.619 583.947 394.079 583.585 394.443 583.136C394.808 582.688 395.067 582.163 395.203 581.601C395.339 581.04 395.349 580.455 395.23 579.889L391.947 564.306C391.811 563.67 391.518 563.079 391.095 562.585C390.672 562.092 390.132 561.712 389.524 561.481C389.084 561.308 388.616 561.22 388.143 561.22H183.213C182.741 561.22 182.272 561.308 181.833 561.481C181.225 561.712 180.685 562.092 180.262 562.585C179.839 563.079 179.546 563.67 179.41 564.306L176.127 579.889C176.01 580.454 176.021 581.038 176.158 581.599C176.296 582.16 176.556 582.683 176.921 583.13Z" fill="#21364E"/>
<path d="M461.153 267.698H128.54C128.194 267.691 127.865 267.548 127.624 267.301C127.382 267.054 127.246 266.722 127.246 266.377C127.246 266.031 127.382 265.699 127.624 265.452C127.865 265.205 128.194 265.062 128.54 265.055H461.153C461.499 265.062 461.828 265.205 462.069 265.452C462.311 265.699 462.447 266.031 462.447 266.377C462.447 266.722 462.311 267.054 462.069 267.301C461.828 267.548 461.499 267.691 461.153 267.698V267.698Z" fill="#536375"/>
<path d="M151.182 258.306C155.463 258.306 158.933 254.76 158.933 250.386C158.933 246.013 155.463 242.467 151.182 242.467C146.9 242.467 143.43 246.013 143.43 250.386C143.43 254.76 146.9 258.306 151.182 258.306Z" fill="#536375"/>
<path d="M177.96 258.306C182.241 258.306 185.712 254.76 185.712 250.386C185.712 246.013 182.241 242.467 177.96 242.467C173.679 242.467 170.208 246.013 170.208 250.386C170.208 254.76 173.679 258.306 177.96 258.306Z" fill="#536375"/>
<path d="M204.739 258.306C209.02 258.306 212.49 254.76 212.49 250.386C212.49 246.013 209.02 242.467 204.739 242.467C200.457 242.467 196.987 246.013 196.987 250.386C196.987 254.76 200.457 258.306 204.739 258.306Z" fill="#536375"/>
<path d="M445.028 244.426H426.008C425.632 244.434 425.275 244.59 425.012 244.859C424.749 245.127 424.602 245.488 424.602 245.864C424.602 246.24 424.749 246.601 425.012 246.87C425.275 247.138 425.632 247.294 426.008 247.303H445.028C445.406 247.297 445.767 247.143 446.033 246.874C446.298 246.605 446.447 246.242 446.447 245.864C446.447 245.486 446.298 245.123 446.033 244.854C445.767 244.585 445.406 244.431 445.028 244.426Z" fill="#536375"/>
<path d="M445.028 249.828H426.008C425.632 249.836 425.274 249.992 425.011 250.261C424.747 250.529 424.6 250.891 424.6 251.267C424.6 251.643 424.747 252.004 425.011 252.273C425.274 252.542 425.632 252.697 426.008 252.705H445.028C445.407 252.701 445.768 252.547 446.034 252.278C446.301 252.009 446.45 251.645 446.45 251.267C446.45 250.888 446.301 250.525 446.034 250.256C445.768 249.986 445.407 249.833 445.028 249.828V249.828Z" fill="#536375"/>
<path d="M445.028 255.231H426.008C425.632 255.24 425.275 255.395 425.012 255.664C424.749 255.933 424.602 256.294 424.602 256.67C424.602 257.045 424.749 257.406 425.012 257.675C425.275 257.944 425.632 258.099 426.008 258.108H445.028C445.406 258.103 445.767 257.949 446.033 257.68C446.298 257.41 446.447 257.048 446.447 256.67C446.447 256.291 446.298 255.929 446.033 255.659C445.767 255.39 445.406 255.236 445.028 255.231V255.231Z" fill="#536375"/>
<path d="M903.556 574.253C904.13 575.923 905.218 577.368 906.666 578.381C908.113 579.394 909.844 579.923 911.611 579.891L946.122 579.003C947.901 578.969 949.622 578.359 951.026 577.267C952.431 576.174 953.443 574.656 953.913 572.941L958.797 520.753C960.529 521.537 962.416 521.924 964.318 521.886C965.97 521.845 967.598 521.479 969.108 520.808C970.619 520.138 971.983 519.177 973.122 517.98C974.261 516.783 975.153 515.374 975.747 513.833C976.341 512.291 976.625 510.648 976.584 508.997C976.542 507.346 976.176 505.719 975.505 504.209C974.834 502.699 973.873 501.337 972.675 500.198C971.478 499.06 970.067 498.169 968.525 497.575C966.982 496.982 965.338 496.697 963.686 496.739C962.926 496.736 962.168 496.815 961.424 496.974C960.616 496.1 959.633 495.405 958.54 494.933C957.446 494.462 956.266 494.224 955.075 494.236L901.989 495.606C901.548 495.622 901.11 495.677 900.679 495.768C899.515 495.985 898.411 496.449 897.441 497.128C896.471 497.807 895.658 498.686 895.056 499.705C894.455 500.725 894.079 501.861 893.954 503.038C893.828 504.215 893.957 505.405 894.331 506.528L903.556 574.253ZM959.798 517.209L963.273 504.773C963.669 503.336 963.678 501.821 963.3 500.38C963.469 500.379 963.617 500.299 963.786 500.299C966.169 500.25 968.474 501.147 970.196 502.793C971.918 504.44 972.916 506.702 972.972 509.083C973.028 511.464 972.136 513.77 970.494 515.495C968.851 517.221 966.59 518.225 964.208 518.287C962.667 518.335 961.143 517.962 959.798 517.209Z" fill="#21364E"/>
<path d="M900.679 495.768C901.81 502.231 914.526 506.774 929.815 505.984C943.875 505.337 955.371 500.403 957.477 494.556C956.698 494.326 955.887 494.218 955.075 494.236L901.988 495.606C901.548 495.622 901.11 495.676 900.679 495.768V495.768Z" fill="#536375"/>
<path d="M932.618 545.575C932.687 545.557 932.754 545.528 932.814 545.488L940.309 540.586C940.399 540.527 940.474 540.446 940.525 540.351C940.577 540.256 940.604 540.15 940.604 540.042C940.604 539.934 940.577 539.827 940.526 539.732C940.474 539.637 940.4 539.556 940.309 539.497L932.519 534.398C932.448 534.351 932.368 534.318 932.283 534.302C932.199 534.286 932.113 534.286 932.029 534.304C931.945 534.321 931.865 534.355 931.794 534.403C931.723 534.451 931.663 534.513 931.616 534.584C931.569 534.656 931.536 534.736 931.52 534.82C931.504 534.904 931.505 534.991 931.523 535.075C931.541 535.159 931.575 535.238 931.623 535.309C931.672 535.379 931.734 535.44 931.805 535.487L938.763 540.041L932.101 544.399C931.972 544.483 931.877 544.611 931.833 544.758C931.789 544.906 931.799 545.064 931.861 545.206C931.923 545.347 932.033 545.461 932.172 545.529C932.31 545.596 932.468 545.613 932.617 545.575H932.618Z" fill="#11EE77"/>
<path d="M920.78 546.12C920.906 546.088 921.019 546.02 921.106 545.923C921.192 545.826 921.248 545.706 921.265 545.578C921.283 545.449 921.262 545.318 921.205 545.202C921.147 545.086 921.057 544.989 920.944 544.925L914.036 540.966L920.713 536.01C920.782 535.959 920.839 535.895 920.883 535.822C920.927 535.748 920.956 535.667 920.969 535.583C920.981 535.498 920.977 535.412 920.956 535.329C920.935 535.246 920.898 535.168 920.847 535.1C920.796 535.031 920.732 534.974 920.659 534.93C920.586 534.886 920.504 534.857 920.42 534.844C920.335 534.832 920.249 534.836 920.166 534.857C920.083 534.878 920.005 534.915 919.937 534.966L912.461 540.515C912.374 540.58 912.305 540.664 912.259 540.762C912.213 540.86 912.192 540.968 912.199 541.076C912.205 541.184 912.238 541.288 912.295 541.38C912.352 541.472 912.431 541.548 912.525 541.602L920.296 546.054C920.443 546.138 920.616 546.162 920.78 546.12V546.12Z" fill="#11EE77"/>
<path d="M931.872 549.871C931.935 549.855 931.995 549.83 932.05 549.796C932.124 549.751 932.187 549.693 932.238 549.624C932.288 549.555 932.325 549.477 932.345 549.393C932.365 549.31 932.369 549.224 932.356 549.14C932.343 549.055 932.313 548.974 932.269 548.901L921.644 531.445C921.554 531.298 921.409 531.193 921.242 531.152C921.074 531.111 920.897 531.139 920.749 531.229C920.602 531.319 920.496 531.463 920.455 531.631C920.414 531.798 920.442 531.975 920.531 532.123L931.156 549.579C931.228 549.697 931.337 549.79 931.466 549.843C931.595 549.895 931.737 549.905 931.872 549.871Z" fill="#11EE77"/>
<path d="M334.588 339.561H277.02C274.672 339.561 272.768 341.463 272.768 343.81V349.431C272.768 351.778 274.672 353.68 277.02 353.68H334.588C336.937 353.68 338.84 351.778 338.84 349.431V343.81C338.84 341.463 336.937 339.561 334.588 339.561Z" fill="#11EE77"/>
<path d="M368.144 367.8H243.464C241.116 367.8 239.212 369.702 239.212 372.049V377.67C239.212 380.017 241.116 381.919 243.464 381.919H368.144C370.492 381.919 372.396 380.017 372.396 377.67V372.049C372.396 369.702 370.492 367.8 368.144 367.8Z" fill="#EDEDED"/>
<path d="M368.144 396.039H243.464C241.116 396.039 239.212 397.942 239.212 400.289V405.909C239.212 408.256 241.116 410.159 243.464 410.159H368.144C370.492 410.159 372.396 408.256 372.396 405.909V400.289C372.396 397.942 370.492 396.039 368.144 396.039Z" fill="#EDEDED"/>
<path d="M378.713 490.601L378.995 491.492L379.01 491.522L387.511 517.348L397.289 547.11L415.687 603.039L415.865 611.727V611.757L417.233 681.647L413.443 691.122L417.708 706.656C417.708 706.656 415.746 683.174 405.225 696.659C399.266 704.323 392.296 712.164 386.575 719.515C394.912 722.887 403.382 725.936 411.987 728.664C413.844 729.258 415.717 729.822 417.589 730.386C417.991 730.505 418.392 730.624 418.793 730.743C447.316 739.172 476.803 743.909 506.532 744.837C508.077 744.881 509.593 744.911 511.064 744.941C511.585 744.955 512.09 744.97 512.595 744.97C514.259 744.985 515.909 745 517.573 745C520.932 745 524.276 744.951 527.605 744.852C552.243 744.158 576.738 740.847 600.676 734.975C600.512 725.099 600.066 713.56 599.427 701.234C599.13 695.189 592.458 688.64 592.056 682.313C591.774 677.561 597.763 673.09 597.451 668.264C595.43 638.547 592.903 649.954 591.031 628.91C590.838 626.846 590.659 624.871 590.496 622.984C589.292 609.47 588.46 601.019 588.46 601.019L596.455 550.659L609.013 471.591L608.047 470.002L606.962 469.468L540.727 436.706L537.13 427.498C536.083 424.845 534.265 422.567 531.91 420.955C529.556 419.343 526.773 418.472 523.919 418.454L480.287 418.276C478.023 418.265 475.789 418.795 473.77 419.82C471.752 420.846 470.007 422.337 468.681 424.171L456.867 440.523L378.713 490.601Z" fill="#536375"/>
<path d="M425.748 590.594L415.865 611.727L409.119 626.163L397.512 686.889L391.702 693.052L386.723 671.234L334.618 682.796C332.909 673.306 334.16 683.117 333.105 672.706C333.402 672.409 333.714 672.112 334.026 671.815C334.859 671.043 335.557 670.315 335.542 669.617C334.948 633.707 336.731 572.594 351.622 535.57C353.954 529.525 357.029 523.793 360.776 518.506C361.073 518.105 361.356 517.704 361.638 517.303C368.504 507.694 372.843 498.234 378.995 491.507V491.492C379.034 491.461 379.069 491.426 379.1 491.388C379.122 491.377 379.142 491.362 379.159 491.343L421.423 468.948L423.236 519.858L424.529 556.451L425.748 590.594Z" fill="#536375"/>
<path d="M578.146 596.596L590.49 622.992L594.799 632.184L606.402 692.905L612.193 699.053L617.183 677.24L619.528 676.759L661.812 668.008L674.136 707.124C676.914 702.499 678.008 697.057 677.234 691.718C676.46 686.38 673.865 681.472 669.888 677.825C669.046 677.064 668.345 676.323 668.365 675.622C669.066 633.386 666.481 556.263 643.135 524.52C635.72 514.447 631.271 504.413 624.798 497.404C624.778 497.384 624.778 497.364 624.758 497.364L609.007 471.59L608.045 470.007L606.963 469.467L578.146 596.596Z" fill="#536375"/>
<path d="M503.364 405.866C535.422 405.866 561.41 379.895 561.41 347.858C561.41 315.82 535.422 289.849 503.364 289.849C471.305 289.849 445.317 315.82 445.317 347.858C445.317 379.895 471.305 405.866 503.364 405.866Z" fill="#FFB6B6"/>
<path d="M581.82 307.339C581.37 306.859 580.828 306.474 580.226 306.208C579.624 305.942 578.974 305.8 578.316 305.79L579.189 303.369C579.474 302.606 579.551 301.781 579.412 300.979C579.273 300.177 578.923 299.426 578.398 298.803C577.873 298.181 577.192 297.709 576.424 297.436C575.657 297.163 574.831 297.099 574.03 297.25L570.851 297.862L571.151 295.74C571.266 294.949 571.173 294.143 570.881 293.399C570.59 292.656 570.109 292.001 569.488 291.499C568.866 290.997 568.124 290.666 567.336 290.537C566.547 290.409 565.738 290.488 564.989 290.767C564.308 291.034 563.575 291.147 562.845 291.095C562.115 291.043 561.405 290.829 560.768 290.467C560.129 290.117 559.574 289.631 559.142 289.044C558.71 288.457 558.412 287.783 558.267 287.069L557.16 281.732L557.043 281.445C551.649 272.462 541.28 265.927 528.592 263.532C517.297 261.383 505.716 262.477 494.552 263.505C490.122 263.922 485.12 264.391 480.951 266.942C477.408 269.13 474.412 273.504 475.024 277.917C464.016 274.545 452.213 281.276 446.364 289.764C439.434 299.866 438.301 312.521 438.118 322.415C437.623 345.822 442.456 364.973 452.448 379.345C453.177 380.387 453.36 382.561 454.806 383.29L454.506 382.808C456.122 383.615 457.763 384.917 457.151 386.31C455.392 390.32 467.077 399.185 475.311 402.115C490.331 407.465 510.301 407.01 524.345 405.083L524.84 401.763C529.907 401.073 533.477 399.758 534.48 397.701C536.251 396.191 537.763 394.837 539.078 393.587L539.091 393.574C539.117 393.548 539.169 393.509 539.196 393.483C545.54 387.404 547.012 383.941 547.676 378.668C548.315 373.5 547.181 368.253 546.022 363.528C570.435 367.303 536.408 337.542 559.153 331.788C559.414 331.708 559.679 331.643 559.948 331.593C560.612 331.437 561.276 331.28 561.915 331.098C564.992 330.264 567.938 329.006 570.669 327.362C577.026 323.495 579.124 318.366 582.407 312.586C582.88 311.763 583.079 310.81 582.973 309.866C582.868 308.923 582.464 308.038 581.82 307.339V307.339Z" fill="#21364E"/>
<path d="M708.665 600.727C708.652 603.005 708.626 606.194 708.522 610.139C708.509 610.686 708.496 611.246 708.483 611.818C708.314 619.07 708.144 625.149 707.871 631.906C707.858 632.375 707.845 632.83 707.819 633.299C707.454 642.725 706.881 653.699 705.891 671.079C704.054 703.183 700.849 675.492 697.631 686.754C697.475 687.313 697.306 687.977 697.149 688.758C696.662 691.593 695.84 694.359 694.7 696.999C692.994 698.015 691.235 698.991 689.502 699.967C684.565 702.714 679.55 705.357 674.495 707.87C671.655 709.276 668.802 710.656 665.936 711.984C665.481 712.192 665.038 712.4 664.595 712.595C649.918 719.379 634.793 725.147 619.325 729.858C616.303 730.769 613.294 731.655 610.246 732.475C607.067 733.36 603.888 734.193 600.671 734.974C576.734 740.847 552.239 744.159 527.601 744.856C524.28 744.96 520.932 744.999 517.571 744.999C515.903 744.999 514.262 744.986 512.594 744.973C512.086 744.973 511.578 744.96 511.07 744.947C509.598 744.908 508.074 744.882 506.537 744.843C476.807 743.916 447.32 739.177 418.799 730.743L417.587 730.392C415.712 729.819 413.849 729.259 411.986 728.66C403.388 725.94 394.916 722.893 386.57 719.521C380.2 716.957 373.903 714.205 367.68 711.268C367.624 711.252 367.571 711.226 367.524 711.189C366.221 710.591 364.906 709.966 363.603 709.328C363.434 709.237 363.251 709.146 363.069 709.054C358.21 706.685 353.403 704.203 348.648 701.608C344.649 692.43 339.021 690.672 335.53 682.601C334.513 680.203 333.779 677.695 333.341 675.128C333.341 675.102 333.328 675.076 333.328 675.037C333.693 679.88 331.778 666.444 333.315 674.985C333.302 674.828 333.289 674.659 333.276 674.464C333.237 673.995 333.185 673.422 333.107 672.706C328.638 629.107 328.925 579.246 326.984 538.159C326.854 535.503 326.719 532.96 326.58 530.53C326.541 529.723 326.489 528.929 326.437 528.148C326.528 527.914 326.632 527.666 326.749 527.432C326.774 527.364 326.805 527.299 326.84 527.237C326.879 527.156 326.922 527.077 326.971 527.002C326.997 526.963 327.036 526.911 327.062 526.872C327.081 526.827 327.103 526.784 327.127 526.742C327.244 526.56 327.375 526.364 327.518 526.182C327.583 526.104 327.635 526.039 327.7 525.974C327.745 525.907 327.798 525.846 327.857 525.791C327.897 525.729 327.945 525.672 328 525.622C328.052 525.57 328.104 525.505 328.169 525.44C328.197 525.399 328.232 525.364 328.273 525.336C328.377 525.218 328.49 525.109 328.612 525.01C329.077 524.583 329.573 524.191 330.097 523.839C330.28 523.722 330.475 523.604 330.657 523.474C331.97 522.689 333.353 522.027 334.787 521.495C335.282 521.313 335.777 521.144 336.311 520.962C336.507 520.91 336.689 520.844 336.884 520.779C337.171 520.688 337.458 520.597 337.757 520.532C339.242 520.089 340.845 519.712 342.577 519.36C342.786 519.321 343.007 519.282 343.229 519.23C343.541 519.165 343.867 519.113 344.193 519.061C344.636 518.983 345.091 518.905 345.547 518.827C349.416 518.215 353.807 517.759 358.653 517.46C359.109 517.434 359.565 517.408 360.021 517.382C360.555 517.355 361.089 517.329 361.636 517.303C362.092 517.277 362.561 517.264 363.03 517.251C363.486 517.225 363.955 517.212 364.437 517.199C365.752 517.16 367.107 517.121 368.488 517.095C372.422 517.017 376.565 517.043 380.916 517.134C382.935 517.186 384.994 517.238 387.104 517.329C387.247 517.329 387.378 517.342 387.508 517.342C389.345 517.408 391.194 517.486 393.096 517.59C394.425 517.655 395.767 517.72 397.109 517.798C398.372 517.876 399.649 517.954 400.939 518.045C401.942 518.098 402.945 518.176 403.961 518.241C404.821 518.306 405.681 518.371 406.54 518.423L407.713 518.501C408.351 518.553 408.989 518.592 409.641 518.657C411.074 518.774 412.507 518.892 413.966 519.009C415.412 519.139 416.884 519.269 418.356 519.399C419.828 519.53 421.313 519.673 422.798 519.816C422.955 519.829 423.098 519.842 423.241 519.855C424.596 519.998 425.951 520.128 427.319 520.272C427.631 520.298 427.957 520.324 428.27 520.363C429.574 520.494 430.903 520.647 432.219 520.787C432.623 520.83 433.025 520.872 433.43 520.917C434.461 521.029 435.477 521.126 436.516 521.248C437.883 521.404 439.278 521.547 440.632 521.73C441.687 521.847 442.743 521.964 443.798 522.094C445.452 522.29 447.133 522.498 448.813 522.719C449.452 522.797 450.09 522.875 450.728 522.966C455.522 523.565 460.368 524.229 465.293 524.919C472.757 525.974 480.339 527.119 487.973 528.356C495.62 529.593 503.31 530.899 511.044 532.275C512.998 532.626 514.952 532.978 516.919 533.342C517.805 533.511 518.691 533.681 519.577 533.85C521.088 534.123 522.599 534.41 524.11 534.696C525.621 534.983 527.132 535.269 528.643 535.568C530.441 535.92 532.252 536.271 534.05 536.623C545.891 538.966 557.668 541.466 569.158 544.083C571.047 544.512 572.936 544.955 574.812 545.384C578.563 546.257 582.28 547.142 585.963 548.04C586.979 548.275 587.982 548.522 588.985 548.769C591.486 549.394 593.988 550.019 596.45 550.657L596.88 550.774C598.69 551.217 600.462 551.672 602.234 552.141C606.415 553.235 610.528 554.341 614.57 555.461C617.254 556.203 619.907 556.954 622.53 557.713C626.451 558.846 630.294 559.991 634.033 561.15C634.958 561.436 635.883 561.723 636.795 561.996C639.53 562.842 642.227 563.702 644.845 564.561C646.93 565.238 648.962 565.928 650.968 566.618C652.974 567.308 654.941 567.998 656.869 568.688C658.107 569.13 659.331 569.599 660.556 570.042C662.315 570.693 664.047 571.344 665.741 571.995C666.262 572.19 666.77 572.398 667.278 572.593C667.604 572.737 667.916 572.854 668.229 572.984C668.841 573.231 669.467 573.466 670.066 573.713C670.678 573.947 671.277 574.195 671.877 574.455C672.463 574.689 673.062 574.937 673.635 575.184C674.222 575.418 674.795 575.666 675.368 575.926C675.85 576.121 676.319 576.33 676.775 576.538C677.7 576.942 678.625 577.345 679.524 577.762C679.967 577.97 680.409 578.165 680.852 578.374L681.868 578.842C682.012 578.92 682.155 578.985 682.298 579.051C682.624 579.207 682.963 579.376 683.288 579.532C684.044 579.884 684.787 580.261 685.516 580.613C686.493 581.108 687.444 581.602 688.356 582.084C689.281 582.579 690.18 583.073 691.04 583.555C691.183 583.633 691.313 583.711 691.456 583.789C691.652 583.893 691.847 584.011 692.043 584.115C692.707 584.492 693.345 584.883 693.984 585.26C695.234 586.028 696.42 586.784 697.527 587.539C697.775 587.708 698.009 587.877 698.257 588.033C699.077 588.619 699.859 589.192 700.588 589.778C700.588 589.791 700.588 589.791 700.601 589.791C700.849 589.973 701.083 590.168 701.318 590.351C701.513 590.533 701.722 590.689 701.917 590.871C702.595 591.457 703.22 592.017 703.793 592.59C703.985 592.767 704.168 592.954 704.34 593.15C704.416 593.212 704.486 593.282 704.549 593.358C704.809 593.618 705.044 593.879 705.265 594.139C705.299 594.175 705.33 594.214 705.356 594.256C705.669 594.621 705.956 594.985 706.229 595.35C706.359 595.532 706.503 595.714 706.62 595.897C706.776 596.118 706.933 596.352 707.063 596.574C707.18 596.756 707.284 596.951 707.389 597.133C707.665 597.603 707.9 598.095 708.092 598.604C708.239 598.95 708.356 599.307 708.444 599.672C708.542 600.018 708.617 600.37 708.665 600.727V600.727Z" fill="#21364E"/>
<path opacity="0.2" d="M708.665 600.727C708.652 603.005 708.626 606.194 708.522 610.139C708.509 610.686 708.483 611.246 708.47 611.818C708.34 617.351 708.144 624.186 707.871 631.906C707.858 632.375 707.845 632.83 707.819 633.299C707.454 642.725 706.881 653.699 705.891 671.079C704.054 703.183 700.849 675.492 697.631 686.754C688.695 681.26 678.898 675.505 668.425 669.595C666.536 668.527 664.629 667.456 662.706 666.379C641.758 654.702 618.361 642.464 593.936 630.344C592.972 629.862 591.995 629.381 591.031 628.912C535.079 601.273 474.008 574.39 424.531 556.45C414.982 552.987 405.863 549.863 397.291 547.116C379.236 541.349 363.629 537.313 351.618 535.568C339.112 533.746 330.475 534.397 326.984 538.159C326.853 535.503 326.719 532.96 326.58 530.53C326.528 529.723 326.476 528.929 326.424 528.148C326.504 527.933 326.608 527.729 326.71 527.523C326.724 527.493 326.734 527.461 326.749 527.432C326.774 527.364 326.805 527.299 326.84 527.236C326.879 527.156 326.922 527.077 326.971 527.002C327.013 526.91 327.066 526.823 327.127 526.742C327.244 526.56 327.375 526.364 327.518 526.182C327.623 526.045 327.736 525.915 327.857 525.791C327.897 525.729 327.945 525.672 328 525.622C328.052 525.57 328.104 525.505 328.169 525.44C328.197 525.399 328.232 525.364 328.273 525.336C328.376 525.218 328.49 525.109 328.612 525.01C329.077 524.583 329.573 524.191 330.097 523.839C330.28 523.721 330.475 523.604 330.657 523.474C331.97 522.689 333.353 522.027 334.787 521.495C335.282 521.313 335.777 521.144 336.311 520.961C336.507 520.909 336.689 520.844 336.884 520.779C337.171 520.688 337.458 520.597 337.757 520.532C339.242 520.089 340.845 519.712 342.577 519.36C343.098 519.256 343.645 519.152 344.193 519.061C344.636 518.983 345.091 518.905 345.547 518.827C349.416 518.215 353.807 517.759 358.653 517.459C359.109 517.433 359.565 517.407 360.021 517.381C360.555 517.355 361.089 517.329 361.636 517.303C362.092 517.277 362.561 517.264 363.03 517.251C363.486 517.225 363.955 517.212 364.437 517.199C365.752 517.16 367.107 517.121 368.488 517.095C372.422 517.03 376.565 517.056 380.916 517.147C382.935 517.186 384.994 517.251 387.104 517.342C387.234 517.342 387.378 517.355 387.508 517.355C389.345 517.407 391.207 517.499 393.096 517.59C394.425 517.655 395.767 517.72 397.109 517.798C398.372 517.876 399.649 517.954 400.939 518.045C401.942 518.097 402.945 518.176 403.961 518.241C404.821 518.306 405.681 518.371 406.54 518.423C407.569 518.501 408.599 518.579 409.641 518.657C411.074 518.774 412.507 518.892 413.966 519.009C415.412 519.139 416.884 519.269 418.356 519.399C419.828 519.529 421.313 519.673 422.798 519.816C422.955 519.829 423.098 519.842 423.241 519.855C424.596 519.998 425.951 520.128 427.319 520.272C434.9 521.04 442.704 521.938 450.728 522.966C455.522 523.578 460.377 524.233 465.293 524.932C472.757 525.987 480.339 527.132 487.973 528.356C495.62 529.593 503.31 530.899 511.044 532.275C512.998 532.626 514.952 532.978 516.919 533.342C519.316 533.785 521.713 534.236 524.11 534.696C525.621 534.983 527.132 535.269 528.644 535.568C530.441 535.92 532.252 536.271 534.05 536.623C545.891 538.966 557.668 541.466 569.158 544.083C571.047 544.512 572.936 544.955 574.812 545.384C578.563 546.257 582.281 547.142 585.963 548.04C586.979 548.288 587.982 548.535 588.985 548.782C591.499 549.407 593.988 550.032 596.45 550.657V550.67C596.593 550.696 596.736 550.735 596.88 550.774C598.677 551.23 600.462 551.685 602.234 552.154C606.415 553.248 610.528 554.35 614.57 555.461C617.254 556.216 619.912 556.958 622.53 557.713C626.451 558.859 630.294 560.004 634.033 561.15C634.958 561.436 635.883 561.723 636.795 561.996C639.53 562.855 642.214 563.71 644.846 564.561C646.93 565.238 648.962 565.928 650.968 566.618C652.974 567.308 654.942 567.998 656.87 568.688C658.12 569.13 659.345 569.586 660.556 570.029C662.328 570.68 664.047 571.331 665.741 571.994C666.262 572.19 666.77 572.398 667.278 572.593C668.229 572.958 669.154 573.335 670.066 573.713C670.678 573.947 671.278 574.195 671.877 574.455C672.463 574.689 673.062 574.937 673.635 575.184C674.222 575.418 674.795 575.666 675.368 575.926C675.85 576.121 676.319 576.33 676.775 576.538C677.7 576.942 678.625 577.345 679.524 577.762C679.967 577.97 680.41 578.165 680.852 578.374L681.869 578.842C682.012 578.92 682.155 578.985 682.298 579.051C683.406 579.571 684.474 580.092 685.516 580.613C686.493 581.107 687.444 581.602 688.356 582.084C689.437 582.657 690.466 583.217 691.457 583.789C691.652 583.893 691.847 584.011 692.043 584.115C692.707 584.492 693.345 584.883 693.984 585.26C695.234 586.028 696.42 586.784 697.527 587.539C698.621 588.294 699.638 589.036 700.589 589.778C700.589 589.791 700.589 589.791 700.602 589.791C701.058 590.155 701.5 590.52 701.917 590.871C702.595 591.457 703.22 592.017 703.793 592.59C703.985 592.767 704.168 592.953 704.34 593.15C704.416 593.212 704.486 593.282 704.549 593.358C704.822 593.657 705.096 593.957 705.357 594.256C705.669 594.621 705.956 594.985 706.229 595.35C706.36 595.532 706.503 595.714 706.62 595.897C706.777 596.118 706.933 596.352 707.063 596.574C707.18 596.756 707.285 596.951 707.389 597.133C707.665 597.603 707.901 598.095 708.092 598.604C708.235 598.951 708.352 599.308 708.444 599.672C708.543 600.018 708.617 600.37 708.665 600.727V600.727Z" fill="#011E41"/>
</g>
<defs>
<clipPath id="clip0_139_8">
<rect width="1025" height="745" fill="white"/>
</clipPath>
</defs>
</svg>
